<svg width="50" height="50" viewBox="0 0 50 50" fill="none" xmlns="http://www.w3.org/2000/svg">
<path d="M25 49C38.2549 49 49 38.2549 49 25C49 11.7452 38.2549 1 25 1C11.7452 1 1 11.7452 1 25C1 38.2549 11.7452 49 25 49Z" fill="#F2F2F2"/>
<path d="M48.7429 24.9999C48.7429 38.1127 38.1128 48.7428 25.0001 48.7428C11.8872 48.7428 1.2572 38.1127 1.2572 24.9999C1.2572 11.8871 11.8872 1.25708 25.0001 1.25708C38.1128 1.25708 48.7429 11.8871 48.7429 24.9999Z" stroke="white" stroke-opacity="0.5"/>
<path fill-rule="evenodd" clip-rule="evenodd" d="M13.4651 13.4661C19.8329 7.09822 30.1572 7.09822 36.5251 13.4661C42.893 19.8339 42.893 30.1583 36.5251 36.526C30.1572 42.8939 19.8329 42.8939 13.4651 36.526C7.09725 30.1583 7.09725 19.8339 13.4651 13.4661ZM18.0771 18.0781C14.2564 21.8987 14.2564 28.0933 18.0771 31.9141C21.8978 35.7347 28.0924 35.7347 31.9132 31.9141C35.7338 28.0933 35.7338 21.8987 31.9132 18.0781C28.0924 14.2574 21.8978 14.2574 18.0771 18.0781Z" fill="#333333"/>
<path fill-rule="evenodd" clip-rule="evenodd" d="M45.7497 28.0706L37.2943 36.5258L30.3763 29.6078L38.8317 21.1526L45.7497 28.0706Z" fill="#F2F2F2"/>
<path fill-rule="evenodd" clip-rule="evenodd" d="M19.6146 19.6147L11.5436 27.6858L4.62561 20.7678L12.6966 12.6968L19.6146 19.6147Z" fill="#F2F2F2"/>
<path fill-rule="evenodd" clip-rule="evenodd" d="M15.7719 16.5405L9.62258 22.6898L6.16357 19.2309L12.3129 13.0815L15.7719 16.5405Z" fill="#F2F2F2"/>
<path fill-rule="evenodd" clip-rule="evenodd" d="M44.9808 29.6078L38.8315 35.7572L35.3726 32.2982L41.5219 26.1489L44.9808 29.6078Z" fill="#F2F2F2"/>
<path fill-rule="evenodd" clip-rule="evenodd" d="M18.9213 26.8349L12.6731 20.5869C12.4622 20.376 12.1203 20.376 11.9094 20.5869L5.75923 26.737C5.54836 26.9479 5.54836 27.2897 5.75923 27.5008C5.85946 27.6009 5.99506 27.6578 6.1368 27.6588L18.5352 27.7569C18.8333 27.7593 19.0771 27.5193 19.0793 27.2212C19.0805 27.0765 19.0236 26.9373 18.9213 26.8349Z" fill="#333333"/>
<path fill-rule="evenodd" clip-rule="evenodd" d="M30.6239 21.5893L36.8721 27.8375C37.083 28.0484 37.4248 28.0484 37.6358 27.8375L43.786 21.6873C43.9969 21.4763 43.9969 21.1345 43.786 20.9236C43.6857 20.8233 43.5501 20.7666 43.4084 20.7654L31.01 20.6675C30.7118 20.6651 30.4681 20.9049 30.4658 21.2032C30.4646 21.3479 30.5216 21.4869 30.6239 21.5893Z" fill="#333333"/>
<path fill-rule="evenodd" clip-rule="evenodd" d="M14.2316 13.4633L18.08 17.3117C18.2908 17.5225 18.2908 17.8644 18.08 18.0753L18.075 18.0803C17.8641 18.2912 17.5222 18.2912 17.3113 18.0803L13.463 14.232C13.2521 14.0211 13.2521 13.6792 13.463 13.4683L13.468 13.4633C13.6789 13.2525 14.0208 13.2525 14.2316 13.4633Z" fill="#333333"/>
<path fill-rule="evenodd" clip-rule="evenodd" d="M33.0644 31.527L36.9128 35.3754C37.1237 35.5863 37.1237 35.9281 36.9128 36.139L36.9078 36.1441C36.697 36.355 36.355 36.355 36.1441 36.1441L32.2957 32.2957C32.0849 32.0849 32.0849 31.7429 32.2957 31.532L32.3007 31.527C32.5117 31.3162 32.8535 31.3162 33.0644 31.527Z" fill="#333333"/>
</svg>
