<svg width="49" height="48" viewBox="0 0 49 48" fill="none" xmlns="http://www.w3.org/2000/svg">
<g clip-path="url(#clip0)">
<path d="M24.6974 48C37.9522 48 48.6974 37.2549 48.6974 24C48.6974 10.7452 37.9522 0 24.6974 0C11.4425 0 0.697388 10.7452 0.697388 24C0.697388 37.2549 11.4425 48 24.6974 48Z" fill="#4E064F"/>
<path fill-rule="evenodd" clip-rule="evenodd" d="M13.1625 12.4661C19.5303 6.09822 29.8546 6.09822 36.2225 12.4661C42.5904 18.8339 42.5904 29.1583 36.2225 35.526C29.8546 41.8939 19.5303 41.8939 13.1625 35.526C6.79464 29.1583 6.79464 18.8339 13.1625 12.4661ZM17.7745 17.0781C13.9538 20.8987 13.9538 27.0933 17.7745 30.9141C21.5952 34.7347 27.7898 34.7347 31.6106 30.9141C35.4312 27.0933 35.4312 20.8987 31.6106 17.0781C27.7898 13.2574 21.5952 13.2574 17.7745 17.0781Z" fill="white"/>
<path fill-rule="evenodd" clip-rule="evenodd" d="M45.4471 27.0706L36.9917 35.5258L30.0737 28.6078L38.5291 20.1526L45.4471 27.0706Z" fill="#4E064F"/>
<path fill-rule="evenodd" clip-rule="evenodd" d="M19.312 18.6147L11.241 26.6858L4.323 19.7678L12.394 11.6968L19.312 18.6147Z" fill="#4E064F"/>
<path fill-rule="evenodd" clip-rule="evenodd" d="M15.4693 15.5405L9.31996 21.6898L5.86096 18.2309L12.0103 12.0815L15.4693 15.5405Z" fill="#4E064F"/>
<path fill-rule="evenodd" clip-rule="evenodd" d="M44.6783 28.6078L38.529 34.7572L35.0701 31.2982L41.2194 25.1489L44.6783 28.6078Z" fill="#4E064F"/>
<path fill-rule="evenodd" clip-rule="evenodd" d="M18.6186 25.8349L12.3705 19.5869C12.1596 19.376 11.8177 19.376 11.6068 19.5869L5.45662 25.737C5.24574 25.9479 5.24574 26.2897 5.45662 26.5008C5.55685 26.6009 5.69245 26.6578 5.83419 26.6588L18.2326 26.7569C18.5307 26.7593 18.7745 26.5193 18.7767 26.2212C18.7779 26.0765 18.721 25.9373 18.6186 25.8349Z" fill="white"/>
<path fill-rule="evenodd" clip-rule="evenodd" d="M30.3213 20.5893L36.5695 26.8375C36.7804 27.0484 37.1222 27.0484 37.3332 26.8375L43.4834 20.6873C43.6943 20.4763 43.6943 20.1345 43.4834 19.9236C43.3831 19.8233 43.2475 19.7666 43.1057 19.7654L30.7073 19.6675C30.4092 19.6651 30.1655 19.9049 30.1632 20.2032C30.162 20.3479 30.2189 20.4869 30.3213 20.5893Z" fill="white"/>
<path fill-rule="evenodd" clip-rule="evenodd" d="M13.929 12.4633L17.7774 16.3117C17.9882 16.5225 17.9882 16.8644 17.7774 17.0753L17.7724 17.0803C17.5615 17.2912 17.2196 17.2912 17.0087 17.0803L13.1604 13.232C12.9495 13.0211 12.9495 12.6792 13.1604 12.4683L13.1654 12.4633C13.3762 12.2525 13.7181 12.2525 13.929 12.4633Z" fill="white"/>
<path fill-rule="evenodd" clip-rule="evenodd" d="M32.7618 30.527L36.6102 34.3754C36.821 34.5863 36.821 34.9281 36.6102 35.139L36.6052 35.1441C36.3944 35.355 36.0524 35.355 35.8415 35.1441L31.9931 31.2957C31.7822 31.0849 31.7822 30.7429 31.9931 30.532L31.9981 30.527C32.2091 30.3162 32.5509 30.3162 32.7618 30.527Z" fill="white"/>
</g>
<defs>
<clipPath id="clip0">
<rect width="48" height="48" fill="white" transform="translate(0.697388)"/>
</clipPath>
</defs>
</svg>
