<?xml version="1.0" encoding="UTF-8"?>
<svg width="346px" height="50px" viewBox="0 0 346 50" version="1.1" xmlns="http://www.w3.org/2000/svg" xmlns:xlink="http://www.w3.org/1999/xlink">
    <!-- Generator: Sketch 42 (36781) - http://www.bohemiancoding.com/sketch -->
    <title>Artboard 2</title>
    <desc>Created with Sketch.</desc>
    <defs></defs>
    <g id="Page-1" stroke="none" stroke-width="1" fill="none" fill-rule="evenodd">
        <g id="Artboard-2" fill="#0A0A08">
            <g id="gizmodo">
                <path d="M56.6323232,44.0792929 L56.6323232,6.3020202 C56.6323232,4.33989899 57.079798,2.86717172 57.9747475,1.88686869 C58.8686869,0.905555556 60.0267677,0.414646465 61.4444444,0.414646465 C62.9070707,0.414646465 64.090404,0.900505051 64.9969697,1.87070707 C65.9020202,2.84090909 66.3560606,4.31717172 66.3560606,6.3020202 L66.3560606,44.0792929 C66.3560606,46.0631313 65.9020202,47.5459596 64.9969697,48.5272727 C64.090404,49.5090909 62.9070707,50 61.4444444,50 C60.0474747,50 58.8964646,49.5035354 57.990404,48.5111111 C57.0848485,47.5186869 56.6323232,46.0409091 56.6323232,44.0792929" id="Fill-1"></path>
                <path d="M320.791919,10.4752525 C312.660101,10.4752525 306.044444,17.0919192 306.044444,25.2232323 C306.044444,33.3540404 312.660101,39.969697 320.791919,39.969697 C328.922727,39.969697 335.538889,33.3540404 335.538889,25.2232323 C335.538889,17.0919192 328.922727,10.4752525 320.791919,10.4752525 M320.791919,50 C307.129798,50 296.014141,38.8848485 296.014141,25.2232323 C296.014141,11.560101 307.129798,0.444949495 320.791919,0.444949495 C334.455051,0.444949495 345.568687,11.560101 345.568687,25.2232323 C345.568687,38.8848485 334.455051,50 320.791919,50" id="Fill-2"></path>
                <path d="M209.562121,10.4752525 C201.431313,10.4752525 194.815657,17.0919192 194.815657,25.2232323 C194.815657,33.3540404 201.431313,39.969697 209.562121,39.969697 C217.694444,39.969697 224.308586,33.3540404 224.308586,25.2232323 C224.308586,17.0919192 217.694444,10.4752525 209.562121,10.4752525 M209.562121,50 C195.9,50 184.785354,38.8848485 184.785354,25.2232323 C184.785354,11.560101 195.9,0.444949495 209.562121,0.444949495 C223.224747,0.444949495 234.339899,11.560101 234.339899,25.2232323 C234.339899,38.8848485 223.224747,50 209.562121,50" id="Fill-3"></path>
                <g id="Group-7" transform="translate(127.777778, 0.000000)">
                    <path d="M137.276263,39.8484848 C136.077273,39.9267677 134.787374,39.940404 133.4,39.940404 L126.894949,39.940404 L126.894949,10.4742424 L133.4,10.4742424 C134.787374,10.4742424 136.077273,10.4893939 137.276263,10.5656566 C141.576768,11.079798 145.313131,13.4474747 147.660606,16.8515152 C149.29596,19.2217172 150.259091,22.0873737 150.265657,25.1777778 C150.265657,25.1853535 150.266667,25.1934343 150.266667,25.2020202 L150.266667,25.2131313 C150.266667,25.2207071 150.265657,25.2287879 150.265657,25.2368687 C150.259091,28.3272727 149.29596,31.1929293 147.660606,33.5636364 C145.313131,36.9676768 141.576768,39.3338384 137.276263,39.8484848 M160.29798,25.2070707 L160.29798,25.2005051 C160.294949,19.7323232 158.512121,14.6752525 155.50303,10.5722222 C151.125758,4.60454545 144.149495,0.666161616 136.256061,0.433838384 C136.011111,0.426262626 135.766667,0.414646465 135.519192,0.414646465 C135.505556,0.414646465 123.077273,0.43030303 123.077273,0.43030303 C120.95303,0.43030303 119.414646,0.914141414 118.464141,1.88181818 C117.512121,2.8489899 117.036364,4.41212121 117.036364,6.57323232 L117.036364,43.8414141 C117.036364,46.0020202 117.512121,47.5646465 118.464141,48.5333333 C119.414646,49.5010101 120.95303,49.9843434 123.077273,49.9843434 C123.077273,49.9843434 135.505556,50 135.519192,50 C135.766667,50 136.011111,49.9878788 136.256061,49.9813131 C144.149495,49.7484848 151.125758,45.809596 155.50303,39.8424242 C158.512121,35.7388889 160.294949,30.6818182 160.29798,25.2141414 L160.29798,25.2070707" id="Fill-4"></path>
                    <path d="M42.9752525,0.635353535 C41.1646465,0.0727272727 39.2085859,0.784343434 38.1540404,2.39090909 L23.2146465,25.1479798 L8.27575758,2.39090909 C7.22222222,0.784343434 5.26515152,0.0727272727 3.45454545,0.635353535 C1.64444444,1.19848485 0.408585859,2.90454545 0.408585859,4.83888889 L0.408585859,45.2848485 C0.408585859,47.7116162 2.33333333,49.6787879 4.70606061,49.6787879 C7.08030303,49.6787879 9.00454545,47.7116162 9.00454545,45.2848485 L9.00454545,19.2737374 L19.6116162,35.4292929 C19.6186869,35.440404 19.6257576,35.4510101 19.6328283,35.4621212 L19.6459596,35.4818182 C19.6585859,35.5015152 19.6737374,35.5191919 19.6868687,35.5393939 C19.7530303,35.6358586 19.8212121,35.7323232 19.8964646,35.8242424 C19.9292929,35.8651515 19.9636364,35.9020202 19.9974747,35.940404 C20.0570707,36.0080808 20.1146465,36.0767677 20.1777778,36.1409091 C20.2343434,36.1989899 20.2949495,36.2530303 20.3550505,36.3090909 C20.3984848,36.3479798 20.4419192,36.390404 20.4873737,36.4287879 C20.5722222,36.5 20.6580808,36.5641414 20.7469697,36.6267677 C20.7722222,36.6444444 20.7944444,36.6651515 20.820202,36.6823232 C20.8232323,36.6853535 20.8267677,36.6863636 20.8313131,36.6893939 C20.9257576,36.7535354 21.0237374,36.8116162 21.1237374,36.8686869 C21.1510101,36.8843434 21.1782828,36.9035354 21.2060606,36.9176768 C21.280303,36.9585859 21.3570707,36.9919192 21.4348485,37.0287879 C21.869697,37.2318182 22.3252525,37.3585859 22.7838384,37.4060606 C22.7878788,37.4060606 22.790404,37.4065657 22.7929293,37.4075758 C22.8843434,37.4156566 22.9752525,37.4176768 23.0651515,37.4212121 C23.1151515,37.4232323 23.1656566,37.4277778 23.2146465,37.4277778 C23.2656566,37.4277778 23.3146465,37.4232323 23.3646465,37.4212121 C23.4560606,37.4176768 23.5464646,37.4156566 23.6373737,37.4075758 C23.639899,37.4065657 23.6434343,37.4060606 23.6459596,37.4060606 C24.1055556,37.3585859 24.5606061,37.2318182 24.9959596,37.0287879 C25.0727273,36.9919192 25.1505051,36.9585859 25.2242424,36.9176768 C25.2530303,36.9035354 25.2787879,36.8843434 25.3075758,36.8686869 C25.4070707,36.8116162 25.5045455,36.7535354 25.5989899,36.6893939 C25.6035354,36.6863636 25.6075758,36.6853535 25.6111111,36.6823232 C25.6363636,36.6651515 25.6585859,36.6444444 25.6833333,36.6267677 C25.7722222,36.5641414 25.859596,36.5 25.9434343,36.4287879 C25.9893939,36.390404 26.0318182,36.3479798 26.0772727,36.3070707 C26.1358586,36.2530303 26.1959596,36.1989899 26.2525253,36.1419192 C26.3166667,36.0767677 26.3742424,36.0075758 26.4333333,35.939899 C26.4676768,35.9020202 26.5025253,35.8641414 26.5343434,35.8242424 C26.6090909,35.7323232 26.6772727,35.6358586 26.7439394,35.5393939 C26.7570707,35.5191919 26.7722222,35.5015152 26.7853535,35.4818182 L26.7974747,35.4621212 C26.8050505,35.4510101 26.8116162,35.440404 26.819697,35.4292929 L37.4252525,19.2737374 L37.4252525,45.2848485 C37.4252525,47.7116162 39.3484848,49.6787879 41.7252525,49.6787879 C44.0969697,49.6787879 46.0232323,47.7116162 46.0232323,45.2848485 L46.0232323,4.83888889 C46.0232323,2.90454545 44.7858586,1.19848485 42.9752525,0.635353535" id="Fill-6"></path>
                </g>
                <path d="M113.558081,48.4924242 L81.4282828,48.4924242 C79.7383838,48.4924242 77.8606061,47.4348485 77.1651515,45.789899 C76.4691919,44.1459596 76.3267677,41.9080808 77.8232323,40.1242424 L104.105556,9.62929293 L82.3924242,9.62929293 C80.0186869,9.62929293 78.0934343,7.57323232 78.0934343,5.03686869 C78.0934343,2.50050505 80.0186869,0.951515152 82.3924242,0.951515152 L111.672222,0.951515152 C113.361616,0.951515152 115.111616,1.22020202 116.640404,2.89494949 C118.037374,4.42525253 117.975758,7.72878788 116.411111,9.6989899 L91.0166667,39.3085859 L113.558081,39.3085859 C115.932323,39.3085859 117.660606,41.3646465 117.660606,43.9 C117.660606,46.4358586 115.932323,48.4924242 113.558081,48.4924242" id="Fill-8"></path>
                <path d="M24.5984848,50 C17.4686869,50 11.0025253,47.1732323 6.39141414,42.039899 C2.32878788,37.5176768 0,31.5585859 0,25.6914141 C0,7.27727273 15.3070707,0.415151515 24.9560606,0.415151515 C34.4429293,0.415151515 41.4070707,5.06717172 41.6984848,5.26414141 C43.8353535,6.71414141 44.4070707,9.64393939 42.9757576,11.8080808 C41.5479798,13.9646465 38.6691919,14.5479798 36.5343434,13.1141414 C36.410101,13.0343434 31.469697,9.8479798 24.9560606,9.8479798 C18.9080808,9.8479798 10.5676768,13.8393939 10.5676768,25.6914141 C10.5676768,32.4333333 15.5828283,40.3853535 24.7777778,40.3853535 C29.9515152,40.3853535 33.5888889,39.0070707 35.7035354,37.6616162 L35.7035354,30.6489899 L28.5388889,30.6489899 C25.9666667,30.6489899 23.8818182,28.5378788 23.8818182,25.9323232 C23.8818182,23.3277778 25.9666667,21.2161616 28.5388889,21.2161616 L40.3606061,21.2161616 C42.9323232,21.2161616 45.0176768,23.3277778 45.0176768,25.9323232 L45.0176768,39.9611111 C45.0176768,41.2373737 44.5070707,42.4570707 43.6040404,43.3459596 C40.4818182,46.4151515 33.6313131,50 24.5984848,50" id="Fill-9"></path>
            </g>
        </g>
    </g>
</svg>