<?xml version="1.0" encoding="UTF-8"?>
<svg width="248px" height="50px" viewBox="0 0 248 50" version="1.1" xmlns="http://www.w3.org/2000/svg" xmlns:xlink="http://www.w3.org/1999/xlink">
    <!-- Generator: Sketch 42 (36781) - http://www.bohemiancoding.com/sketch -->
    <title>Artboard</title>
    <desc>Created with Sketch.</desc>
    <defs></defs>
    <g id="Page-1" stroke="none" stroke-width="1" fill="none" fill-rule="evenodd">
        <g id="Artboard">
            <polygon id="Fill-3" fill="#F67300" points="198.181818 50.4545455 247.727273 50.4545455 247.727273 0 198.181818 0"></polygon>
            <polygon id="Fill-4" fill="#F67300" points="99.0909091 50.4545455 148.636364 50.4545455 148.636364 0 99.0909091 0"></polygon>
            <polygon id="Fill-5" fill="#F67300" points="0 50.4545455 49.5454545 50.4545455 49.5454545 0 0 0"></polygon>
            <path d="M86.6672727,13.9390909 L86.6672727,8.18181818 L62.7272727,8.18181818 L62.7272727,13.9390909 L71.0609091,13.9390909 L71.0609091,36.6672727 L62.7272727,36.6672727 L62.7272727,42.4245455 L86.6672727,42.4245455 L86.6672727,36.6672727 L77.5763636,36.6672727 L77.5763636,13.9390909 L86.6672727,13.9390909" id="Fill-6" fill="#F67300"></path>
            <path d="M126.97,23.3372814 C122.727273,23.3372814 117.576364,23.4890996 117.576364,23.4890996 L117.576364,14.0945541 L127.121818,14.0945541 C127.121818,14.0945541 132.272727,13.3372814 132.272727,18.1854632 C132.272727,22.4281905 131.212727,23.3372814 126.97,23.3372814 Z M133.94,26.6709178 C133.94,26.6709178 139.090909,26.2163723 139.090909,16.9736451 C139.090909,7.73091778 130.606364,8.18546324 130.606364,8.18546324 L110.909091,8.18546324 L110.909091,42.1254632 L117.576364,42.1254632 L117.576364,28.9436451 C117.576364,28.9436451 124.394545,28.7918269 128.333636,28.7918269 C132.272727,28.7918269 132.272727,34.5490996 132.272727,34.5490996 L132.272727,41.9736451 L139.090909,41.9736451 L139.090909,34.0945541 C139.090909,26.972736 133.94,26.6709178 133.94,26.6709178 L133.94,26.6709178 Z" id="Fill-7" fill="#FFFFFF"></path>
            <polyline id="Fill-8" fill="#F67300" points="158.181818 8.18181818 158.181818 13.7881818 162.879091 13.7881818 162.879091 36.6672727 158.181818 36.6672727 158.181818 42.2727273 187.121818 42.2727273 187.121818 31.2127273 181.363636 31.2127273 181.363636 36.6672727 169.090909 36.6672727 169.090909 27.4245455 178.181818 27.4245455 178.181818 21.8181818 169.090909 21.8181818 169.090909 13.7881818 180.909091 13.7881818 180.909091 19.2427273 187.121818 19.2427273 187.121818 8.18181818 158.181818 8.18181818"></polyline>
            <path d="M232.120909,29.9124583 C232.120909,29.9124583 231.97,36.579731 226.818182,36.579731 L216.060909,36.579731 L216.060909,13.8524583 L226.363636,13.8524583 C226.363636,13.8524583 232.120909,13.3970038 232.120909,21.1251856 L232.120909,29.9124583 Z M238.939091,29.7615492 L238.939091,20.2160947 C238.939091,6.57973104 223.788182,8.24609468 223.788182,8.24609468 L209.090909,8.24609468 L209.090909,42.639731 C209.090909,42.639731 214.697273,42.4888219 227.120909,42.4888219 C239.544545,42.4888219 238.939091,29.7615492 238.939091,29.7615492 L238.939091,29.7615492 Z" id="Fill-9" fill="#FFFFFF"></path>
            <polyline id="Fill-10" fill="#FFFFFF" points="4.54545455 8.18181818 11.3636364 8.18181818 16.0609091 34.0909091 22.1209091 8.18181818 29.5454545 8.33363636 35.6054545 34.5454545 40.1518182 8.18181818 46.6663636 8.18181818 39.6963636 42.1209091 31.2118182 42.1209091 25.7572727 17.4245455 19.8481818 42.2727273 11.5154545 42.2727273 4.54545455 8.18181818"></polyline>
        </g>
    </g>
</svg>