<svg width="1329" height="546" viewBox="0 0 1329 546" fill="none" xmlns="http://www.w3.org/2000/svg">
<path d="M1.21875 3.52344H3.05469L8.85156 12.8203V3.52344H10.3281V15H8.58594L2.70312 5.71094V15H1.21875V3.52344ZM17.9141 14.0938C18.8464 14.0938 19.4844 13.7422 19.8281 13.0391C20.1771 12.3307 20.3516 11.5443 20.3516 10.6797C20.3516 9.89844 20.2266 9.26302 19.9766 8.77344C19.5807 8.0026 18.8984 7.61719 17.9297 7.61719C17.0703 7.61719 16.4453 7.94531 16.0547 8.60156C15.6641 9.25781 15.4688 10.0495 15.4688 10.9766C15.4688 11.8672 15.6641 12.6094 16.0547 13.2031C16.4453 13.7969 17.0651 14.0938 17.9141 14.0938ZM17.9688 6.39062C19.0469 6.39062 19.9583 6.75 20.7031 7.46875C21.4479 8.1875 21.8203 9.24479 21.8203 10.6406C21.8203 11.9896 21.4922 13.1042 20.8359 13.9844C20.1797 14.8646 19.1615 15.3047 17.7812 15.3047C16.6302 15.3047 15.7161 14.9167 15.0391 14.1406C14.362 13.3594 14.0234 12.3125 14.0234 11C14.0234 9.59375 14.3802 8.47396 15.0938 7.64062C15.8073 6.80729 16.7656 6.39062 17.9688 6.39062ZM25.5 6.67188H26.9297V15H25.5V6.67188ZM25.5 3.52344H26.9297V5.11719H25.5V3.52344ZM31.8984 12.375C31.9401 12.8438 32.0573 13.2031 32.25 13.4531C32.6042 13.9062 33.2188 14.1328 34.0938 14.1328C34.6146 14.1328 35.0729 14.0208 35.4688 13.7969C35.8646 13.5677 36.0625 13.2161 36.0625 12.7422C36.0625 12.3828 35.9036 12.1094 35.5859 11.9219C35.3828 11.8073 34.9818 11.6745 34.3828 11.5234L33.2656 11.2422C32.5521 11.0651 32.026 10.8672 31.6875 10.6484C31.0833 10.2682 30.7812 9.74219 30.7812 9.07031C30.7812 8.27865 31.0651 7.63802 31.6328 7.14844C32.2057 6.65885 32.974 6.41406 33.9375 6.41406C35.1979 6.41406 36.1068 6.78385 36.6641 7.52344C37.013 7.99219 37.1823 8.4974 37.1719 9.03906H35.8438C35.8177 8.72135 35.7057 8.43229 35.5078 8.17188C35.1849 7.80208 34.625 7.61719 33.8281 7.61719C33.2969 7.61719 32.8932 7.71875 32.6172 7.92188C32.3464 8.125 32.2109 8.39323 32.2109 8.72656C32.2109 9.09115 32.3906 9.38281 32.75 9.60156C32.9583 9.73177 33.2656 9.84635 33.6719 9.94531L34.6016 10.1719C35.612 10.4167 36.2891 10.6536 36.6328 10.8828C37.1797 11.2422 37.4531 11.8073 37.4531 12.5781C37.4531 13.3229 37.1693 13.9661 36.6016 14.5078C36.0391 15.0495 35.1797 15.3203 34.0234 15.3203C32.7786 15.3203 31.8958 15.0391 31.375 14.4766C30.8594 13.9089 30.5833 13.2083 30.5469 12.375H31.8984ZM44.5469 6.44531C45.1406 6.44531 45.7161 6.58594 46.2734 6.86719C46.8307 7.14323 47.2552 7.5026 47.5469 7.94531C47.8281 8.36719 48.0156 8.85938 48.1094 9.42188C48.1927 9.80729 48.2344 10.4219 48.2344 11.2656H42.1016C42.1276 12.1146 42.3281 12.7969 42.7031 13.3125C43.0781 13.8229 43.6589 14.0781 44.4453 14.0781C45.1797 14.0781 45.7656 13.8359 46.2031 13.3516C46.4531 13.0703 46.6302 12.7448 46.7344 12.375H48.1172C48.0807 12.6823 47.9583 13.026 47.75 13.4062C47.5469 13.7812 47.3177 14.0885 47.0625 14.3281C46.6354 14.7448 46.1068 15.026 45.4766 15.1719C45.138 15.2552 44.7552 15.2969 44.3281 15.2969C43.2865 15.2969 42.4036 14.9193 41.6797 14.1641C40.9557 13.4036 40.5938 12.3411 40.5938 10.9766C40.5938 9.63281 40.9583 8.54167 41.6875 7.70312C42.4167 6.86458 43.3698 6.44531 44.5469 6.44531ZM46.7891 10.1484C46.7318 9.53906 46.599 9.05208 46.3906 8.6875C46.0052 8.01042 45.362 7.67188 44.4609 7.67188C43.8151 7.67188 43.2734 7.90625 42.8359 8.375C42.3984 8.83854 42.1667 9.42969 42.1406 10.1484H46.7891ZM61.0312 3.52344H62.2188L58.5781 15H57.3906L61.0312 3.52344ZM73.2031 3.52344V10.6172C73.2031 11.4505 73.3594 12.1432 73.6719 12.6953C74.1354 13.5286 74.9167 13.9453 76.0156 13.9453C77.3333 13.9453 78.2292 13.4948 78.7031 12.5938C78.9583 12.1042 79.0859 11.4453 79.0859 10.6172V3.52344H80.6641V9.96875C80.6641 11.3802 80.474 12.4661 80.0938 13.2266C79.3958 14.612 78.0781 15.3047 76.1406 15.3047C74.2031 15.3047 72.888 14.612 72.1953 13.2266C71.8151 12.4661 71.625 11.3802 71.625 9.96875V3.52344H73.2031ZM84.8906 6.63281H86.2266V7.82031C86.6224 7.33073 87.0417 6.97917 87.4844 6.76562C87.9271 6.55208 88.4193 6.44531 88.9609 6.44531C90.1484 6.44531 90.9505 6.85938 91.3672 7.6875C91.5964 8.14062 91.7109 8.78906 91.7109 9.63281V15H90.2812V9.72656C90.2812 9.21615 90.2057 8.80469 90.0547 8.49219C89.8047 7.97135 89.3516 7.71094 88.6953 7.71094C88.362 7.71094 88.0885 7.74479 87.875 7.8125C87.4896 7.92708 87.151 8.15625 86.8594 8.5C86.625 8.77604 86.4714 9.0625 86.3984 9.35938C86.3307 9.65104 86.2969 10.0703 86.2969 10.6172V15H84.8906V6.63281ZM99.0234 6.39062C99.9661 6.39062 100.732 6.61979 101.32 7.07812C101.914 7.53646 102.271 8.32552 102.391 9.44531H101.023C100.94 8.92969 100.75 8.5026 100.453 8.16406C100.156 7.82031 99.6797 7.64844 99.0234 7.64844C98.1276 7.64844 97.487 8.08594 97.1016 8.96094C96.8516 9.52865 96.7266 10.2292 96.7266 11.0625C96.7266 11.901 96.9036 12.6068 97.2578 13.1797C97.612 13.7526 98.1693 14.0391 98.9297 14.0391C99.513 14.0391 99.974 13.862 100.312 13.5078C100.656 13.1484 100.893 12.6589 101.023 12.0391H102.391C102.234 13.1484 101.844 13.9609 101.219 14.4766C100.594 14.987 99.7943 15.2422 98.8203 15.2422C97.7266 15.2422 96.8542 14.8438 96.2031 14.0469C95.5521 13.2448 95.2266 12.2448 95.2266 11.0469C95.2266 9.57812 95.5833 8.4349 96.2969 7.61719C97.0104 6.79948 97.9193 6.39062 99.0234 6.39062ZM109.281 6.44531C109.875 6.44531 110.451 6.58594 111.008 6.86719C111.565 7.14323 111.99 7.5026 112.281 7.94531C112.562 8.36719 112.75 8.85938 112.844 9.42188C112.927 9.80729 112.969 10.4219 112.969 11.2656H106.836C106.862 12.1146 107.062 12.7969 107.438 13.3125C107.812 13.8229 108.393 14.0781 109.18 14.0781C109.914 14.0781 110.5 13.8359 110.938 13.3516C111.188 13.0703 111.365 12.7448 111.469 12.375H112.852C112.815 12.6823 112.693 13.026 112.484 13.4062C112.281 13.7812 112.052 14.0885 111.797 14.3281C111.37 14.7448 110.841 15.026 110.211 15.1719C109.872 15.2552 109.49 15.2969 109.062 15.2969C108.021 15.2969 107.138 14.9193 106.414 14.1641C105.69 13.4036 105.328 12.3411 105.328 10.9766C105.328 9.63281 105.693 8.54167 106.422 7.70312C107.151 6.86458 108.104 6.44531 109.281 6.44531ZM111.523 10.1484C111.466 9.53906 111.333 9.05208 111.125 8.6875C110.74 8.01042 110.096 7.67188 109.195 7.67188C108.549 7.67188 108.008 7.90625 107.57 8.375C107.133 8.83854 106.901 9.42969 106.875 10.1484H111.523ZM116.742 6.63281H118.078V8.07812C118.188 7.79688 118.456 7.45573 118.883 7.05469C119.31 6.64844 119.802 6.44531 120.359 6.44531C120.385 6.44531 120.43 6.44792 120.492 6.45312C120.555 6.45833 120.661 6.46875 120.812 6.48438V7.96875C120.729 7.95312 120.651 7.94271 120.578 7.9375C120.51 7.93229 120.435 7.92969 120.352 7.92969C119.643 7.92969 119.099 8.15885 118.719 8.61719C118.339 9.07031 118.148 9.59375 118.148 10.1875V15H116.742V6.63281ZM124.312 4.29688H125.734V6.63281H127.07V7.78125H125.734V13.2422C125.734 13.5339 125.833 13.7292 126.031 13.8281C126.141 13.8854 126.323 13.9141 126.578 13.9141C126.646 13.9141 126.719 13.9141 126.797 13.9141C126.875 13.9089 126.966 13.901 127.07 13.8906V15C126.909 15.0469 126.74 15.0807 126.562 15.1016C126.391 15.1224 126.203 15.1328 126 15.1328C125.344 15.1328 124.898 14.9661 124.664 14.6328C124.43 14.2943 124.312 13.8568 124.312 13.3203V7.78125H123.18V6.63281H124.312V4.29688ZM131.562 12.7734C131.562 13.1797 131.711 13.5 132.008 13.7344C132.305 13.9688 132.656 14.0859 133.062 14.0859C133.557 14.0859 134.036 13.9714 134.5 13.7422C135.281 13.362 135.672 12.7396 135.672 11.875V10.7422C135.5 10.8516 135.279 10.9427 135.008 11.0156C134.737 11.0885 134.471 11.1406 134.211 11.1719L133.359 11.2812C132.849 11.349 132.466 11.4557 132.211 11.6016C131.779 11.8464 131.562 12.237 131.562 12.7734ZM134.969 9.92969C135.292 9.88802 135.508 9.7526 135.617 9.52344C135.68 9.39844 135.711 9.21875 135.711 8.98438C135.711 8.50521 135.539 8.15885 135.195 7.94531C134.857 7.72656 134.37 7.61719 133.734 7.61719C133 7.61719 132.479 7.8151 132.172 8.21094C132 8.42969 131.888 8.75521 131.836 9.1875H130.523C130.549 8.15625 130.883 7.4401 131.523 7.03906C132.169 6.63281 132.917 6.42969 133.766 6.42969C134.75 6.42969 135.549 6.61719 136.164 6.99219C136.773 7.36719 137.078 7.95052 137.078 8.74219V13.5625C137.078 13.7083 137.107 13.8255 137.164 13.9141C137.227 14.0026 137.354 14.0469 137.547 14.0469C137.609 14.0469 137.68 14.0443 137.758 14.0391C137.836 14.0286 137.919 14.0156 138.008 14V15.0391C137.789 15.1016 137.622 15.1406 137.508 15.1562C137.393 15.1719 137.237 15.1797 137.039 15.1797C136.555 15.1797 136.203 15.0078 135.984 14.6641C135.87 14.4818 135.789 14.224 135.742 13.8906C135.456 14.2656 135.044 14.5911 134.508 14.8672C133.971 15.1432 133.38 15.2812 132.734 15.2812C131.958 15.2812 131.323 15.0469 130.828 14.5781C130.339 14.1042 130.094 13.513 130.094 12.8047C130.094 12.0286 130.336 11.4271 130.82 11C131.305 10.5729 131.94 10.3099 132.727 10.2109L134.969 9.92969ZM141.391 6.67188H142.82V15H141.391V6.67188ZM141.391 3.52344H142.82V5.11719H141.391V3.52344ZM146.953 6.63281H148.289V7.82031C148.685 7.33073 149.104 6.97917 149.547 6.76562C149.99 6.55208 150.482 6.44531 151.023 6.44531C152.211 6.44531 153.013 6.85938 153.43 7.6875C153.659 8.14062 153.773 8.78906 153.773 9.63281V15H152.344V9.72656C152.344 9.21615 152.268 8.80469 152.117 8.49219C151.867 7.97135 151.414 7.71094 150.758 7.71094C150.424 7.71094 150.151 7.74479 149.938 7.8125C149.552 7.92708 149.214 8.15625 148.922 8.5C148.688 8.77604 148.534 9.0625 148.461 9.35938C148.393 9.65104 148.359 10.0703 148.359 10.6172V15H146.953V6.63281ZM158.141 4.29688H159.562V6.63281H160.898V7.78125H159.562V13.2422C159.562 13.5339 159.661 13.7292 159.859 13.8281C159.969 13.8854 160.151 13.9141 160.406 13.9141C160.474 13.9141 160.547 13.9141 160.625 13.9141C160.703 13.9089 160.794 13.901 160.898 13.8906V15C160.737 15.0469 160.568 15.0807 160.391 15.1016C160.219 15.1224 160.031 15.1328 159.828 15.1328C159.172 15.1328 158.727 14.9661 158.492 14.6328C158.258 14.2943 158.141 13.8568 158.141 13.3203V7.78125H157.008V6.63281H158.141V4.29688ZM169.539 6.63281H171.094C170.896 7.16927 170.456 8.39323 169.773 10.3047C169.263 11.7422 168.836 12.9141 168.492 13.8203C167.68 15.9557 167.107 17.2578 166.773 17.7266C166.44 18.1953 165.867 18.4297 165.055 18.4297C164.857 18.4297 164.703 18.4219 164.594 18.4062C164.49 18.3906 164.359 18.362 164.203 18.3203V17.0391C164.448 17.1068 164.625 17.1484 164.734 17.1641C164.844 17.1797 164.94 17.1875 165.023 17.1875C165.284 17.1875 165.474 17.1432 165.594 17.0547C165.719 16.9714 165.823 16.8672 165.906 16.7422C165.932 16.7005 166.026 16.487 166.188 16.1016C166.349 15.7161 166.466 15.4297 166.539 15.2422L163.445 6.63281H165.039L167.281 13.4453L169.539 6.63281ZM183.375 3.52344H184.562L180.922 15H179.734L183.375 3.52344ZM194.008 3.52344H199.172C200.193 3.52344 201.016 3.8125 201.641 4.39062C202.266 4.96354 202.578 5.77083 202.578 6.8125C202.578 7.70833 202.299 8.48958 201.742 9.15625C201.185 9.81771 200.328 10.1484 199.172 10.1484H195.562V15H194.008V3.52344ZM201.008 6.82031C201.008 5.97656 200.695 5.40365 200.07 5.10156C199.727 4.9401 199.255 4.85938 198.656 4.85938H195.562V8.83594H198.656C199.354 8.83594 199.919 8.6875 200.352 8.39062C200.789 8.09375 201.008 7.57031 201.008 6.82031ZM207.422 12.7734C207.422 13.1797 207.57 13.5 207.867 13.7344C208.164 13.9688 208.516 14.0859 208.922 14.0859C209.417 14.0859 209.896 13.9714 210.359 13.7422C211.141 13.362 211.531 12.7396 211.531 11.875V10.7422C211.359 10.8516 211.138 10.9427 210.867 11.0156C210.596 11.0885 210.331 11.1406 210.07 11.1719L209.219 11.2812C208.708 11.349 208.326 11.4557 208.07 11.6016C207.638 11.8464 207.422 12.237 207.422 12.7734ZM210.828 9.92969C211.151 9.88802 211.367 9.7526 211.477 9.52344C211.539 9.39844 211.57 9.21875 211.57 8.98438C211.57 8.50521 211.398 8.15885 211.055 7.94531C210.716 7.72656 210.229 7.61719 209.594 7.61719C208.859 7.61719 208.339 7.8151 208.031 8.21094C207.859 8.42969 207.747 8.75521 207.695 9.1875H206.383C206.409 8.15625 206.742 7.4401 207.383 7.03906C208.029 6.63281 208.776 6.42969 209.625 6.42969C210.609 6.42969 211.409 6.61719 212.023 6.99219C212.633 7.36719 212.938 7.95052 212.938 8.74219V13.5625C212.938 13.7083 212.966 13.8255 213.023 13.9141C213.086 14.0026 213.214 14.0469 213.406 14.0469C213.469 14.0469 213.539 14.0443 213.617 14.0391C213.695 14.0286 213.779 14.0156 213.867 14V15.0391C213.648 15.1016 213.482 15.1406 213.367 15.1562C213.253 15.1719 213.096 15.1797 212.898 15.1797C212.414 15.1797 212.062 15.0078 211.844 14.6641C211.729 14.4818 211.648 14.224 211.602 13.8906C211.315 14.2656 210.904 14.5911 210.367 14.8672C209.831 15.1432 209.24 15.2812 208.594 15.2812C207.818 15.2812 207.182 15.0469 206.688 14.5781C206.198 14.1042 205.953 13.513 205.953 12.8047C205.953 12.0286 206.195 11.4271 206.68 11C207.164 10.5729 207.799 10.3099 208.586 10.2109L210.828 9.92969ZM217.531 4.29688H218.953V6.63281H220.289V7.78125H218.953V13.2422C218.953 13.5339 219.052 13.7292 219.25 13.8281C219.359 13.8854 219.542 13.9141 219.797 13.9141C219.865 13.9141 219.938 13.9141 220.016 13.9141C220.094 13.9089 220.185 13.901 220.289 13.8906V15C220.128 15.0469 219.958 15.0807 219.781 15.1016C219.609 15.1224 219.422 15.1328 219.219 15.1328C218.562 15.1328 218.117 14.9661 217.883 14.6328C217.648 14.2943 217.531 13.8568 217.531 13.3203V7.78125H216.398V6.63281H217.531V4.29688ZM223.984 4.29688H225.406V6.63281H226.742V7.78125H225.406V13.2422C225.406 13.5339 225.505 13.7292 225.703 13.8281C225.812 13.8854 225.995 13.9141 226.25 13.9141C226.318 13.9141 226.391 13.9141 226.469 13.9141C226.547 13.9089 226.638 13.901 226.742 13.8906V15C226.581 15.0469 226.411 15.0807 226.234 15.1016C226.062 15.1224 225.875 15.1328 225.672 15.1328C225.016 15.1328 224.57 14.9661 224.336 14.6328C224.102 14.2943 223.984 13.8568 223.984 13.3203V7.78125H222.852V6.63281H223.984V4.29688ZM233.641 6.44531C234.234 6.44531 234.81 6.58594 235.367 6.86719C235.924 7.14323 236.349 7.5026 236.641 7.94531C236.922 8.36719 237.109 8.85938 237.203 9.42188C237.286 9.80729 237.328 10.4219 237.328 11.2656H231.195C231.221 12.1146 231.422 12.7969 231.797 13.3125C232.172 13.8229 232.753 14.0781 233.539 14.0781C234.273 14.0781 234.859 13.8359 235.297 13.3516C235.547 13.0703 235.724 12.7448 235.828 12.375H237.211C237.174 12.6823 237.052 13.026 236.844 13.4062C236.641 13.7812 236.411 14.0885 236.156 14.3281C235.729 14.7448 235.201 15.026 234.57 15.1719C234.232 15.2552 233.849 15.2969 233.422 15.2969C232.38 15.2969 231.497 14.9193 230.773 14.1641C230.049 13.4036 229.688 12.3411 229.688 10.9766C229.688 9.63281 230.052 8.54167 230.781 7.70312C231.51 6.86458 232.464 6.44531 233.641 6.44531ZM235.883 10.1484C235.826 9.53906 235.693 9.05208 235.484 8.6875C235.099 8.01042 234.456 7.67188 233.555 7.67188C232.909 7.67188 232.367 7.90625 231.93 8.375C231.492 8.83854 231.26 9.42969 231.234 10.1484H235.883ZM241.102 6.63281H242.438V8.07812C242.547 7.79688 242.815 7.45573 243.242 7.05469C243.669 6.64844 244.161 6.44531 244.719 6.44531C244.745 6.44531 244.789 6.44792 244.852 6.45312C244.914 6.45833 245.021 6.46875 245.172 6.48438V7.96875C245.089 7.95312 245.01 7.94271 244.938 7.9375C244.87 7.93229 244.794 7.92969 244.711 7.92969C244.003 7.92969 243.458 8.15885 243.078 8.61719C242.698 9.07031 242.508 9.59375 242.508 10.1875V15H241.102V6.63281ZM248.391 6.63281H249.727V7.82031C250.122 7.33073 250.542 6.97917 250.984 6.76562C251.427 6.55208 251.919 6.44531 252.461 6.44531C253.648 6.44531 254.451 6.85938 254.867 7.6875C255.096 8.14062 255.211 8.78906 255.211 9.63281V15H253.781V9.72656C253.781 9.21615 253.706 8.80469 253.555 8.49219C253.305 7.97135 252.852 7.71094 252.195 7.71094C251.862 7.71094 251.589 7.74479 251.375 7.8125C250.99 7.92708 250.651 8.15625 250.359 8.5C250.125 8.77604 249.971 9.0625 249.898 9.35938C249.831 9.65104 249.797 10.0703 249.797 10.6172V15H248.391V6.63281ZM260.133 12.375C260.174 12.8438 260.292 13.2031 260.484 13.4531C260.839 13.9062 261.453 14.1328 262.328 14.1328C262.849 14.1328 263.307 14.0208 263.703 13.7969C264.099 13.5677 264.297 13.2161 264.297 12.7422C264.297 12.3828 264.138 12.1094 263.82 11.9219C263.617 11.8073 263.216 11.6745 262.617 11.5234L261.5 11.2422C260.786 11.0651 260.26 10.8672 259.922 10.6484C259.318 10.2682 259.016 9.74219 259.016 9.07031C259.016 8.27865 259.299 7.63802 259.867 7.14844C260.44 6.65885 261.208 6.41406 262.172 6.41406C263.432 6.41406 264.341 6.78385 264.898 7.52344C265.247 7.99219 265.417 8.4974 265.406 9.03906H264.078C264.052 8.72135 263.94 8.43229 263.742 8.17188C263.419 7.80208 262.859 7.61719 262.062 7.61719C261.531 7.61719 261.128 7.71875 260.852 7.92188C260.581 8.125 260.445 8.39323 260.445 8.72656C260.445 9.09115 260.625 9.38281 260.984 9.60156C261.193 9.73177 261.5 9.84635 261.906 9.94531L262.836 10.1719C263.846 10.4167 264.523 10.6536 264.867 10.8828C265.414 11.2422 265.688 11.8073 265.688 12.5781C265.688 13.3229 265.404 13.9661 264.836 14.5078C264.273 15.0495 263.414 15.3203 262.258 15.3203C261.013 15.3203 260.13 15.0391 259.609 14.4766C259.094 13.9089 258.818 13.2083 258.781 12.375H260.133ZM278.359 3.52344H279.547L275.906 15H274.719L278.359 3.52344ZM289.195 3.52344H290.766V15H289.195V3.52344ZM295.109 6.63281H296.445V7.82031C296.841 7.33073 297.26 6.97917 297.703 6.76562C298.146 6.55208 298.638 6.44531 299.18 6.44531C300.367 6.44531 301.169 6.85938 301.586 7.6875C301.815 8.14062 301.93 8.78906 301.93 9.63281V15H300.5V9.72656C300.5 9.21615 300.424 8.80469 300.273 8.49219C300.023 7.97135 299.57 7.71094 298.914 7.71094C298.581 7.71094 298.307 7.74479 298.094 7.8125C297.708 7.92708 297.37 8.15625 297.078 8.5C296.844 8.77604 296.69 9.0625 296.617 9.35938C296.549 9.65104 296.516 10.0703 296.516 10.6172V15H295.109V6.63281ZM306.852 12.375C306.893 12.8438 307.01 13.2031 307.203 13.4531C307.557 13.9062 308.172 14.1328 309.047 14.1328C309.568 14.1328 310.026 14.0208 310.422 13.7969C310.818 13.5677 311.016 13.2161 311.016 12.7422C311.016 12.3828 310.857 12.1094 310.539 11.9219C310.336 11.8073 309.935 11.6745 309.336 11.5234L308.219 11.2422C307.505 11.0651 306.979 10.8672 306.641 10.6484C306.036 10.2682 305.734 9.74219 305.734 9.07031C305.734 8.27865 306.018 7.63802 306.586 7.14844C307.159 6.65885 307.927 6.41406 308.891 6.41406C310.151 6.41406 311.06 6.78385 311.617 7.52344C311.966 7.99219 312.135 8.4974 312.125 9.03906H310.797C310.771 8.72135 310.659 8.43229 310.461 8.17188C310.138 7.80208 309.578 7.61719 308.781 7.61719C308.25 7.61719 307.846 7.71875 307.57 7.92188C307.299 8.125 307.164 8.39323 307.164 8.72656C307.164 9.09115 307.344 9.38281 307.703 9.60156C307.911 9.73177 308.219 9.84635 308.625 9.94531L309.555 10.1719C310.565 10.4167 311.242 10.6536 311.586 10.8828C312.133 11.2422 312.406 11.8073 312.406 12.5781C312.406 13.3229 312.122 13.9661 311.555 14.5078C310.992 15.0495 310.133 15.3203 308.977 15.3203C307.732 15.3203 306.849 15.0391 306.328 14.4766C305.812 13.9089 305.536 13.2083 305.5 12.375H306.852ZM316.016 6.67188H317.445V15H316.016V6.67188ZM316.016 3.52344H317.445V5.11719H316.016V3.52344ZM324.531 6.48438C325.188 6.48438 325.76 6.64583 326.25 6.96875C326.516 7.15104 326.786 7.41667 327.062 7.76562V6.71094H328.359V14.3203C328.359 15.3828 328.203 16.2214 327.891 16.8359C327.307 17.9714 326.206 18.5391 324.586 18.5391C323.685 18.5391 322.927 18.3359 322.312 17.9297C321.698 17.5286 321.354 16.8984 321.281 16.0391H322.711C322.779 16.4141 322.914 16.7031 323.117 16.9062C323.435 17.2188 323.935 17.375 324.617 17.375C325.695 17.375 326.401 16.9948 326.734 16.2344C326.932 15.7865 327.023 14.987 327.008 13.8359C326.727 14.263 326.388 14.5807 325.992 14.7891C325.596 14.9974 325.073 15.1016 324.422 15.1016C323.516 15.1016 322.721 14.7812 322.039 14.1406C321.362 13.4948 321.023 12.4297 321.023 10.9453C321.023 9.54427 321.365 8.45052 322.047 7.66406C322.734 6.8776 323.562 6.48438 324.531 6.48438ZM327.062 10.7812C327.062 9.74479 326.849 8.97656 326.422 8.47656C325.995 7.97656 325.451 7.72656 324.789 7.72656C323.799 7.72656 323.122 8.1901 322.758 9.11719C322.565 9.61198 322.469 10.2604 322.469 11.0625C322.469 12.0052 322.659 12.724 323.039 13.2188C323.424 13.7083 323.94 13.9531 324.586 13.9531C325.596 13.9531 326.307 13.4974 326.719 12.5859C326.948 12.0703 327.062 11.4688 327.062 10.7812ZM332.484 3.48438H333.891V7.76562C334.224 7.34375 334.523 7.04688 334.789 6.875C335.242 6.57812 335.807 6.42969 336.484 6.42969C337.698 6.42969 338.521 6.85417 338.953 7.70312C339.188 8.16667 339.305 8.8099 339.305 9.63281V15H337.859V9.72656C337.859 9.11198 337.781 8.66146 337.625 8.375C337.37 7.91667 336.891 7.6875 336.188 7.6875C335.604 7.6875 335.076 7.88802 334.602 8.28906C334.128 8.6901 333.891 9.44792 333.891 10.5625V15H332.484V3.48438ZM343.672 4.29688H345.094V6.63281H346.43V7.78125H345.094V13.2422C345.094 13.5339 345.193 13.7292 345.391 13.8281C345.5 13.8854 345.682 13.9141 345.938 13.9141C346.005 13.9141 346.078 13.9141 346.156 13.9141C346.234 13.9089 346.326 13.901 346.43 13.8906V15C346.268 15.0469 346.099 15.0807 345.922 15.1016C345.75 15.1224 345.562 15.1328 345.359 15.1328C344.703 15.1328 344.258 14.9661 344.023 14.6328C343.789 14.2943 343.672 13.8568 343.672 13.3203V7.78125H342.539V6.63281H343.672V4.29688ZM350.68 12.375C350.721 12.8438 350.839 13.2031 351.031 13.4531C351.385 13.9062 352 14.1328 352.875 14.1328C353.396 14.1328 353.854 14.0208 354.25 13.7969C354.646 13.5677 354.844 13.2161 354.844 12.7422C354.844 12.3828 354.685 12.1094 354.367 11.9219C354.164 11.8073 353.763 11.6745 353.164 11.5234L352.047 11.2422C351.333 11.0651 350.807 10.8672 350.469 10.6484C349.865 10.2682 349.562 9.74219 349.562 9.07031C349.562 8.27865 349.846 7.63802 350.414 7.14844C350.987 6.65885 351.755 6.41406 352.719 6.41406C353.979 6.41406 354.888 6.78385 355.445 7.52344C355.794 7.99219 355.964 8.4974 355.953 9.03906H354.625C354.599 8.72135 354.487 8.43229 354.289 8.17188C353.966 7.80208 353.406 7.61719 352.609 7.61719C352.078 7.61719 351.674 7.71875 351.398 7.92188C351.128 8.125 350.992 8.39323 350.992 8.72656C350.992 9.09115 351.172 9.38281 351.531 9.60156C351.74 9.73177 352.047 9.84635 352.453 9.94531L353.383 10.1719C354.393 10.4167 355.07 10.6536 355.414 10.8828C355.961 11.2422 356.234 11.8073 356.234 12.5781C356.234 13.3229 355.951 13.9661 355.383 14.5078C354.82 15.0495 353.961 15.3203 352.805 15.3203C351.56 15.3203 350.677 15.0391 350.156 14.4766C349.641 13.9089 349.365 13.2083 349.328 12.375H350.68Z" fill="#9C9C9C"/>
<path fill-rule="evenodd" clip-rule="evenodd" d="M129.644 213.45C129.422 213.35 129.201 213.25 128.979 213.15C128.102 215.278 125.194 216.409 125.539 219.138C125.846 219.292 126.154 219.446 126.461 219.6L129.644 213.45ZM115.135 234.995C114.843 234.872 114.551 234.749 114.258 234.625C112.917 237.083 111.575 239.54 110.233 241.997C110.44 242.111 110.647 242.225 110.854 242.34C111.9 239.676 115.197 238.284 115.135 234.995ZM151.582 258.006C151.867 254.899 152.11 252.261 152.428 248.803C148.705 254.211 148.705 254.211 151.582 258.006ZM20.2009 252.253C19.9645 255.289 19.7718 257.771 19.5786 260.253C19.8318 260.318 20.085 260.382 20.3382 260.446C21.2633 258.347 22.1878 256.247 23.1925 253.966C22.2028 253.399 21.4173 252.949 20.2009 252.253ZM37.6186 284.252C40.3963 277.997 40.6748 277.265 37.6186 274.136V284.252ZM96.8342 283.681L96.2396 283.634C95.6802 291.278 95.1213 298.922 94.5624 306.565C94.9206 306.59 95.2793 306.616 95.6375 306.64C96.036 298.987 96.4351 291.334 96.8342 283.681ZM136.638 200.715C138.727 198.51 140.513 196.692 142.202 194.787C142.547 194.398 142.526 193.685 142.674 193.121C142.072 193.114 141.437 192.975 140.874 193.118C137.175 194.057 136.558 196.905 136.638 200.715ZM95.8365 309.775C95.4616 309.797 95.0867 309.819 94.7124 309.84C95.2142 317.759 95.7159 325.679 96.2177 333.598C96.4669 333.583 96.7154 333.569 96.964 333.555C96.5886 325.629 96.2125 317.702 95.8365 309.775ZM156.501 219.609V231.716C158.397 227.702 161.197 223.695 156.501 219.609ZM137.502 192.196C139.009 191.528 140.171 191.013 141.462 190.441C140.152 187.366 138.944 184.53 137.502 181.148V192.196ZM113.668 228.606C114.023 228.807 114.378 229.007 114.734 229.207C117.032 225.841 119.397 222.515 121.549 219.058C121.825 218.615 120.998 217.486 120.385 215.915C117.835 220.733 115.751 224.67 113.668 228.606ZM86.5007 367.397C86.6305 358.814 84.3287 351.77 80.9818 350.611C82.8822 356.391 84.6915 361.893 86.5007 367.397ZM116.6 233.263C116.907 233.323 117.214 233.382 117.52 233.442C119.734 230.098 122.006 226.789 124.11 223.377C124.483 222.772 124.163 221.739 124.163 220.904L123.245 220.744C120.987 224.166 118.683 227.559 116.524 231.042C116.199 231.566 116.558 232.512 116.6 233.263ZM111.977 396.133C113.343 398.717 114.32 400.884 115.615 402.84C116.064 403.519 117.466 404.161 118.129 403.934C118.762 403.716 119.354 402.34 119.339 401.484C119.308 399.717 118.861 397.957 118.576 396.133H111.977ZM147.177 193.348C146.736 193.589 146.294 193.829 145.852 194.069C148.516 199.275 151.18 204.482 153.844 209.688C153.305 203.419 152.394 197.339 147.177 193.348ZM66.483 329.728C66.6676 329.677 66.8521 329.626 67.0367 329.575V316.574C65.0983 316.088 63.3127 315.639 61.4071 315.161C63.1292 320.103 64.8058 324.915 66.483 329.728ZM436.719 223.097C436.75 230.393 438.438 237.428 440.021 244.479C439.727 237.224 440.7 229.769 436.719 223.097ZM89.7518 196.733V212.426C95.4962 208.648 95.3278 201.535 89.7518 196.733ZM168.607 209.316C168.363 209.237 168.119 209.158 167.875 209.079C166.329 212.925 164.729 216.751 163.252 220.624C161.869 224.248 162.251 225.486 165.406 228.3C166.485 221.895 167.546 215.605 168.607 209.316ZM159.69 267.415C156.215 274.651 161.525 279.773 162.293 286.146C166.625 278.885 161.858 273.652 159.69 267.415ZM156.413 268.841C156.747 268.827 157.08 268.813 157.413 268.799C157.446 265.673 157.701 262.53 157.465 259.424C157.008 253.422 156.275 247.441 155.832 243.141C155.374 247.611 154.917 253.828 154.039 259.984C153.545 263.452 155.05 266.06 156.413 268.841ZM11.9402 265.791C12.1692 265.673 12.3976 265.556 12.6265 265.438V250.782C7.07594 252.052 5.93053 254.144 7.87358 258.041C9.17472 260.652 10.5808 263.21 11.9402 265.791ZM123.741 216.142C133.108 204.941 134.05 203.32 133.865 197.95C130.046 202.546 126.536 207.38 122.929 212.14C121.661 213.813 121.86 215.016 123.741 216.142ZM76.8448 231.09C79.702 228.4 81.9173 225.995 84.459 224.009C87.0619 221.975 87.435 219.358 87.4818 216.05C84.0686 217.984 80.8982 219.732 77.7936 221.59C77.3206 221.873 76.91 222.657 76.8869 223.226C76.7883 225.689 76.8448 228.158 76.8448 231.09ZM74.3164 223.516C71.8612 225.59 69.8581 227.163 68.0218 228.912C67.5402 229.371 67.2916 230.429 67.4249 231.117C67.9987 234.073 68.7542 236.994 69.4475 239.942C75.8874 236.143 74.4035 230.057 74.3164 223.516ZM153.365 268.231C151.047 282.045 148.829 295.265 146.611 308.485C147.122 307.791 147.437 307.036 147.633 306.252C150.115 296.393 152.454 286.495 155.118 276.685C155.974 273.536 154.898 271.195 153.365 268.231ZM65.3099 231.783C60.7975 238.118 59.6878 244.385 59.8562 251.909C62.6321 248.679 64.8826 246.124 67.039 243.492C67.4047 243.046 67.5875 242.223 67.475 241.649C66.8752 238.596 66.1554 235.567 65.3099 231.783ZM163.557 303.281C163.299 303.301 163.042 303.32 162.785 303.339C162.465 316.411 162.145 329.482 161.827 342.554C164.8 336.193 166.016 315.325 163.557 303.281ZM250.069 336.293C250.866 319.752 251.621 304.072 252.377 288.392C248.78 299.003 247.293 329.189 250.069 336.293ZM120.195 393.474C121.964 392.763 124.452 392.523 124.865 391.469C126.946 386.159 128.485 380.637 130.215 375.189C128.165 376.89 126.748 378.873 124.951 380.414C123.164 381.946 120.996 383.036 118.802 384.444C119.224 387.183 119.675 390.104 120.195 393.474ZM118.181 393.338C117.776 390.575 117.473 388.12 117.019 385.693C116.921 385.167 116.282 384.33 115.9 384.335C111.445 384.387 108.589 381.675 105.77 378.664C106.801 382.416 107.962 386.046 109.271 389.621C110.722 393.584 111.273 393.89 115.579 393.69C116.335 393.654 117.084 393.49 118.181 393.338ZM86.0595 226.58C85.838 226.342 85.6171 226.103 85.3962 225.864C82.7865 228.742 80.1663 231.612 77.5859 234.516C77.3714 234.758 77.323 235.25 77.3691 235.605C78.0572 240.88 78.7735 246.152 79.484 251.425C79.728 251.43 79.9719 251.435 80.2159 251.44C82.1636 243.154 84.1112 234.867 86.0595 226.58ZM199.013 318.792C199.337 318.651 199.662 318.51 199.986 318.37L195.363 294.287C195.075 294.331 194.786 294.374 194.498 294.418C193.528 299.206 192.509 303.983 191.63 308.787C191.455 309.741 191.445 311.123 191.995 311.741C194.199 314.213 196.652 316.461 199.013 318.792ZM158.836 259.016C159.311 257.666 159.56 257.153 159.672 256.611C161.084 249.775 162.238 242.873 163.967 236.118C164.927 232.368 163.356 229.987 161.123 227.283C158.142 237.606 157.097 247.788 158.836 259.016ZM38.1395 304.533C40.8254 300.506 43.4219 296.644 45.967 292.749C46.2358 292.337 46.4336 291.633 46.2693 291.221C44.9687 287.959 43.5724 284.734 42.0579 281.149C37.6977 289.652 37.0846 293.455 38.1395 304.533ZM276.16 250.682C277.015 242.68 277.597 234.636 278.81 226.688C279.847 219.892 281.634 213.211 283.009 206.463C283.148 205.778 282.734 204.981 282.576 204.236C281.888 204.605 280.947 204.807 280.57 205.38C279.955 206.316 279.661 207.478 279.312 208.571C274.911 222.375 275.869 236.615 276.16 250.682ZM70.323 352.896C70.7233 353.217 71.1235 353.539 71.5238 353.861C72.6709 352.368 73.7091 350.774 74.99 349.407C76.9827 347.282 77.2261 345.104 76.2225 342.382C74.8349 338.618 73.8348 334.711 72.664 330.867C72.0261 328.772 71.3779 326.681 70.7342 324.589C70.597 324.634 70.4597 324.678 70.323 324.723V352.896ZM62.6621 174.063C64.9639 178.489 74.4346 184.965 85.1875 189.465C82.7836 180.441 71.0491 172.417 62.6621 174.063ZM36.3129 320.871C35.7102 321.501 35.4114 321.665 35.3728 321.876C33.6645 331.202 31.9694 340.53 30.3222 349.867C30.2352 350.36 30.4312 351.067 30.76 351.441C32.4418 353.348 34.2112 355.18 36.3129 357.426V320.871ZM74.4623 238.021C73.0245 240.745 69.7832 242.008 70.4158 245.653C71.8571 253.959 73.2234 262.278 74.738 271.289C76.0628 266.476 77.2491 262.269 78.3507 258.041C78.5076 257.441 78.3063 256.721 78.1754 256.076C76.9919 250.26 75.7877 244.449 74.4623 238.021ZM86.9932 194.125C78.7308 201.313 77.6955 210.528 76.8719 220.536C80.4633 218.574 83.5806 216.928 86.6264 215.157C87.2026 214.822 87.7967 214.026 87.8664 213.387C88.547 207.17 88.6047 200.968 86.9932 194.125ZM15.7479 247.761C18.5855 248.84 21.2477 249.852 24.7047 251.166C25.6714 245.275 26.867 239.495 27.416 233.653C27.5654 232.06 25.7706 230.285 24.868 228.593C23.2981 229.653 21.2858 230.391 20.2384 231.832C16.7878 236.576 16.3512 242.281 15.7479 247.761ZM16.478 250.626C16.0305 250.821 15.5835 251.017 15.136 251.212C15.136 256.372 15.0408 261.536 15.234 266.689C15.2646 267.506 16.4452 268.617 17.3478 269.011C23.2462 271.586 29.1024 270.703 35.5862 268.474C32.248 264.021 29.1636 259.905 25.8853 255.532C24.1834 258.486 22.9578 260.76 21.5707 262.929C21.1629 263.567 20.2961 263.913 19.6403 264.392C19.2487 263.602 18.5999 262.838 18.5134 262.016C18.2031 259.062 18.1754 256.077 17.834 253.129C17.7325 252.253 16.9487 251.458 16.478 250.626ZM238.158 275.066C238.359 275.147 238.562 275.229 238.764 275.311C239.75 273.206 241.627 271.082 241.58 269.002C241.244 254.031 240.626 239.062 239.846 224.107C239.625 219.893 238.565 215.723 237.891 211.533C237.615 211.57 237.339 211.608 237.064 211.646C237.428 232.786 237.793 253.926 238.158 275.066ZM246.065 312.688C246.278 312.706 246.489 312.724 246.7 312.742C248.113 300.948 249.46 289.146 250.976 277.365C251.469 273.531 252.006 269.8 249.461 266.046C246.795 268.654 243.664 270.697 243.941 275.117C244.216 279.516 244.167 283.935 244.428 288.336C244.909 296.457 245.513 304.571 246.065 312.688ZM33.0024 391.094C33.6714 389.111 34.3589 387.821 34.5221 386.467C35.3699 379.446 36.1797 372.418 36.787 365.372C36.971 363.235 37.6054 360.817 34.9731 359.23C33.1045 358.104 31.5542 356.45 29.708 354.901C27.9028 367.246 27.9368 378.997 33.0024 391.094ZM192.258 159.992C186.291 161.145 181.442 163.538 176.889 166.59C176.412 166.909 176.092 167.643 175.944 168.244C174.022 176.075 172.461 183.956 172.967 192.093C179.306 181.545 185.646 170.996 192.258 159.992ZM148.071 82.8002C141.456 87.9709 120.579 114.577 118.168 120.83C121.883 120.345 125.554 119.755 129.25 119.436C130.767 119.305 131.204 118.764 131.705 117.354C134.074 110.688 136.334 103.947 139.311 97.5474C141.666 92.4847 145.005 87.8808 148.071 82.8002ZM166.362 235.389C164.619 243.62 163.497 251.327 161.269 258.699C159.327 265.127 162.085 269.924 164.607 275.211C167.599 266.151 170.514 257.352 173.385 248.539C173.541 248.059 173.503 247.354 173.256 246.929C171.099 243.231 168.874 239.573 166.362 235.389ZM367.901 177.34C367.463 177.375 367.024 177.411 366.585 177.445C364.23 199.113 361.874 220.781 359.518 242.449C359.798 242.491 360.078 242.533 360.358 242.576C360.473 242.238 360.6 241.905 360.699 241.563C363.885 230.588 367.075 219.614 370.238 208.631C370.447 207.904 370.554 207.109 370.519 206.354C370.218 199.826 369.994 193.289 369.489 186.775C369.244 183.608 368.448 180.483 367.901 177.34ZM41.7949 265.301C42.0965 265.481 42.3987 265.661 42.6998 265.84C43.3578 264.771 44.3885 263.775 44.6123 262.622C45.9607 255.666 47.4827 248.714 48.2504 241.684C49.0324 234.512 48.8208 227.271 45.5443 220.538C45.0489 219.521 44.2979 218.628 43.3671 217.229C38.2208 233.608 38.576 249.411 41.7949 265.301ZM469.045 318.874C469.019 319.205 468.918 319.671 468.957 320.124C470.319 335.743 472.267 351.268 476.97 366.297C477.764 368.832 479.017 371.259 480.34 373.573C480.817 374.405 482.126 374.76 483.054 375.332C483.562 374.456 484.407 373.62 484.522 372.695C485.156 367.65 485.67 362.586 486.061 357.516C486.121 356.736 485.521 355.681 484.901 355.104C479.693 350.257 476.273 344.276 474.164 337.603C472.207 331.41 470.718 325.069 469.045 318.874ZM130.495 156.955C128.559 145.427 128.379 133.923 130.588 121.734C126.09 122.433 122.034 122.947 118.04 123.767C117.065 123.967 115.934 124.999 115.491 125.94C113.157 130.885 114.84 135.361 117.704 139.442C121.815 145.299 126.135 151.008 130.495 156.955ZM197.657 155.647C197.889 155.964 198.119 156.28 198.35 156.596C201.68 156.596 205.018 156.744 208.339 156.568C217.818 156.065 222.896 151.633 224.782 142.337C225.125 140.65 225.315 138.922 225.45 137.204C225.766 133.172 222.951 130.856 219.142 132.308C217.052 133.104 214.809 134.294 213.405 135.958C207.988 142.378 202.88 149.062 197.657 155.647ZM68.5385 245.664C66.1964 248.282 64.6571 250.404 62.7221 252.065C60.1481 254.274 59.6169 256.859 60.1308 260.002C61.6793 269.478 63.0497 278.984 64.6911 288.443C65.4962 293.084 66.7477 297.647 67.7974 302.245C69.3656 296.134 70.5156 290.139 71.5797 284.129C72.0279 281.597 72.8243 278.974 72.5504 276.493C71.4459 266.49 69.9856 256.527 68.5385 245.664ZM118.365 213.328C114.024 208.988 109.851 204.328 105.147 200.289C102.151 197.716 98.4463 195.91 94.8964 194.074C93.5624 193.384 91.7698 193.582 90.4474 193.408C92.3414 197.459 94.3808 201.044 95.7182 204.873C97.4646 209.874 97.3377 210.155 92.6949 212.795C89.8677 214.403 88.7425 216.362 89.4767 219.826C99.0069 213.082 106.016 217.185 111.878 225.607C114.096 221.409 116.058 217.695 118.365 213.328ZM15.5916 271.601C15.7969 273.528 15.9151 275.225 16.166 276.902C17.5283 286.005 18.7983 295.134 23.0899 303.475C24.5017 306.219 25.0842 306.43 27.1911 304.192C32.1396 298.936 36.1335 293.304 35.3803 285.409C34.9575 280.975 35.3042 276.468 35.3042 271.757C28.5655 273.436 22.219 273.831 15.5916 271.601ZM149.328 190.572C151.064 193.604 152.994 195.914 153.76 198.561C154.894 202.485 155.498 206.629 155.779 210.716C156.055 214.745 158.613 217.363 160.391 221.158C160.892 219.786 161.174 219.181 161.335 218.545C164.581 205.718 167.926 192.913 170.955 180.035C171.589 177.345 171.048 174.38 171.048 171.542C170.79 171.417 170.532 171.292 170.274 171.167C163.196 177.725 156.118 184.282 149.328 190.572ZM47.3639 262.015C47.511 262.196 47.6581 262.377 47.8051 262.558C50.3653 260.435 52.8937 258.274 55.4966 256.205C57.1173 254.917 57.7799 253.437 57.7569 251.281C57.6871 244.655 58.7327 238.156 62.5398 232.597C64.2274 230.133 64.3393 228.136 63.3455 225.526C60.6273 218.384 57.3935 211.569 52.1515 205.885C49.9074 203.451 49.0128 203.483 47.4481 206.29C46.3771 208.211 45.5633 210.274 44.6134 212.264C43.9184 213.721 44.3862 214.767 45.2455 216.128C46.9665 218.853 48.6097 221.746 49.5965 224.794C51.7097 231.318 51.4017 238.086 50.427 244.774C49.5855 250.547 48.3986 256.27 47.3639 262.015ZM133.345 267.072C139.498 264.705 141.886 259.809 145.01 255.594C145.964 254.307 145.984 253.316 145.107 252.003C140.898 245.701 136.787 239.333 132.586 233.024C130.734 230.243 128.75 227.55 126.719 224.667C124.346 228.289 122.232 231.71 119.902 234.976C118.921 236.353 118.956 237.359 119.645 238.851C122.567 245.197 125.209 251.675 128.177 257.999C129.659 261.156 131.625 264.085 133.345 267.072ZM386.137 404.063C395.407 399.478 412.304 361.531 410.903 349.474C410.613 349.835 410.363 350.108 410.155 350.411C402.55 361.409 393.713 371.194 382.595 378.793C381.906 379.264 381.441 380.715 381.566 381.613C382.147 385.797 382.895 389.961 383.737 394.102C384.397 397.349 385.281 400.551 386.137 404.063ZM57.7269 257.641C54.4256 260.275 51.573 262.655 48.608 264.885C45.4278 267.278 43.453 273.053 44.2991 277.034C46.782 288.708 53.1187 298.611 58.8383 308.776C59.862 310.596 61.8298 311.993 63.6114 313.224C64.3629 313.743 65.7604 313.328 66.8643 313.338C66.8717 312.454 67.0777 311.516 66.8568 310.694C62.218 293.435 58.596 276.001 57.7269 257.641ZM79.916 346.893C80.3053 346.848 80.7523 346.848 81.1733 346.742C85.1817 345.73 85.1557 345.731 86.1097 349.888C87.589 356.337 88.908 362.832 90.6602 369.207C92.5513 376.087 95.0734 382.774 100.424 387.845C102.196 389.524 104.385 390.763 106.616 392.371C100.029 367.638 94.4286 343.425 92.7768 318.961C88.6174 327.997 84.297 337.379 79.916 346.893ZM102.195 295.454C99.4377 299.63 97.4917 303.209 98.0195 307.782C98.4255 311.299 98.1602 314.889 98.4434 318.426C99.6101 332.969 100.801 347.511 102.135 362.039C102.669 367.861 104.457 373.334 108.22 377.952C110.262 380.458 112.77 382.185 116.535 381.886C111.763 353.124 107.039 324.651 102.195 295.454ZM174.878 249.733C174.436 250.776 174.162 251.268 174.013 251.795C171.767 259.731 169.599 267.688 167.266 275.597C166.564 277.974 167.097 279.801 168.531 281.697C174.036 288.98 179.435 296.344 184.916 303.646C186.161 305.304 187.575 306.835 189.304 308.891C190.722 301.948 192.028 295.6 193.297 289.243C193.385 288.8 193.263 288.275 193.118 287.827C188.806 274.502 182.462 262.154 174.878 249.733ZM88.19 263.742C92.2399 263.794 101.094 256.514 102.617 251.988C105.091 244.632 107.666 237.31 110.113 229.945C110.369 229.176 110.39 227.928 109.939 227.394C108.09 225.207 106.236 222.921 103.978 221.207C99.7191 217.976 92.417 219.056 89.0153 223.119C88.6687 223.534 88.4686 224.126 88.3474 224.668C86.0658 234.868 83.8194 245.075 81.5361 255.274C80.7154 258.941 84.4181 263.694 88.19 263.742ZM144.028 196.264C139.271 201.307 134.019 205.736 132.381 212.805C132.042 214.271 131.382 215.781 130.48 216.975C127.698 220.657 128.687 223.505 131.281 227.035C136.995 234.811 142.117 243.022 147.753 251.461C149.926 246.637 153.351 242.767 153.608 237.353C153.872 231.796 154.54 226.26 154.923 220.707C155.034 219.1 155.272 217.214 154.599 215.889C151.262 209.323 147.64 202.902 144.028 196.264ZM485.19 352.64C485.521 352.492 485.852 352.343 486.184 352.195C486.238 351.477 486.318 350.759 486.344 350.039C487.107 329.064 485.994 308.198 482.495 287.492C481.601 282.203 480.389 276.965 479.163 271.741C478.959 270.872 477.94 269.593 477.275 269.58C476.334 269.561 474.922 270.313 474.505 271.137C473.395 273.333 472.17 275.693 471.95 278.077C471.155 286.661 470.195 295.29 470.338 303.885C470.554 316.813 472.73 329.53 478.261 341.371C480.116 345.34 482.855 348.896 485.19 352.64ZM180.965 403.081C184.23 402.248 185.245 399.964 186.16 397.839C196.086 374.791 201.6 350.869 200.163 325.611C200.123 324.896 199.99 323.962 199.527 323.532C196.609 320.824 193.587 318.23 190.299 315.332C185.945 344.509 181.289 373.309 180.965 403.081ZM434 229.107C426.842 246.229 423.892 264.239 421.562 282.377C419.225 300.564 417.022 318.767 414.761 336.964C415.95 336.002 416.622 334.876 417.199 333.704C426.327 315.191 433.227 295.913 437.329 275.644C439.343 265.697 440.649 255.91 437.347 245.87C435.58 240.497 435.075 234.708 434 229.107ZM120.31 406.661C118.445 409.364 117.373 408.434 116.385 407.152C115.04 405.404 113.484 403.762 112.45 401.843C110.229 397.726 107.725 394.193 102.774 392.98C101.211 392.598 99.7785 391.253 98.538 390.082C96.6053 388.257 94.8872 386.204 92.8276 383.976C93.0197 384.809 93.0629 385.361 93.2705 385.842C95.476 390.94 97.67 396.045 99.9406 401.115C103.967 410.109 108.75 418.839 111.93 428.121C116.241 440.707 112.966 449.538 102.622 457.868C102.417 458.034 102.294 458.303 101.688 459.132C105.22 463.108 108.504 467.516 112.503 471.132C117.434 475.588 122.3 473.986 123.867 467.5C124.8 463.64 125.089 459.514 124.956 455.531C124.727 448.633 124.045 441.743 123.37 434.867C122.481 425.811 121.416 416.772 120.31 406.661ZM4.58729 258.801C4.20779 260.767 3.7164 262.718 3.46667 264.7C2.05018 275.939 3.80695 286.91 6.39654 297.798C10.4909 315.013 16.6297 331.374 26.657 346.098C27.0371 346.656 27.5446 347.128 28.2806 347.969C28.5211 346.526 28.6497 345.583 28.8394 344.652C30.9215 334.415 33.2879 324.226 34.9921 313.926C35.9074 308.393 35.6906 302.672 35.9841 297.035C32.7025 300.713 30.076 304.34 27.4518 307.97C26.1143 309.819 24.6828 310.057 23.4526 307.967C21.5182 304.679 19.3289 301.462 17.9505 297.941C14.7657 289.804 14.242 281.114 13.4357 272.507C13.3521 271.612 13.19 270.363 12.5937 269.936C8.73409 267.169 6.57821 263.307 4.58729 258.801ZM99.6886 260.112C96.7385 261.864 93.5728 264.266 90.0183 265.718C85.8386 267.426 82.49 265.278 79.9893 261.075C77.5606 270.59 75.2005 279.175 75.4047 288.395C75.5402 294.537 74.9312 301.037 72.9483 306.788C71.0255 312.365 70.9563 317.286 72.822 322.568C73.0129 323.109 73.1277 323.677 73.2846 324.23C75.0402 330.42 76.797 336.61 78.7164 343.375C79.574 341.972 80.1421 341.21 80.5383 340.366C84.0836 332.819 87.7344 325.316 91.0414 317.665C92.0675 315.291 92.3668 312.522 92.6009 309.898C93.5456 299.307 93.9719 288.655 95.3191 278.118C96.122 271.835 98.2819 265.727 99.6886 260.112ZM205.907 417.858C207.308 415.543 208.394 413.864 209.365 412.122C218.685 395.418 223.955 377.298 227.797 358.709C231.636 340.136 233.376 321.29 234.714 302.404C235.018 298.102 235.166 293.789 235.386 289.482C221.027 314.238 202.562 395.098 205.907 417.858ZM214.697 231.151C214.452 231.154 214.207 231.156 213.961 231.158C213.217 232.698 212.438 234.221 211.735 235.78C204.318 252.239 200.015 269.648 196.16 287.188C195.944 288.168 196.092 289.283 196.291 290.292C198.176 299.88 200.089 309.462 202.06 319.033C202.256 319.987 202.653 321.16 203.361 321.704C206.509 324.122 210.479 323.517 212.691 320.211C213.791 318.567 214.792 316.657 215.137 314.741C216.459 307.39 218.292 300.006 218.462 292.6C218.732 280.813 218.051 268.985 217.34 257.2C216.815 248.496 215.603 239.833 214.697 231.151ZM52.2611 364.162C56.5722 364.128 60.5766 362.939 63.8779 360.35C65.7679 358.869 68.2629 356.379 68.1642 354.463C67.8303 347.947 68.0708 341.309 65.2528 335.022C59.8424 322.948 54.8951 310.668 49.6328 298.527C48.3663 295.604 46.6118 295.545 44.8787 298.252C43.487 300.426 42.1478 302.704 41.2527 305.109C40.0029 308.467 38.3067 311.997 38.3453 315.436C38.4901 328.205 39.3114 340.966 39.7889 353.734C40.0589 360.964 40.567 361.726 47.7244 363.487C49.2026 363.851 50.7471 363.943 52.2611 364.162ZM194.515 283.877C194.924 282.408 195.248 281.357 195.511 280.291C199.625 263.607 204.646 247.202 211.506 231.44C213.163 227.632 213.812 224.156 212.843 220.163C211.713 215.507 211.071 210.732 209.882 206.095C209.05 202.848 207.363 202.348 204.513 204.056C203.451 204.693 202.438 205.455 201.522 206.29C189.593 217.165 182.195 230.959 176.365 245.726C176.066 246.483 176.507 247.726 176.952 248.555C180.307 254.81 183.922 260.932 187.11 267.269C189.753 272.522 191.923 278.013 194.515 283.877ZM128.412 391.341C131.721 389.558 134.613 388.247 137.248 386.538C148.496 379.241 155.007 368.445 159.216 356.058C159.88 354.104 160.309 351.94 160.248 349.891C159.731 332.493 159.516 315.097 161.54 297.779C162.377 290.619 159.183 284.564 157.273 278.074C156.75 278.968 156.504 279.848 156.29 280.735C149.043 310.665 141.859 340.612 134.509 370.517C132.847 377.279 130.608 383.899 128.412 391.341ZM100.313 455.935C107.174 451.032 111.158 444.94 110.817 436.627C110.463 427.989 107.074 420.192 103.269 412.649C96.2633 398.757 89.8389 384.641 84.9989 369.833C82.9543 363.576 80.8336 357.344 78.5918 350.634C77.0115 351.762 75.7225 352.691 74.4225 353.606C71.4846 355.673 70.5618 358.317 70.9799 362C73.1306 380.939 76.7952 399.525 82.9889 417.582C87.5117 430.767 92.9464 443.532 100.313 455.935ZM178.958 403.151C179.064 402.363 179.173 401.908 179.182 401.45C179.739 372.385 183.257 343.633 188.213 315.026C188.409 313.9 188.018 312.385 187.35 311.443C183.682 306.276 179.783 301.274 176.081 296.131C172.789 291.558 169.65 286.874 166.266 281.983C164.65 288.227 164.445 294.07 165.692 300.261C169.13 317.321 169.017 334.383 164.447 351.335C163.601 354.471 163.653 357.9 163.639 361.195C163.628 363.965 164.121 366.738 164.397 369.509C165.384 379.462 167.991 388.921 172.987 397.649C174.329 399.994 175.745 402.267 178.958 403.151ZM132.992 122.092C132.685 123.587 132.361 124.784 132.206 126.003C131.927 128.193 131.667 130.39 131.543 132.593C130.459 151.949 135.522 170.031 143.007 187.6C144.49 191.079 145.66 191.257 148.396 188.65C153.818 183.484 158.891 177.836 164.857 173.392C170.04 169.531 171.134 165.518 169.689 159.531C167.367 149.918 164.646 140.576 158.073 132.913C151.523 125.278 142.923 122.288 132.992 122.092ZM242.086 276.728C238.414 280.577 237.698 282.714 237.606 287.454C237.556 290.046 237.354 292.635 237.243 295.226C236.178 319.941 233.631 344.471 227.819 368.568C223.364 387.044 217.537 404.985 206.551 420.813C206.231 421.274 205.814 421.843 205.839 422.341C206.159 428.834 206.884 435.279 211.416 440.406C215.231 444.723 220.236 444.686 223.784 440.201C225.84 437.601 227.603 434.619 228.833 431.542C234.99 416.149 237.33 399.862 239.349 383.558C241.096 369.449 242.443 355.287 243.814 341.134C244.432 334.755 245.265 328.312 244.964 321.947C244.407 310.159 243.029 298.412 242.125 286.638C241.873 283.353 242.086 280.032 242.086 276.728ZM133.501 119.025C134.245 119.224 134.51 119.324 134.782 119.363C135.828 119.51 136.877 119.631 137.923 119.773C147.889 121.132 156.143 125.514 162.197 133.683C168.698 142.454 171.153 152.654 172.48 163.239C172.596 164.165 172.797 165.08 172.958 166C173.241 165.996 173.524 165.993 173.806 165.991C174.126 164.746 174.543 163.519 174.75 162.256C176.044 154.4 177.485 146.56 178.511 138.668C180.382 124.273 181.831 109.796 179.819 95.3277C179.065 89.9147 177.484 84.3868 175.099 79.4874C171.878 72.8721 164.886 71.7127 159.099 76.1809C145.025 87.0474 138.199 102.268 133.501 119.025ZM177.098 162.658C182.351 160.771 187.478 159.016 192.527 157.06C193.913 156.522 195.382 155.627 196.27 154.475C201.132 148.17 205.554 141.505 210.671 135.421C214.186 131.241 218.515 127.627 224.984 129.723C224.984 129.176 225.014 128.807 224.977 128.444C224.91 127.776 224.833 127.107 224.71 126.447C222.8 116.203 218.681 106.848 213.089 98.1327C206.905 88.4937 199.549 79.9618 189.431 74.2002C182.551 70.2813 175.362 69.1992 169.802 71.1805C176.569 75.2569 179.632 78.9414 181.504 86.3445C182.51 90.3204 183.157 94.4522 183.392 98.547C184.237 113.204 182.033 127.676 180.253 142.156C179.401 149.089 178.139 155.972 177.098 162.658ZM6.28811 250.544C7.78707 249.905 8.8875 249.167 10.0727 248.989C12.3941 248.64 12.9749 247.403 13.3457 245.185C13.99 241.335 14.7899 237.37 16.4192 233.87C17.7792 230.949 20.0954 228.24 22.5829 226.144C25.2452 223.899 28.2494 225.099 29.3977 228.433C29.9802 230.125 30.4791 232.063 30.238 233.78C29.4277 239.545 28.2604 245.259 27.2493 250.997C27.093 251.885 26.6086 253.13 27.0054 253.633C29.6307 256.964 32.455 260.136 35.4564 263.643C35.5516 262.511 35.6473 261.682 35.6877 260.852C36.1041 252.22 36.212 243.56 36.9958 234.961C38.0229 223.7 40.5606 212.786 46.6684 203.013C48.4868 200.103 48.7302 200.05 51.4386 202.21C58.4853 207.83 62.2036 215.569 65.1219 223.81C65.5175 224.928 65.8953 226.052 66.3371 227.335C68.2848 225.854 69.7503 224.373 71.5146 223.488C73.9882 222.246 74.6924 220.373 74.9566 217.799C75.9082 208.517 78.0485 199.643 85.1984 192.312C81.0758 190.033 77.1799 187.829 73.2384 185.711C68.4417 183.134 64.1991 179.949 60.9059 175.516C60.3713 174.797 58.6595 174.212 57.8895 174.529C53.3055 176.422 48.4072 177.984 44.4064 180.787C27.4743 192.653 15.5927 208.538 8.8477 228.109C6.39711 235.219 5.23267 242.607 6.28811 250.544ZM552.624 366.849C555.098 366.545 557.605 366.405 560.04 365.91C571.888 363.504 576.366 356.699 573.994 344.875C573.919 344.498 573.872 344.112 573.756 343.747C569.171 329.386 564.606 315.018 559.952 300.679C559.426 299.059 558.499 297.534 557.567 296.089C553.787 290.225 548.76 289.578 544.054 294.716C541.356 297.659 539.009 301.044 537.079 304.548C532.399 313.042 528.205 321.804 523.495 330.282C521.829 333.281 521.547 336.054 522.097 339.306C525.23 357.789 535.033 366.649 552.624 366.849ZM371.118 213.713L370.201 213.704C363.277 234.618 358.079 255.858 356.401 277.968C355.086 295.297 352.708 312.542 351.002 329.845C350.243 337.548 347.848 345.096 348.954 352.988C350.072 360.964 351.846 368.697 356.581 375.395C360.823 381.395 366.393 383.247 373.207 381.152C379.034 379.362 379.174 379.083 378.281 372.987C373.674 341.568 371.462 309.954 371.016 278.225C370.758 259.966 371.066 241.699 371.117 223.436C371.126 220.195 371.118 216.954 371.118 213.713ZM180.54 405.963C182.138 414.621 183.592 423.213 185.362 431.74C186.087 435.226 188.557 436.345 191.371 434.157C197.413 429.459 203.107 424.939 203.128 415.57C203.154 404.121 204.857 392.624 206.494 381.242C211.451 346.743 221.612 313.701 235.107 281.636C235.506 280.687 235.814 279.631 235.855 278.612C236.065 273.43 236.325 268.242 236.289 263.058C236.168 245.669 235.938 228.28 235.728 210.891C235.687 207.507 233.76 206.357 230.723 208.042C229.325 208.817 227.933 209.878 226.991 211.145C223.73 215.534 220.623 220.042 217.575 224.584C217.117 225.268 217.115 226.394 217.203 227.285C217.624 231.488 218.374 235.669 218.598 239.88C219.327 253.594 220.04 267.311 220.449 281.037C220.82 293.458 220.062 305.834 216.84 317.91C214.627 326.206 211.44 327.941 203.202 325.832C203.124 325.812 203.022 325.888 202.769 325.975C202.723 326.545 202.597 327.189 202.632 327.825C203.355 340.774 201.891 353.514 199.014 366.123C196.622 376.611 194.146 387.075 189.262 396.764C187.424 400.409 185.25 403.797 180.54 405.963ZM228.568 140.494C228.348 141.592 228.13 142.689 227.909 143.787C226.037 153.076 218.779 159.304 209.278 159.584C206.025 159.679 202.754 159.495 199.506 159.247C197.09 159.063 195.39 159.586 194.07 161.903C187.467 173.493 180.645 184.958 174.064 196.561C172.821 198.753 171.987 201.308 171.54 203.799C170.012 212.296 168.727 220.836 167.39 229.366C167.231 230.385 166.925 231.662 167.359 232.445C169.601 236.49 172.061 240.412 174.567 244.579C177.405 238.424 179.865 232.603 182.727 226.987C187.653 217.321 193.474 208.235 202.87 202.269C210.35 197.519 209.215 198.577 211.677 205.231C213.558 210.313 214.828 215.622 216.472 221.176C221.367 213.569 226.638 206.598 235.596 202.655C233.631 182.159 235.02 160.933 228.568 140.494ZM114.61 124.28C109.331 126.042 104.872 127.408 100.501 129.013C89.0188 133.229 77.7924 137.979 68.4365 146.16C63.552 150.432 59.5165 155.409 59.2547 162.203C59.137 165.253 59.7599 168.584 61.0541 171.307C61.5536 172.359 64.8393 172.134 66.8671 172.402C76.7018 173.697 83.5126 178.846 87.0665 188.18C87.4016 189.059 87.7044 189.951 87.9645 190.677C103.223 190.504 110.428 202.507 119.298 210.8C124.297 205.436 129.215 200.205 134.054 194.9C134.632 194.267 134.995 193.26 135.085 192.386C135.774 185.694 134.692 179.182 132.879 172.764C129.622 161.233 123.519 151.139 116.963 141.277C113.636 136.272 110.847 131.173 114.61 124.28ZM98.3246 295.721C98.5714 295.773 98.8188 295.825 99.0657 295.876C99.538 294.477 99.9245 293.04 100.514 291.692C100.865 290.892 101.534 290.232 102.06 289.51C102.515 290.244 102.977 290.973 103.417 291.715C103.512 291.875 103.545 292.078 103.577 292.267C107.312 314.129 111.079 335.987 114.758 357.86C116.075 365.687 117.178 373.551 118.378 381.399C118.646 381.591 118.914 381.783 119.182 381.975C121.231 379.944 123.854 378.234 125.208 375.812C128.049 370.735 130.912 365.489 132.556 359.952C141.569 329.58 146.718 298.43 150.668 267.044C151.196 262.846 149.654 259.899 147.507 256.634C146.917 257.386 146.5 258.025 145.979 258.565C142.52 262.151 139.189 265.88 135.517 269.234C132.654 271.851 132.242 271.585 130.794 268.084C129.694 265.423 128.663 262.731 127.477 260.11C124.286 253.058 121.029 246.037 117.62 238.615C113.699 243.345 110.075 247.433 106.806 251.79C105.252 253.861 103.816 256.325 103.298 258.814C101.718 266.42 100.455 274.102 99.3742 281.798C98.7283 286.397 98.655 291.077 98.3246 295.721ZM68.9774 359.905L68.185 359.463C65.754 362.621 63.0698 365.618 60.9342 368.965C51.3619 383.964 40.9528 398.337 29.9923 412.354C26.1403 417.28 23.2346 423.065 20.577 428.775C17.8645 434.6 16.8345 440.923 18.8323 447.306C22.1475 457.896 30.0373 463.32 40.372 465.424C53.9607 468.19 67.5096 467.042 80.9293 463.99C86.9137 462.628 92.7019 460.687 98.1083 457.294C89.7783 442.211 83.3176 426.557 78.7279 410.136C74.1226 393.658 71.0664 376.877 68.9774 359.905ZM305.833 331.917C305.291 330.625 304.824 329.883 304.667 329.081C302.69 318.915 300.088 308.815 298.963 298.553C297.068 281.274 296.437 263.858 294.652 246.564C293.571 236.088 291.422 225.713 289.514 215.337C289.077 212.953 287.66 210.749 286.693 208.462C286.356 208.505 286.019 208.549 285.681 208.592C284.285 214.941 282.378 221.228 281.595 227.652C279.783 242.517 278.267 257.428 277.099 272.358C276.06 285.646 275.879 298.873 277.717 312.26C279.721 326.871 279.836 341.742 280.721 356.504C280.785 357.58 280.419 358.683 280.253 359.774C279.867 359.775 279.482 359.776 279.097 359.778C276.792 353.27 276.749 346.276 275.331 338.907C275.13 339.9 274.997 340.246 275 340.592C275.152 360.967 275.187 381.374 278.285 401.557C279.261 407.912 281.318 414.291 284.001 420.144C287.216 427.157 293.421 428.313 299.407 423.387C302.599 420.761 305.62 417.463 307.554 413.846C318.749 392.904 324.675 370.719 321.849 346.755C321.147 340.796 319.443 335.082 316.297 329.905C314.341 326.685 312.712 326.43 309.762 328.715C308.568 329.638 307.42 330.62 305.833 331.917ZM380.775 377.273C381.629 376.806 381.981 376.658 382.282 376.441C383.14 375.825 384.003 375.21 384.82 374.542C395.97 365.427 404.528 354.111 412.248 342.094C412.788 341.254 413.037 340.136 413.142 339.118C415.243 318.661 417.161 298.185 419.415 277.745C421.382 259.913 424.933 242.435 432.521 225.998C432.977 225.01 433.288 223.72 433.073 222.696C430.508 210.487 428.237 198.192 424.999 186.16C423.512 180.633 420.603 175.274 417.38 170.486C413.142 164.188 406.576 162.629 400.141 165.255C395.807 167.024 392.309 170.048 389.975 173.915C385.171 181.875 380.829 190.114 376.353 198.269C373.75 203.01 372.585 208.023 373.367 213.498C373.757 216.237 373.65 219.06 373.626 221.844C373.509 235.202 373.369 248.558 373.191 261.915C372.835 288.567 374.289 315.139 376.795 341.657C377.905 353.402 379.403 365.11 380.775 377.273ZM521.415 330.139C526.082 321.259 530.201 313.016 534.715 304.994C537.152 300.664 540.17 296.644 543.127 292.633C544.18 291.203 545.712 290.037 547.22 289.05C550.846 286.68 554.718 287.031 557.175 290.593C559.54 294.023 561.564 297.859 562.902 301.801C567.783 316.181 572.36 330.666 576.961 345.139C579.899 354.38 575.957 363.066 566.576 366.605C555.358 370.839 544.109 370.169 533.388 364.601C527.193 361.384 523.957 355.709 521.988 349.281C520.934 345.836 520.246 342.28 519.296 338.379C517.391 341.228 515.792 343.928 513.887 346.388C511.658 349.265 509.348 352.126 506.741 354.65C501.538 359.689 495.544 361.578 488.664 357.912C487.372 365.127 486.133 372.049 484.895 378.972C484.542 379.058 484.19 379.146 483.837 379.233C482.938 378.362 481.928 377.579 481.155 376.607C474.688 368.488 471.092 359.017 469.723 348.931C468.044 336.568 467.11 324.093 466.176 311.643C464.824 293.622 464.087 275.532 459.173 257.99C458.37 255.122 457.18 252.362 456.168 249.551C455.717 249.561 455.265 249.57 454.814 249.58C452.052 256.746 449.291 263.912 446.529 271.078C446.184 271.123 445.838 271.168 445.493 271.212C444.366 268.913 443.238 266.613 441.836 263.754C441.44 265.75 441.141 267.264 440.839 268.777C435.511 295.403 427.613 321.103 413.908 344.775C412.62 347 412.417 349.887 411.87 352.501C409.191 365.318 406.097 377.997 400.066 389.749C396.704 396.299 392.57 402.282 387.154 407.315C385.088 409.235 384.45 409.066 383.917 406.262C382.321 397.873 380.823 389.465 379.25 380.862C377.568 381.483 375.986 382.133 374.362 382.654C366.214 385.27 358.801 382.802 353.814 375.814C350.252 370.822 348.865 365.045 347.882 359.129C347.788 358.566 347.697 358.002 347.589 357.441C347.578 357.382 347.467 357.341 347.064 357.032C344.153 373.219 341.254 389.23 336.79 404.871L335.664 404.899C335.329 403.821 334.818 402.763 334.683 401.66C331.963 379.336 331.944 356.948 333.837 334.589C336.302 305.476 339.518 276.425 341.768 247.298C342.927 232.282 342.698 217.159 343.096 202.084C342.632 201.97 342.168 201.858 341.705 201.745C340.897 203.638 339.757 205.46 339.337 207.435C337.261 217.204 335.152 226.976 333.475 236.817C330.652 253.376 329.136 270.177 324.158 286.324C323.168 289.532 321.981 292.684 320.757 295.813C320.448 296.602 319.649 297.2 319.076 297.886C318.52 297.17 317.764 296.534 317.441 295.725C313.854 286.757 312.525 277.349 312.666 267.776C312.865 254.226 313.53 240.684 313.721 227.134C313.829 219.444 313.55 211.657 310.8 204.379C309.266 200.318 307.078 196.339 304.429 192.906C300.808 188.217 296.435 188.378 293.029 193.231C290.69 196.563 289.153 200.477 287.431 204.21C287.101 204.925 287.345 206.122 287.717 206.913C293.573 219.377 295.852 232.701 297.032 246.246C298.701 265.391 300.033 284.566 301.757 303.706C302.29 309.618 303.618 315.46 304.625 321.327C304.769 322.167 305.064 323.01 305.44 323.779C306.883 326.737 308.935 327.036 311.246 324.673C313.617 322.25 313.78 322.236 315.706 324.954C323.582 336.067 325.896 348.686 325.163 361.936C324.037 382.305 318.006 401.172 306.647 418.18C304.757 421.01 302.281 423.6 299.62 425.732C293.432 430.689 286.524 429.575 282.937 422.504C280.375 417.454 278.775 411.775 277.575 406.199C273.467 387.116 272.871 367.689 272.855 348.261C272.841 331.054 273.513 313.841 273.221 296.642C273.112 290.2 271.461 283.712 269.938 277.383C267.717 268.152 265.015 259.035 262.423 249.896C261.946 248.215 261.018 246.662 260.298 245.049C259.994 245.086 259.689 245.123 259.385 245.159C258.112 250.937 256.924 256.736 255.545 262.488C253.37 271.557 253.811 280.748 253.682 289.968C253.453 306.391 252.573 322.806 251.936 339.224C251.888 340.445 251.601 341.657 251.338 343.478C247.847 340.829 248.767 336.885 246.872 333.683C246.274 339.195 245.829 344.319 245.147 349.412C242.124 371.97 239.401 394.578 235.75 417.035C234.605 424.077 231.004 430.746 228.291 437.491C227.566 439.296 226.14 440.919 224.743 442.335C220.409 446.727 214.737 446.603 210.533 442.082C207.018 438.301 205.474 433.544 204.231 428.67C203.97 427.652 203.775 426.617 203.473 425.236C201.339 427.49 199.489 429.641 197.431 431.568C194.91 433.928 192.177 436.058 189.607 438.369C187.936 439.871 186.91 439.546 185.838 437.639C182.535 431.76 180.802 425.403 179.999 418.78C179.56 415.162 179.501 411.498 179.153 407.866C179.075 407.043 178.702 406.065 178.128 405.504C175.772 403.2 172.805 401.373 170.939 398.747C165.647 391.305 163.518 382.596 162.111 373.715C161.531 370.055 161.159 366.362 160.611 362.048C159.171 364.685 158.037 366.839 156.833 368.953C150.264 380.488 140.831 388.708 128.478 393.612C127.463 394.014 126.614 395.079 125.924 396.011C121.938 401.388 122.404 407.177 123.602 413.455C126.269 427.428 128.188 441.552 127.759 455.833C127.62 460.488 127.012 465.262 125.722 469.722C123.512 477.365 117.561 479.204 111.33 474.212C108.16 471.672 105.661 468.264 103 465.129C101.709 463.608 100.745 461.812 99.9394 460.602C93.1114 462.744 86.672 465.303 79.9927 466.748C66.6699 469.63 53.1066 470.848 39.7336 467.364C20.6254 462.386 12.1657 446.017 18.8266 427.413C20.3001 423.299 22.2934 419.216 24.8068 415.656C33.954 402.705 43.4553 390.004 52.7524 377.158C55.6615 373.139 58.3492 368.961 61.5813 364.202C53.8477 367.394 47.0213 366.452 40.0514 362.732C39.5398 374.031 38.8731 384.927 33.1587 394.562C32.7278 394.592 32.2964 394.623 31.865 394.653C30.8615 391.328 29.6671 388.048 28.8908 384.671C26.8029 375.59 26.6824 366.365 27.5077 357.137C27.7759 354.131 27.3393 351.766 25.3599 349.238C18.5959 340.603 14.1878 330.661 10.7239 320.328C5.4328 304.545 0.961289 288.547 0.0829054 271.8C-0.241225 265.612 0.280729 259.49 3.53242 253.935C3.84905 253.395 4.01919 252.668 3.9892 252.041C2.89166 229.049 12.2966 210.041 26.4759 192.89C29.0384 189.79 31.8933 186.896 34.8583 184.174C41.6316 177.957 49.2954 173.362 58.7962 172.182C53.6874 158.649 60.7952 149.765 70.2636 142.046C79.9402 134.158 91.5299 129.89 103.092 125.671C104.894 125.014 106.683 124.145 108.55 123.875C114.201 123.054 117.274 119.598 120 114.789C127.096 102.274 136.051 91.118 146.382 81.0676C152.549 75.0688 159.979 71.3935 168.069 69.048C177.093 66.4312 185.347 68.9706 193.005 73.8319C201.86 79.4522 208.67 87.0549 214.023 96.0261C220.761 107.32 226.207 119.114 228.168 132.276C228.265 132.927 228.455 133.601 228.76 134.181C234.134 144.368 235.969 155.457 236.436 166.733C236.941 178.923 236.75 191.142 236.929 203.347C236.948 204.644 237.111 206.093 237.708 207.201C241.817 214.819 243.66 223.073 243.937 231.57C244.287 242.315 244.004 253.08 243.994 263.837C243.993 264.852 243.994 265.867 243.994 267.037C251.377 262.521 251.377 262.521 252.922 262.977C254.555 255.786 255.635 248.421 259.344 240.86C267.437 253.182 270.424 266.368 273.456 279.721C273.456 276.969 273.444 274.216 273.458 271.465C273.473 268.677 273.582 265.889 273.528 263.105C273.317 252.249 272.781 241.391 272.894 230.539C273.003 220.154 274.76 210.053 280.865 201.213C282.079 199.456 283.211 198.374 284.715 201.394C285.292 200.256 285.653 199.384 286.148 198.596C287.676 196.16 289.018 193.554 290.86 191.377C296.285 184.962 301.719 185.148 306.722 191.945C312.292 199.516 315.164 208.245 315.393 217.508C315.729 231.038 315.39 244.587 315.176 258.126C314.993 269.677 315.39 281.153 318.397 293.536C320.001 291.34 321.714 289.911 322.211 288.142C323.709 282.801 324.964 277.368 325.903 271.899C329.086 253.348 331.831 234.717 335.313 216.224C336.489 209.977 339.327 204.038 341.493 197.989C341.836 197.029 342.636 196.232 343.224 195.36C343.558 195.423 343.891 195.485 344.224 195.547C344.412 197.856 344.692 200.162 344.774 202.474C345.481 222.393 344.654 242.264 342.823 262.101C340.342 288.992 337.591 315.862 335.449 342.781C334.053 360.324 334.088 377.929 336.233 395.46C336.286 395.898 336.392 396.329 336.594 397.402C337.047 396.34 337.35 395.878 337.442 395.377C340.597 378.28 344.045 361.228 346.722 344.056C347.883 336.608 347.359 328.906 347.759 321.328C348.777 302.091 351.901 283.142 355.37 264.219C356.699 256.97 356.845 249.509 357.647 242.156C360.171 219.037 362.75 195.924 365.313 172.808C365.355 172.427 365.371 172.005 365.549 171.686C365.884 171.086 366.328 170.547 366.726 169.982C367.173 170.516 367.891 170.991 368.023 171.595C369.051 176.285 370.097 180.978 370.879 185.713C371.66 190.446 372.141 195.227 372.858 200.789C373.556 199.164 374.004 198.177 374.409 197.174C378.193 187.786 382.384 178.619 388.918 170.75C390.08 169.349 391.336 167.998 392.702 166.799C401.145 159.378 410.428 159.712 418.317 167.751C423.809 173.351 426.767 180.38 428.567 187.806C431.096 198.238 433.134 208.789 435.424 219.48C437.487 217.578 437.994 219.304 438.601 220.966C442.501 231.639 443.569 242.695 442.584 253.914C442.145 258.912 443.571 263.117 446.304 267.723C446.856 266.406 447.345 265.521 447.606 264.572C449.24 258.648 450.796 252.704 452.456 246.788C452.687 245.966 453.356 245.267 453.822 244.512C454.502 245.123 455.353 245.623 455.836 246.363C460.717 253.849 462.994 262.278 464.346 270.972C465.418 277.87 466.176 284.817 467.184 292.587C467.654 288.9 467.901 285.982 468.417 283.113C469.438 277.437 471.401 272.163 475.623 268.003C478.094 265.567 478.711 265.694 479.913 268.86C484.495 280.934 486.696 293.542 487.345 306.342C488.127 321.781 488.282 337.255 488.583 352.715C488.617 354.493 489.202 355.306 490.734 355.902C493.602 357.018 496.485 356.984 499.108 355.569C501.617 354.215 503.993 352.525 506.176 350.682C507.997 349.147 509.468 347.193 511.065 345.4C516.664 339.113 519.186 332.348 518.881 323.352C518.005 297.518 523.514 272.524 532.077 248.225C534.419 241.581 537.765 235.375 542.46 230.032C543.842 228.459 545.419 226.986 547.133 225.792C550.72 223.289 554.782 222.951 558.135 225.717C561.411 228.419 564.493 231.637 566.792 235.191C573.596 245.711 577.174 257.647 580.907 269.489C583.247 276.916 585.619 284.338 588.254 291.663C588.913 293.492 590.347 295.379 591.949 296.454C594.497 298.164 596.918 297.525 598.794 295.059C600.001 293.472 600.774 291.561 601.815 289.839C605.982 282.947 610.139 276.048 614.399 269.214C615.09 268.105 616.22 267.236 617.249 266.379C622.9 261.673 629.231 262.029 633.593 268.01C641.939 279.453 643.975 292.169 639.87 305.791C637.481 313.721 633.296 320.688 628.571 327.421C625.765 331.42 623.342 335.699 620.898 339.94C619.352 342.624 619.048 345.569 619.931 348.592C620.86 351.77 622.827 353.158 626.001 352.223C628.257 351.559 630.462 350.42 632.42 349.094C639.672 344.183 645.34 337.728 650.489 330.667C654.493 325.176 659 320.029 663.559 314.978C665.107 313.262 667.367 312.015 669.527 311.064C673.424 309.345 676.946 310.576 679.275 314.153C680.003 315.27 680.58 316.514 681.041 317.768C681.637 319.389 682.093 321.066 682.531 322.739C685.63 334.585 688.157 336.593 700.284 337.055C702.787 337.151 704.7 336.394 706.373 334.5C709.171 331.332 712.046 328.219 715.053 325.252C722.626 317.781 729.492 316.399 739.175 320.86C753.518 327.467 768.234 333.003 783.413 337.332C799.522 341.926 815.72 342.636 832.129 338.908C857.919 333.048 884.187 331.14 910.513 330.349C951.607 329.114 992.71 327.952 1033.82 327.494C1073.79 327.049 1113.77 327.41 1153.75 327.649C1179.4 327.801 1205.05 328.359 1230.69 328.761C1262.29 329.255 1293.89 329.767 1325.49 330.329C1326.67 330.35 1327.83 330.98 1329 331.326C1327.79 331.745 1326.57 332.541 1325.36 332.529C1293.85 332.213 1262.34 331.806 1230.83 331.431C1213.54 331.224 1196.24 330.959 1178.95 330.869C1132.43 330.628 1085.92 330.477 1039.4 330.27C1017.88 330.176 996.351 329.831 974.827 329.966C940.14 330.183 905.46 331.041 870.973 335.12C858.211 336.629 845.465 338.667 832.899 341.344C812.916 345.599 793.537 343.897 774.501 337.039C763.753 333.166 753.144 328.904 742.447 324.886C740.025 323.977 737.527 323.232 735.014 322.615C728.951 321.127 723.338 322.25 718.422 326.112C715.86 328.124 713.526 330.429 711.117 332.632C708.708 334.836 706.486 337.274 703.916 339.266C698.225 343.68 692.891 343.255 688.195 337.74C685.996 335.157 684.474 331.953 682.882 328.907C681.149 325.589 679.875 322.026 678.074 318.75C674.615 312.464 669.469 311.667 664.553 316.839C661.058 320.516 658.051 324.659 654.856 328.619C649.734 334.964 644.748 341.424 639.46 347.627C637.888 349.472 635.618 350.834 633.457 352.04C627.891 355.147 622.609 354.372 617.611 350.51C615.951 349.229 615.545 348.012 616.623 346.137C619.829 340.556 623.047 334.977 626.056 329.289C629.827 322.166 633.864 315.13 636.941 307.705C641.62 296.414 639.984 285.259 634.379 274.605C633.626 273.174 632.627 271.835 631.557 270.616C627.901 266.449 623.227 265.613 619.081 269.233C615.598 272.275 612.584 276.033 610.026 279.911C607.022 284.468 604.794 289.53 602.106 294.304C601.127 296.046 599.963 297.748 598.591 299.191C596.064 301.846 593.262 301.915 590.868 299.132C589.016 296.979 587.254 294.515 586.278 291.882C583.041 283.145 580.394 274.187 577.111 265.469C573.628 256.218 569.848 247.067 565.835 238.035C564.462 234.944 562.307 232.041 559.956 229.58C555.523 224.94 549.928 224.814 545.903 229.751C542.306 234.164 539.233 239.181 536.816 244.347C524.336 271.018 519.642 299.228 520.987 328.538C520.998 328.79 521.115 329.035 521.415 330.139Z" fill="#9C9C9C"/>
<path d="M6.55469 535.781C7.28385 535.781 7.85938 535.635 8.28125 535.344C8.70833 535.052 8.92188 534.526 8.92188 533.766C8.92188 532.948 8.625 532.391 8.03125 532.094C7.71354 531.938 7.28906 531.859 6.75781 531.859H2.96094V535.781H6.55469ZM1.40625 530.523H6.71875C7.59375 530.523 8.3151 530.651 8.88281 530.906C9.96094 531.396 10.5 532.299 10.5 533.617C10.5 534.305 10.3568 534.867 10.0703 535.305C9.78906 535.742 9.39323 536.094 8.88281 536.359C9.33073 536.542 9.66667 536.781 9.89062 537.078C10.1198 537.375 10.2474 537.857 10.2734 538.523L10.3281 540.062C10.3438 540.5 10.3802 540.826 10.4375 541.039C10.5312 541.404 10.6979 541.638 10.9375 541.742V542H9.03125C8.97917 541.901 8.9375 541.773 8.90625 541.617C8.875 541.461 8.84896 541.159 8.82812 540.711L8.73438 538.797C8.69792 538.047 8.41927 537.544 7.89844 537.289C7.60156 537.148 7.13542 537.078 6.5 537.078H2.96094V542H1.40625V530.523ZM18.0781 533.445C18.6719 533.445 19.2474 533.586 19.8047 533.867C20.362 534.143 20.7865 534.503 21.0781 534.945C21.3594 535.367 21.5469 535.859 21.6406 536.422C21.724 536.807 21.7656 537.422 21.7656 538.266H15.6328C15.6589 539.115 15.8594 539.797 16.2344 540.312C16.6094 540.823 17.1901 541.078 17.9766 541.078C18.7109 541.078 19.2969 540.836 19.7344 540.352C19.9844 540.07 20.1615 539.745 20.2656 539.375H21.6484C21.612 539.682 21.4896 540.026 21.2812 540.406C21.0781 540.781 20.849 541.089 20.5938 541.328C20.1667 541.745 19.638 542.026 19.0078 542.172C18.6693 542.255 18.2865 542.297 17.8594 542.297C16.8177 542.297 15.9349 541.919 15.2109 541.164C14.487 540.404 14.125 539.341 14.125 537.977C14.125 536.633 14.4896 535.542 15.2188 534.703C15.9479 533.865 16.901 533.445 18.0781 533.445ZM20.3203 537.148C20.263 536.539 20.1302 536.052 19.9219 535.688C19.5365 535.01 18.8932 534.672 17.9922 534.672C17.3464 534.672 16.8047 534.906 16.3672 535.375C15.9297 535.839 15.6979 536.43 15.6719 537.148H20.3203ZM26.3359 539.375C26.3776 539.844 26.4948 540.203 26.6875 540.453C27.0417 540.906 27.6562 541.133 28.5312 541.133C29.0521 541.133 29.5104 541.021 29.9062 540.797C30.3021 540.568 30.5 540.216 30.5 539.742C30.5 539.383 30.3411 539.109 30.0234 538.922C29.8203 538.807 29.4193 538.674 28.8203 538.523L27.7031 538.242C26.9896 538.065 26.4635 537.867 26.125 537.648C25.5208 537.268 25.2188 536.742 25.2188 536.07C25.2188 535.279 25.5026 534.638 26.0703 534.148C26.6432 533.659 27.4115 533.414 28.375 533.414C29.6354 533.414 30.5443 533.784 31.1016 534.523C31.4505 534.992 31.6198 535.497 31.6094 536.039H30.2812C30.2552 535.721 30.1432 535.432 29.9453 535.172C29.6224 534.802 29.0625 534.617 28.2656 534.617C27.7344 534.617 27.3307 534.719 27.0547 534.922C26.7839 535.125 26.6484 535.393 26.6484 535.727C26.6484 536.091 26.8281 536.383 27.1875 536.602C27.3958 536.732 27.7031 536.846 28.1094 536.945L29.0391 537.172C30.0495 537.417 30.7266 537.654 31.0703 537.883C31.6172 538.242 31.8906 538.807 31.8906 539.578C31.8906 540.323 31.6068 540.966 31.0391 541.508C30.4766 542.049 29.6172 542.32 28.4609 542.32C27.2161 542.32 26.3333 542.039 25.8125 541.477C25.2969 540.909 25.0208 540.208 24.9844 539.375H26.3359ZM38.9844 533.445C39.5781 533.445 40.1536 533.586 40.7109 533.867C41.2682 534.143 41.6927 534.503 41.9844 534.945C42.2656 535.367 42.4531 535.859 42.5469 536.422C42.6302 536.807 42.6719 537.422 42.6719 538.266H36.5391C36.5651 539.115 36.7656 539.797 37.1406 540.312C37.5156 540.823 38.0964 541.078 38.8828 541.078C39.6172 541.078 40.2031 540.836 40.6406 540.352C40.8906 540.07 41.0677 539.745 41.1719 539.375H42.5547C42.5182 539.682 42.3958 540.026 42.1875 540.406C41.9844 540.781 41.7552 541.089 41.5 541.328C41.0729 541.745 40.5443 542.026 39.9141 542.172C39.5755 542.255 39.1927 542.297 38.7656 542.297C37.724 542.297 36.8411 541.919 36.1172 541.164C35.3932 540.404 35.0312 539.341 35.0312 537.977C35.0312 536.633 35.3958 535.542 36.125 534.703C36.8542 533.865 37.8073 533.445 38.9844 533.445ZM41.2266 537.148C41.1693 536.539 41.0365 536.052 40.8281 535.688C40.4427 535.01 39.7995 534.672 38.8984 534.672C38.2526 534.672 37.7109 534.906 37.2734 535.375C36.8359 535.839 36.6042 536.43 36.5781 537.148H41.2266ZM47.4844 539.773C47.4844 540.18 47.6328 540.5 47.9297 540.734C48.2266 540.969 48.5781 541.086 48.9844 541.086C49.4792 541.086 49.9583 540.971 50.4219 540.742C51.2031 540.362 51.5938 539.74 51.5938 538.875V537.742C51.4219 537.852 51.2005 537.943 50.9297 538.016C50.6589 538.089 50.3932 538.141 50.1328 538.172L49.2812 538.281C48.7708 538.349 48.388 538.456 48.1328 538.602C47.7005 538.846 47.4844 539.237 47.4844 539.773ZM50.8906 536.93C51.2135 536.888 51.4297 536.753 51.5391 536.523C51.6016 536.398 51.6328 536.219 51.6328 535.984C51.6328 535.505 51.4609 535.159 51.1172 534.945C50.7786 534.727 50.2917 534.617 49.6562 534.617C48.9219 534.617 48.401 534.815 48.0938 535.211C47.9219 535.43 47.8099 535.755 47.7578 536.188H46.4453C46.4714 535.156 46.8047 534.44 47.4453 534.039C48.0911 533.633 48.8385 533.43 49.6875 533.43C50.6719 533.43 51.4714 533.617 52.0859 533.992C52.6953 534.367 53 534.951 53 535.742V540.562C53 540.708 53.0286 540.826 53.0859 540.914C53.1484 541.003 53.276 541.047 53.4688 541.047C53.5312 541.047 53.6016 541.044 53.6797 541.039C53.7578 541.029 53.8411 541.016 53.9297 541V542.039C53.7109 542.102 53.5443 542.141 53.4297 542.156C53.3151 542.172 53.1589 542.18 52.9609 542.18C52.4766 542.18 52.125 542.008 51.9062 541.664C51.7917 541.482 51.7109 541.224 51.6641 540.891C51.3776 541.266 50.9661 541.591 50.4297 541.867C49.8932 542.143 49.3021 542.281 48.6562 542.281C47.8802 542.281 47.2448 542.047 46.75 541.578C46.2604 541.104 46.0156 540.513 46.0156 539.805C46.0156 539.029 46.2578 538.427 46.7422 538C47.2266 537.573 47.862 537.31 48.6484 537.211L50.8906 536.93ZM57.3516 533.633H58.6875V535.078C58.7969 534.797 59.0651 534.456 59.4922 534.055C59.9193 533.648 60.4115 533.445 60.9688 533.445C60.9948 533.445 61.0391 533.448 61.1016 533.453C61.1641 533.458 61.2708 533.469 61.4219 533.484V534.969C61.3385 534.953 61.2604 534.943 61.1875 534.938C61.1198 534.932 61.0443 534.93 60.9609 534.93C60.2526 534.93 59.7083 535.159 59.3281 535.617C58.9479 536.07 58.7578 536.594 58.7578 537.188V542H57.3516V533.633ZM67.8672 533.391C68.8099 533.391 69.5755 533.62 70.1641 534.078C70.7578 534.536 71.1146 535.326 71.2344 536.445H69.8672C69.7839 535.93 69.5938 535.503 69.2969 535.164C69 534.82 68.5234 534.648 67.8672 534.648C66.9714 534.648 66.3307 535.086 65.9453 535.961C65.6953 536.529 65.5703 537.229 65.5703 538.062C65.5703 538.901 65.7474 539.607 66.1016 540.18C66.4557 540.753 67.013 541.039 67.7734 541.039C68.3568 541.039 68.8177 540.862 69.1562 540.508C69.5 540.148 69.737 539.659 69.8672 539.039H71.2344C71.0781 540.148 70.6875 540.961 70.0625 541.477C69.4375 541.987 68.638 542.242 67.6641 542.242C66.5703 542.242 65.6979 541.844 65.0469 541.047C64.3958 540.245 64.0703 539.245 64.0703 538.047C64.0703 536.578 64.4271 535.435 65.1406 534.617C65.8542 533.799 66.763 533.391 67.8672 533.391ZM74.6406 530.484H76.0469V534.766C76.3802 534.344 76.6797 534.047 76.9453 533.875C77.3984 533.578 77.9635 533.43 78.6406 533.43C79.8542 533.43 80.6771 533.854 81.1094 534.703C81.3438 535.167 81.4609 535.81 81.4609 536.633V542H80.0156V536.727C80.0156 536.112 79.9375 535.661 79.7812 535.375C79.526 534.917 79.0469 534.688 78.3438 534.688C77.7604 534.688 77.2318 534.888 76.7578 535.289C76.2839 535.69 76.0469 536.448 76.0469 537.562V542H74.6406V530.484ZM95.5391 534.984C96.0339 534.635 96.375 534.352 96.5625 534.133C96.8698 533.779 97.0234 533.385 97.0234 532.953C97.0234 532.615 96.9115 532.323 96.6875 532.078C96.4635 531.833 96.1615 531.711 95.7812 531.711C95.2031 531.711 94.8021 531.904 94.5781 532.289C94.4635 532.487 94.4062 532.703 94.4062 532.938C94.4062 533.255 94.4922 533.56 94.6641 533.852C94.8411 534.143 95.1328 534.521 95.5391 534.984ZM95.1797 541.031C95.7578 541.031 96.2552 540.898 96.6719 540.633C97.0885 540.367 97.4089 540.07 97.6328 539.742L95.0391 536.578C94.3047 537.068 93.8255 537.443 93.6016 537.703C93.2578 538.094 93.0859 538.57 93.0859 539.133C93.0859 539.742 93.3073 540.211 93.75 540.539C94.1979 540.867 94.6745 541.031 95.1797 541.031ZM94.2578 535.617C93.7734 535.06 93.4479 534.591 93.2812 534.211C93.1198 533.831 93.0391 533.464 93.0391 533.109C93.0391 532.37 93.2891 531.758 93.7891 531.273C94.2891 530.784 94.9583 530.539 95.7969 530.539C96.5938 530.539 97.2161 530.766 97.6641 531.219C98.112 531.672 98.3359 532.214 98.3359 532.844C98.3359 533.578 98.1042 534.221 97.6406 534.773C97.3698 535.096 96.9167 535.469 96.2812 535.891L98.375 538.391C98.5156 537.974 98.612 537.664 98.6641 537.461C98.7214 537.253 98.7786 536.964 98.8359 536.594H100.172C100.083 537.328 99.9062 538.034 99.6406 538.711C99.375 539.383 99.2422 539.654 99.2422 539.523L101.281 542H99.4688L98.3906 540.688C97.9635 541.151 97.5729 541.49 97.2188 541.703C96.599 542.078 95.8854 542.266 95.0781 542.266C93.8854 542.266 93.0182 541.945 92.4766 541.305C91.9349 540.659 91.6641 539.932 91.6641 539.125C91.6641 538.255 91.9271 537.529 92.4531 536.945C92.776 536.591 93.3776 536.148 94.2578 535.617ZM112.328 538.297C112.365 538.948 112.518 539.477 112.789 539.883C113.305 540.643 114.214 541.023 115.516 541.023C116.099 541.023 116.63 540.94 117.109 540.773C118.036 540.451 118.5 539.872 118.5 539.039C118.5 538.414 118.305 537.969 117.914 537.703C117.518 537.443 116.898 537.216 116.055 537.023L114.5 536.672C113.484 536.443 112.766 536.19 112.344 535.914C111.615 535.435 111.25 534.719 111.25 533.766C111.25 532.734 111.607 531.888 112.32 531.227C113.034 530.565 114.044 530.234 115.352 530.234C116.555 530.234 117.576 530.526 118.414 531.109C119.258 531.688 119.68 532.615 119.68 533.891H118.219C118.141 533.276 117.974 532.805 117.719 532.477C117.245 531.878 116.44 531.578 115.305 531.578C114.388 531.578 113.729 531.771 113.328 532.156C112.927 532.542 112.727 532.99 112.727 533.5C112.727 534.062 112.961 534.474 113.43 534.734C113.737 534.901 114.432 535.109 115.516 535.359L117.125 535.727C117.901 535.904 118.5 536.146 118.922 536.453C119.651 536.99 120.016 537.768 120.016 538.789C120.016 540.06 119.552 540.969 118.625 541.516C117.703 542.062 116.63 542.336 115.406 542.336C113.979 542.336 112.862 541.971 112.055 541.242C111.247 540.518 110.852 539.536 110.867 538.297H112.328ZM129.023 533.633H130.578C130.38 534.169 129.94 535.393 129.258 537.305C128.747 538.742 128.32 539.914 127.977 540.82C127.164 542.956 126.591 544.258 126.258 544.727C125.924 545.195 125.352 545.43 124.539 545.43C124.341 545.43 124.188 545.422 124.078 545.406C123.974 545.391 123.844 545.362 123.688 545.32V544.039C123.932 544.107 124.109 544.148 124.219 544.164C124.328 544.18 124.424 544.188 124.508 544.188C124.768 544.188 124.958 544.143 125.078 544.055C125.203 543.971 125.307 543.867 125.391 543.742C125.417 543.701 125.51 543.487 125.672 543.102C125.833 542.716 125.951 542.43 126.023 542.242L122.93 533.633H124.523L126.766 540.445L129.023 533.633ZM133.797 533.633H135.133V534.82C135.529 534.331 135.948 533.979 136.391 533.766C136.833 533.552 137.326 533.445 137.867 533.445C139.055 533.445 139.857 533.859 140.273 534.688C140.503 535.141 140.617 535.789 140.617 536.633V542H139.188V536.727C139.188 536.216 139.112 535.805 138.961 535.492C138.711 534.971 138.258 534.711 137.602 534.711C137.268 534.711 136.995 534.745 136.781 534.812C136.396 534.927 136.057 535.156 135.766 535.5C135.531 535.776 135.378 536.062 135.305 536.359C135.237 536.651 135.203 537.07 135.203 537.617V542H133.797V533.633ZM144.984 531.297H146.406V533.633H147.742V534.781H146.406V540.242C146.406 540.534 146.505 540.729 146.703 540.828C146.812 540.885 146.995 540.914 147.25 540.914C147.318 540.914 147.391 540.914 147.469 540.914C147.547 540.909 147.638 540.901 147.742 540.891V542C147.581 542.047 147.411 542.081 147.234 542.102C147.062 542.122 146.875 542.133 146.672 542.133C146.016 542.133 145.57 541.966 145.336 541.633C145.102 541.294 144.984 540.857 144.984 540.32V534.781H143.852V533.633H144.984V531.297ZM151.156 530.484H152.562V534.766C152.896 534.344 153.195 534.047 153.461 533.875C153.914 533.578 154.479 533.43 155.156 533.43C156.37 533.43 157.193 533.854 157.625 534.703C157.859 535.167 157.977 535.81 157.977 536.633V542H156.531V536.727C156.531 536.112 156.453 535.661 156.297 535.375C156.042 534.917 155.562 534.688 154.859 534.688C154.276 534.688 153.747 534.888 153.273 535.289C152.799 535.69 152.562 536.448 152.562 537.562V542H151.156V530.484ZM165.547 533.445C166.141 533.445 166.716 533.586 167.273 533.867C167.831 534.143 168.255 534.503 168.547 534.945C168.828 535.367 169.016 535.859 169.109 536.422C169.193 536.807 169.234 537.422 169.234 538.266H163.102C163.128 539.115 163.328 539.797 163.703 540.312C164.078 540.823 164.659 541.078 165.445 541.078C166.18 541.078 166.766 540.836 167.203 540.352C167.453 540.07 167.63 539.745 167.734 539.375H169.117C169.081 539.682 168.958 540.026 168.75 540.406C168.547 540.781 168.318 541.089 168.062 541.328C167.635 541.745 167.107 542.026 166.477 542.172C166.138 542.255 165.755 542.297 165.328 542.297C164.286 542.297 163.404 541.919 162.68 541.164C161.956 540.404 161.594 539.341 161.594 537.977C161.594 536.633 161.958 535.542 162.688 534.703C163.417 533.865 164.37 533.445 165.547 533.445ZM167.789 537.148C167.732 536.539 167.599 536.052 167.391 535.688C167.005 535.01 166.362 534.672 165.461 534.672C164.815 534.672 164.273 534.906 163.836 535.375C163.398 535.839 163.167 536.43 163.141 537.148H167.789ZM173.805 539.375C173.846 539.844 173.964 540.203 174.156 540.453C174.51 540.906 175.125 541.133 176 541.133C176.521 541.133 176.979 541.021 177.375 540.797C177.771 540.568 177.969 540.216 177.969 539.742C177.969 539.383 177.81 539.109 177.492 538.922C177.289 538.807 176.888 538.674 176.289 538.523L175.172 538.242C174.458 538.065 173.932 537.867 173.594 537.648C172.99 537.268 172.688 536.742 172.688 536.07C172.688 535.279 172.971 534.638 173.539 534.148C174.112 533.659 174.88 533.414 175.844 533.414C177.104 533.414 178.013 533.784 178.57 534.523C178.919 534.992 179.089 535.497 179.078 536.039H177.75C177.724 535.721 177.612 535.432 177.414 535.172C177.091 534.802 176.531 534.617 175.734 534.617C175.203 534.617 174.799 534.719 174.523 534.922C174.253 535.125 174.117 535.393 174.117 535.727C174.117 536.091 174.297 536.383 174.656 536.602C174.865 536.732 175.172 536.846 175.578 536.945L176.508 537.172C177.518 537.417 178.195 537.654 178.539 537.883C179.086 538.242 179.359 538.807 179.359 539.578C179.359 540.323 179.076 540.966 178.508 541.508C177.945 542.049 177.086 542.32 175.93 542.32C174.685 542.32 173.802 542.039 173.281 541.477C172.766 540.909 172.49 540.208 172.453 539.375H173.805ZM182.969 533.672H184.398V542H182.969V533.672ZM182.969 530.523H184.398V532.117H182.969V530.523ZM189.367 539.375C189.409 539.844 189.526 540.203 189.719 540.453C190.073 540.906 190.688 541.133 191.562 541.133C192.083 541.133 192.542 541.021 192.938 540.797C193.333 540.568 193.531 540.216 193.531 539.742C193.531 539.383 193.372 539.109 193.055 538.922C192.852 538.807 192.451 538.674 191.852 538.523L190.734 538.242C190.021 538.065 189.495 537.867 189.156 537.648C188.552 537.268 188.25 536.742 188.25 536.07C188.25 535.279 188.534 534.638 189.102 534.148C189.674 533.659 190.443 533.414 191.406 533.414C192.667 533.414 193.576 533.784 194.133 534.523C194.482 534.992 194.651 535.497 194.641 536.039H193.312C193.286 535.721 193.174 535.432 192.977 535.172C192.654 534.802 192.094 534.617 191.297 534.617C190.766 534.617 190.362 534.719 190.086 534.922C189.815 535.125 189.68 535.393 189.68 535.727C189.68 536.091 189.859 536.383 190.219 536.602C190.427 536.732 190.734 536.846 191.141 536.945L192.07 537.172C193.081 537.417 193.758 537.654 194.102 537.883C194.648 538.242 194.922 538.807 194.922 539.578C194.922 540.323 194.638 540.966 194.07 541.508C193.508 542.049 192.648 542.32 191.492 542.32C190.247 542.32 189.365 542.039 188.844 541.477C188.328 540.909 188.052 540.208 188.016 539.375H189.367Z" fill="#9C9C9C"/>
<path d="M1274.78 540.672C1275.31 540.672 1275.74 540.617 1276.08 540.508C1276.68 540.305 1277.18 539.914 1277.56 539.336C1277.87 538.872 1278.09 538.279 1278.23 537.555C1278.3 537.122 1278.34 536.721 1278.34 536.352C1278.34 534.93 1278.06 533.826 1277.49 533.039C1276.93 532.253 1276.02 531.859 1274.77 531.859H1272.01V540.672H1274.78ZM1270.45 530.523H1275.09C1276.67 530.523 1277.9 531.083 1278.77 532.203C1279.54 533.214 1279.93 534.508 1279.93 536.086C1279.93 537.305 1279.7 538.406 1279.24 539.391C1278.43 541.13 1277.05 542 1275.08 542H1270.45V530.523ZM1287.23 533.445C1287.83 533.445 1288.4 533.586 1288.96 533.867C1289.52 534.143 1289.94 534.503 1290.23 534.945C1290.52 535.367 1290.7 535.859 1290.8 536.422C1290.88 536.807 1290.92 537.422 1290.92 538.266H1284.79C1284.82 539.115 1285.02 539.797 1285.39 540.312C1285.77 540.823 1286.35 541.078 1287.13 541.078C1287.87 541.078 1288.45 540.836 1288.89 540.352C1289.14 540.07 1289.32 539.745 1289.42 539.375H1290.8C1290.77 539.682 1290.65 540.026 1290.44 540.406C1290.23 540.781 1290.01 541.089 1289.75 541.328C1289.32 541.745 1288.79 542.026 1288.16 542.172C1287.83 542.255 1287.44 542.297 1287.02 542.297C1285.97 542.297 1285.09 541.919 1284.37 541.164C1283.64 540.404 1283.28 539.341 1283.28 537.977C1283.28 536.633 1283.65 535.542 1284.38 534.703C1285.1 533.865 1286.06 533.445 1287.23 533.445ZM1289.48 537.148C1289.42 536.539 1289.29 536.052 1289.08 535.688C1288.69 535.01 1288.05 534.672 1287.15 534.672C1286.5 534.672 1285.96 534.906 1285.52 535.375C1285.09 535.839 1284.85 536.43 1284.83 537.148H1289.48ZM1295.49 539.375C1295.53 539.844 1295.65 540.203 1295.84 540.453C1296.2 540.906 1296.81 541.133 1297.69 541.133C1298.21 541.133 1298.67 541.021 1299.06 540.797C1299.46 540.568 1299.66 540.216 1299.66 539.742C1299.66 539.383 1299.5 539.109 1299.18 538.922C1298.98 538.807 1298.58 538.674 1297.98 538.523L1296.86 538.242C1296.15 538.065 1295.62 537.867 1295.28 537.648C1294.68 537.268 1294.38 536.742 1294.38 536.07C1294.38 535.279 1294.66 534.638 1295.23 534.148C1295.8 533.659 1296.57 533.414 1297.53 533.414C1298.79 533.414 1299.7 533.784 1300.26 534.523C1300.61 534.992 1300.78 535.497 1300.77 536.039H1299.44C1299.41 535.721 1299.3 535.432 1299.1 535.172C1298.78 534.802 1298.22 534.617 1297.42 534.617C1296.89 534.617 1296.49 534.719 1296.21 534.922C1295.94 535.125 1295.8 535.393 1295.8 535.727C1295.8 536.091 1295.98 536.383 1296.34 536.602C1296.55 536.732 1296.86 536.846 1297.27 536.945L1298.2 537.172C1299.21 537.417 1299.88 537.654 1300.23 537.883C1300.77 538.242 1301.05 538.807 1301.05 539.578C1301.05 540.323 1300.76 540.966 1300.2 541.508C1299.63 542.049 1298.77 542.32 1297.62 542.32C1296.37 542.32 1295.49 542.039 1294.97 541.477C1294.45 540.909 1294.18 540.208 1294.14 539.375H1295.49ZM1304.66 533.672H1306.09V542H1304.66V533.672ZM1304.66 530.523H1306.09V532.117H1304.66V530.523ZM1313.17 533.484C1313.83 533.484 1314.4 533.646 1314.89 533.969C1315.16 534.151 1315.43 534.417 1315.7 534.766V533.711H1317V541.32C1317 542.383 1316.84 543.221 1316.53 543.836C1315.95 544.971 1314.85 545.539 1313.23 545.539C1312.33 545.539 1311.57 545.336 1310.95 544.93C1310.34 544.529 1309.99 543.898 1309.92 543.039H1311.35C1311.42 543.414 1311.55 543.703 1311.76 543.906C1312.08 544.219 1312.58 544.375 1313.26 544.375C1314.34 544.375 1315.04 543.995 1315.38 543.234C1315.57 542.786 1315.66 541.987 1315.65 540.836C1315.37 541.263 1315.03 541.581 1314.63 541.789C1314.24 541.997 1313.71 542.102 1313.06 542.102C1312.16 542.102 1311.36 541.781 1310.68 541.141C1310 540.495 1309.66 539.43 1309.66 537.945C1309.66 536.544 1310.01 535.451 1310.69 534.664C1311.38 533.878 1312.2 533.484 1313.17 533.484ZM1315.7 537.781C1315.7 536.745 1315.49 535.977 1315.06 535.477C1314.64 534.977 1314.09 534.727 1313.43 534.727C1312.44 534.727 1311.76 535.19 1311.4 536.117C1311.21 536.612 1311.11 537.26 1311.11 538.062C1311.11 539.005 1311.3 539.724 1311.68 540.219C1312.07 540.708 1312.58 540.953 1313.23 540.953C1314.24 540.953 1314.95 540.497 1315.36 539.586C1315.59 539.07 1315.7 538.469 1315.7 537.781ZM1321.12 533.633H1322.46V534.82C1322.86 534.331 1323.28 533.979 1323.72 533.766C1324.16 533.552 1324.65 533.445 1325.2 533.445C1326.38 533.445 1327.18 533.859 1327.6 534.688C1327.83 535.141 1327.95 535.789 1327.95 536.633V542H1326.52V536.727C1326.52 536.216 1326.44 535.805 1326.29 535.492C1326.04 534.971 1325.59 534.711 1324.93 534.711C1324.6 534.711 1324.32 534.745 1324.11 534.812C1323.72 534.927 1323.39 535.156 1323.09 535.5C1322.86 535.776 1322.71 536.062 1322.63 536.359C1322.57 536.651 1322.53 537.07 1322.53 537.617V542H1321.12V533.633Z" fill="#9C9C9C"/>
<path d="M582.289 530.211C583.742 530.211 584.87 530.594 585.672 531.359C586.474 532.125 586.919 532.995 587.008 533.969H585.492C585.32 533.229 584.977 532.643 584.461 532.211C583.951 531.779 583.232 531.562 582.305 531.562C581.174 531.562 580.26 531.961 579.562 532.758C578.87 533.549 578.523 534.766 578.523 536.406C578.523 537.75 578.836 538.841 579.461 539.68C580.091 540.513 581.029 540.93 582.273 540.93C583.419 540.93 584.292 540.49 584.891 539.609C585.208 539.146 585.445 538.536 585.602 537.781H587.117C586.982 538.99 586.534 540.003 585.773 540.82C584.862 541.805 583.633 542.297 582.086 542.297C580.753 542.297 579.633 541.893 578.727 541.086C577.534 540.018 576.938 538.37 576.938 536.141C576.938 534.448 577.385 533.06 578.281 531.977C579.25 530.799 580.586 530.211 582.289 530.211ZM594.148 541.094C595.081 541.094 595.719 540.742 596.062 540.039C596.411 539.331 596.586 538.544 596.586 537.68C596.586 536.898 596.461 536.263 596.211 535.773C595.815 535.003 595.133 534.617 594.164 534.617C593.305 534.617 592.68 534.945 592.289 535.602C591.898 536.258 591.703 537.049 591.703 537.977C591.703 538.867 591.898 539.609 592.289 540.203C592.68 540.797 593.299 541.094 594.148 541.094ZM594.203 533.391C595.281 533.391 596.193 533.75 596.938 534.469C597.682 535.188 598.055 536.245 598.055 537.641C598.055 538.99 597.727 540.104 597.07 540.984C596.414 541.865 595.396 542.305 594.016 542.305C592.865 542.305 591.951 541.917 591.273 541.141C590.596 540.359 590.258 539.312 590.258 538C590.258 536.594 590.615 535.474 591.328 534.641C592.042 533.807 593 533.391 594.203 533.391ZM601.734 533.633H603.07V534.82C603.466 534.331 603.885 533.979 604.328 533.766C604.771 533.552 605.263 533.445 605.805 533.445C606.992 533.445 607.794 533.859 608.211 534.688C608.44 535.141 608.555 535.789 608.555 536.633V542H607.125V536.727C607.125 536.216 607.049 535.805 606.898 535.492C606.648 534.971 606.195 534.711 605.539 534.711C605.206 534.711 604.932 534.745 604.719 534.812C604.333 534.927 603.995 535.156 603.703 535.5C603.469 535.776 603.315 536.062 603.242 536.359C603.174 536.651 603.141 537.07 603.141 537.617V542H601.734V533.633ZM615.867 533.391C616.81 533.391 617.576 533.62 618.164 534.078C618.758 534.536 619.115 535.326 619.234 536.445H617.867C617.784 535.93 617.594 535.503 617.297 535.164C617 534.82 616.523 534.648 615.867 534.648C614.971 534.648 614.331 535.086 613.945 535.961C613.695 536.529 613.57 537.229 613.57 538.062C613.57 538.901 613.747 539.607 614.102 540.18C614.456 540.753 615.013 541.039 615.773 541.039C616.357 541.039 616.818 540.862 617.156 540.508C617.5 540.148 617.737 539.659 617.867 539.039H619.234C619.078 540.148 618.688 540.961 618.062 541.477C617.438 541.987 616.638 542.242 615.664 542.242C614.57 542.242 613.698 541.844 613.047 541.047C612.396 540.245 612.07 539.245 612.07 538.047C612.07 536.578 612.427 535.435 613.141 534.617C613.854 533.799 614.763 533.391 615.867 533.391ZM626.125 533.445C626.719 533.445 627.294 533.586 627.852 533.867C628.409 534.143 628.833 534.503 629.125 534.945C629.406 535.367 629.594 535.859 629.688 536.422C629.771 536.807 629.812 537.422 629.812 538.266H623.68C623.706 539.115 623.906 539.797 624.281 540.312C624.656 540.823 625.237 541.078 626.023 541.078C626.758 541.078 627.344 540.836 627.781 540.352C628.031 540.07 628.208 539.745 628.312 539.375H629.695C629.659 539.682 629.536 540.026 629.328 540.406C629.125 540.781 628.896 541.089 628.641 541.328C628.214 541.745 627.685 542.026 627.055 542.172C626.716 542.255 626.333 542.297 625.906 542.297C624.865 542.297 623.982 541.919 623.258 541.164C622.534 540.404 622.172 539.341 622.172 537.977C622.172 536.633 622.536 535.542 623.266 534.703C623.995 533.865 624.948 533.445 626.125 533.445ZM628.367 537.148C628.31 536.539 628.177 536.052 627.969 535.688C627.583 535.01 626.94 534.672 626.039 534.672C625.393 534.672 624.852 534.906 624.414 535.375C623.977 535.839 623.745 536.43 623.719 537.148H628.367ZM637.078 541.055C637.734 541.055 638.279 540.781 638.711 540.234C639.148 539.682 639.367 538.859 639.367 537.766C639.367 537.099 639.271 536.526 639.078 536.047C638.714 535.125 638.047 534.664 637.078 534.664C636.104 534.664 635.438 535.151 635.078 536.125C634.885 536.646 634.789 537.307 634.789 538.109C634.789 538.755 634.885 539.305 635.078 539.758C635.443 540.622 636.109 541.055 637.078 541.055ZM633.438 533.672H634.805V534.781C635.086 534.401 635.393 534.107 635.727 533.898C636.201 533.586 636.758 533.43 637.398 533.43C638.346 533.43 639.151 533.794 639.812 534.523C640.474 535.247 640.805 536.284 640.805 537.633C640.805 539.456 640.328 540.758 639.375 541.539C638.771 542.034 638.068 542.281 637.266 542.281C636.635 542.281 636.107 542.143 635.68 541.867C635.43 541.711 635.151 541.443 634.844 541.062V545.336H633.438V533.672ZM644.734 531.297H646.156V533.633H647.492V534.781H646.156V540.242C646.156 540.534 646.255 540.729 646.453 540.828C646.562 540.885 646.745 540.914 647 540.914C647.068 540.914 647.141 540.914 647.219 540.914C647.297 540.909 647.388 540.901 647.492 540.891V542C647.331 542.047 647.161 542.081 646.984 542.102C646.812 542.122 646.625 542.133 646.422 542.133C645.766 542.133 645.32 541.966 645.086 541.633C644.852 541.294 644.734 540.857 644.734 540.32V534.781H643.602V533.633H644.734V531.297ZM659.969 530.523H661.156L657.516 542H656.328L659.969 530.523ZM670.602 530.523H675.766C676.786 530.523 677.609 530.812 678.234 531.391C678.859 531.964 679.172 532.771 679.172 533.812C679.172 534.708 678.893 535.49 678.336 536.156C677.779 536.818 676.922 537.148 675.766 537.148H672.156V542H670.602V530.523ZM677.602 533.82C677.602 532.977 677.289 532.404 676.664 532.102C676.32 531.94 675.849 531.859 675.25 531.859H672.156V535.836H675.25C675.948 535.836 676.513 535.688 676.945 535.391C677.383 535.094 677.602 534.57 677.602 533.82ZM682.977 533.633H684.312V535.078C684.422 534.797 684.69 534.456 685.117 534.055C685.544 533.648 686.036 533.445 686.594 533.445C686.62 533.445 686.664 533.448 686.727 533.453C686.789 533.458 686.896 533.469 687.047 533.484V534.969C686.964 534.953 686.885 534.943 686.812 534.938C686.745 534.932 686.669 534.93 686.586 534.93C685.878 534.93 685.333 535.159 684.953 535.617C684.573 536.07 684.383 536.594 684.383 537.188V542H682.977V533.633ZM693.586 541.094C694.518 541.094 695.156 540.742 695.5 540.039C695.849 539.331 696.023 538.544 696.023 537.68C696.023 536.898 695.898 536.263 695.648 535.773C695.253 535.003 694.57 534.617 693.602 534.617C692.742 534.617 692.117 534.945 691.727 535.602C691.336 536.258 691.141 537.049 691.141 537.977C691.141 538.867 691.336 539.609 691.727 540.203C692.117 540.797 692.737 541.094 693.586 541.094ZM693.641 533.391C694.719 533.391 695.63 533.75 696.375 534.469C697.12 535.188 697.492 536.245 697.492 537.641C697.492 538.99 697.164 540.104 696.508 540.984C695.852 541.865 694.833 542.305 693.453 542.305C692.302 542.305 691.388 541.917 690.711 541.141C690.034 540.359 689.695 539.312 689.695 538C689.695 536.594 690.052 535.474 690.766 534.641C691.479 533.807 692.438 533.391 693.641 533.391ZM701.453 531.297H702.875V533.633H704.211V534.781H702.875V540.242C702.875 540.534 702.974 540.729 703.172 540.828C703.281 540.885 703.464 540.914 703.719 540.914C703.786 540.914 703.859 540.914 703.938 540.914C704.016 540.909 704.107 540.901 704.211 540.891V542C704.049 542.047 703.88 542.081 703.703 542.102C703.531 542.122 703.344 542.133 703.141 542.133C702.484 542.133 702.039 541.966 701.805 541.633C701.57 541.294 701.453 540.857 701.453 540.32V534.781H700.32V533.633H701.453V531.297ZM710.945 541.094C711.878 541.094 712.516 540.742 712.859 540.039C713.208 539.331 713.383 538.544 713.383 537.68C713.383 536.898 713.258 536.263 713.008 535.773C712.612 535.003 711.93 534.617 710.961 534.617C710.102 534.617 709.477 534.945 709.086 535.602C708.695 536.258 708.5 537.049 708.5 537.977C708.5 538.867 708.695 539.609 709.086 540.203C709.477 540.797 710.096 541.094 710.945 541.094ZM711 533.391C712.078 533.391 712.99 533.75 713.734 534.469C714.479 535.188 714.852 536.245 714.852 537.641C714.852 538.99 714.523 540.104 713.867 540.984C713.211 541.865 712.193 542.305 710.812 542.305C709.661 542.305 708.747 541.917 708.07 541.141C707.393 540.359 707.055 539.312 707.055 538C707.055 536.594 707.411 535.474 708.125 534.641C708.839 533.807 709.797 533.391 711 533.391ZM718.812 531.297H720.234V533.633H721.57V534.781H720.234V540.242C720.234 540.534 720.333 540.729 720.531 540.828C720.641 540.885 720.823 540.914 721.078 540.914C721.146 540.914 721.219 540.914 721.297 540.914C721.375 540.909 721.466 540.901 721.57 540.891V542C721.409 542.047 721.24 542.081 721.062 542.102C720.891 542.122 720.703 542.133 720.5 542.133C719.844 542.133 719.398 541.966 719.164 541.633C718.93 541.294 718.812 540.857 718.812 540.32V534.781H717.68V533.633H718.812V531.297ZM730.211 533.633H731.766C731.568 534.169 731.128 535.393 730.445 537.305C729.935 538.742 729.508 539.914 729.164 540.82C728.352 542.956 727.779 544.258 727.445 544.727C727.112 545.195 726.539 545.43 725.727 545.43C725.529 545.43 725.375 545.422 725.266 545.406C725.161 545.391 725.031 545.362 724.875 545.32V544.039C725.12 544.107 725.297 544.148 725.406 544.164C725.516 544.18 725.612 544.188 725.695 544.188C725.956 544.188 726.146 544.143 726.266 544.055C726.391 543.971 726.495 543.867 726.578 543.742C726.604 543.701 726.698 543.487 726.859 543.102C727.021 542.716 727.138 542.43 727.211 542.242L724.117 533.633H725.711L727.953 540.445L730.211 533.633ZM738.516 541.055C739.172 541.055 739.716 540.781 740.148 540.234C740.586 539.682 740.805 538.859 740.805 537.766C740.805 537.099 740.708 536.526 740.516 536.047C740.151 535.125 739.484 534.664 738.516 534.664C737.542 534.664 736.875 535.151 736.516 536.125C736.323 536.646 736.227 537.307 736.227 538.109C736.227 538.755 736.323 539.305 736.516 539.758C736.88 540.622 737.547 541.055 738.516 541.055ZM734.875 533.672H736.242V534.781C736.523 534.401 736.831 534.107 737.164 533.898C737.638 533.586 738.195 533.43 738.836 533.43C739.784 533.43 740.589 533.794 741.25 534.523C741.911 535.247 742.242 536.284 742.242 537.633C742.242 539.456 741.766 540.758 740.812 541.539C740.208 542.034 739.505 542.281 738.703 542.281C738.073 542.281 737.544 542.143 737.117 541.867C736.867 541.711 736.589 541.443 736.281 541.062V545.336H734.875V533.672ZM749.375 533.445C749.969 533.445 750.544 533.586 751.102 533.867C751.659 534.143 752.083 534.503 752.375 534.945C752.656 535.367 752.844 535.859 752.938 536.422C753.021 536.807 753.062 537.422 753.062 538.266H746.93C746.956 539.115 747.156 539.797 747.531 540.312C747.906 540.823 748.487 541.078 749.273 541.078C750.008 541.078 750.594 540.836 751.031 540.352C751.281 540.07 751.458 539.745 751.562 539.375H752.945C752.909 539.682 752.786 540.026 752.578 540.406C752.375 540.781 752.146 541.089 751.891 541.328C751.464 541.745 750.935 542.026 750.305 542.172C749.966 542.255 749.583 542.297 749.156 542.297C748.115 542.297 747.232 541.919 746.508 541.164C745.784 540.404 745.422 539.341 745.422 537.977C745.422 536.633 745.786 535.542 746.516 534.703C747.245 533.865 748.198 533.445 749.375 533.445ZM751.617 537.148C751.56 536.539 751.427 536.052 751.219 535.688C750.833 535.01 750.19 534.672 749.289 534.672C748.643 534.672 748.102 534.906 747.664 535.375C747.227 535.839 746.995 536.43 746.969 537.148H751.617Z" fill="#9C9C9C"/>
</svg>
