<svg width="400" height="300" viewBox="0 0 400 300" fill="none" xmlns="http://www.w3.org/2000/svg">
<g clip-path="url(#clip0)">
<path d="M22.7467 300.247L16.2559 282.072C16.2559 282.072 23.3958 285.642 23.7204 290.186C23.7204 290.186 22.0976 267.468 18.8522 262.6C18.8522 262.6 24.0449 263.249 29.8867 288.563C29.8867 288.563 30.8603 259.354 22.0976 250.916C22.0976 250.916 34.1058 260.652 35.0794 281.748V300.247H22.7467Z" fill="#57B793"/>
<path d="M241.924 299.978L246.202 288C246.202 288 241.496 290.352 241.283 293.347C241.283 293.347 242.352 278.374 244.491 275.165C244.491 275.165 241.069 275.593 237.218 292.278C237.218 292.278 236.577 273.026 242.352 267.465C242.352 267.465 234.438 273.882 233.796 287.786V299.978H241.924Z" fill="#57B793"/>
<path d="M173.446 299.978L170.053 290.478C170.053 290.478 173.785 292.344 173.955 294.719C173.955 294.719 173.106 282.844 171.41 280.299C171.41 280.299 174.124 280.638 177.178 293.871C177.178 293.871 177.687 278.602 173.106 274.192C173.106 274.192 179.383 279.281 179.892 290.308V299.978H173.446Z" fill="#57B793"/>
<path d="M169.672 241.444C167.96 241.444 166.239 241.388 164.544 241.281L164.598 240.427C166.277 240.534 167.982 240.588 169.667 240.588L169.718 240.588V241.443L169.677 241.444L169.672 241.444ZM174.893 241.274L174.837 240.42C176.534 240.309 178.249 240.141 179.934 239.921L180.046 240.769C178.342 240.992 176.609 241.162 174.893 241.274ZM159.391 240.783C157.685 240.562 155.965 240.281 154.281 239.949L154.446 239.109C156.113 239.438 157.813 239.716 159.501 239.934L159.391 240.783ZM185.154 239.928L184.988 239.089C186.655 238.759 188.333 238.368 189.975 237.928L190.197 238.755C188.536 239.199 186.84 239.594 185.154 239.928V239.928ZM149.237 238.782C147.579 238.34 145.912 237.837 144.281 237.285L144.555 236.474C146.168 237.02 147.818 237.518 149.457 237.955L149.237 238.782ZM195.151 237.251L194.876 236.441C196.481 235.895 198.09 235.289 199.66 234.637L199.988 235.428C198.401 236.086 196.774 236.7 195.151 237.251ZM139.426 235.461C137.838 234.804 136.25 234.084 134.704 233.322L135.082 232.555C136.611 233.309 138.183 234.02 139.753 234.67L139.426 235.461ZM204.697 233.289L204.318 232.522C205.842 231.768 207.359 230.955 208.828 230.105L209.256 230.846C207.772 231.705 206.238 232.527 204.697 233.289ZM130.133 230.878C128.644 230.018 127.164 229.097 125.734 228.14L126.209 227.429C127.624 228.375 129.088 229.286 130.561 230.137L130.133 230.878ZM213.647 228.108L213.171 227.397C214.581 226.454 215.981 225.449 217.33 224.412L217.851 225.09C216.487 226.139 215.073 227.154 213.647 228.108ZM121.523 225.122C120.16 224.076 118.813 222.97 117.519 221.836L118.083 221.193C119.363 222.315 120.696 223.408 122.044 224.443L121.523 225.122ZM221.852 221.804L221.287 221.161C222.564 220.039 223.822 218.861 225.025 217.659L225.63 218.264C224.414 219.479 223.143 220.67 221.852 221.804ZM113.738 218.298C112.522 217.083 111.33 215.813 110.196 214.522L110.838 213.957C111.96 215.234 113.139 216.491 114.343 217.693L113.738 218.298ZM229.171 214.485L228.527 213.921C229.649 212.642 230.744 211.31 231.78 209.962L232.459 210.483C231.411 211.846 230.305 213.193 229.171 214.485ZM106.907 210.524C105.859 209.163 104.843 207.749 103.886 206.322L104.597 205.846C105.543 207.257 106.548 208.656 107.585 210.002L106.907 210.524ZM235.48 206.275L234.769 205.799C235.716 204.384 236.628 202.921 237.48 201.448L238.22 201.877C237.359 203.365 236.437 204.845 235.48 206.275ZM101.146 201.933C100.284 200.446 99.4608 198.912 98.6998 197.375L99.4665 196.995C100.219 198.516 101.034 200.033 101.886 201.504L101.146 201.933ZM240.667 197.308L239.9 196.929C240.653 195.405 241.366 193.834 242.018 192.26L242.809 192.587C242.149 194.178 241.428 195.767 240.667 197.308ZM96.5583 192.668C95.899 191.082 95.2843 189.455 94.7311 187.832L95.5412 187.556C96.0881 189.162 96.6962 190.771 97.3483 192.34L96.5583 192.668ZM244.636 187.734L243.826 187.46C244.372 185.849 244.871 184.2 245.31 182.558L246.136 182.779C245.693 184.438 245.188 186.106 244.636 187.734ZM93.2242 182.878C92.7784 181.219 92.3824 179.522 92.0467 177.837L92.886 177.67C93.2177 179.337 93.6096 181.015 94.0506 182.657L93.2242 182.878ZM247.307 177.735L246.467 177.569C246.797 175.902 247.076 174.201 247.295 172.515L248.143 172.626C247.922 174.33 247.64 176.049 247.307 177.735ZM91.2034 172.729C90.9797 171.029 90.8088 169.296 90.6952 167.577L91.5491 167.521C91.6613 169.221 91.8305 170.936 92.0517 172.617L91.2034 172.729ZM248.645 167.473L247.791 167.418C247.9 165.728 247.956 164.005 247.956 162.299L247.955 162.096H248.811L248.811 162.297C248.811 164.024 248.755 165.764 248.645 167.473ZM91.3778 162.402H90.5222L90.5224 162.297C90.5224 160.611 90.5761 158.905 90.6822 157.228L91.5362 157.282C91.4313 158.941 91.378 160.629 91.378 162.299L91.3778 162.402ZM247.778 156.978C247.664 155.281 247.493 153.566 247.269 151.882L248.117 151.769C248.344 153.472 248.516 155.205 248.632 156.921L247.778 156.978ZM92.0254 152.184L91.1769 152.075C91.3966 150.37 91.6761 148.651 92.007 146.964L92.8467 147.129C92.5192 148.797 92.2428 150.498 92.0254 152.184ZM246.428 146.83C246.094 145.164 245.7 143.487 245.256 141.845L246.083 141.622C246.531 143.282 246.929 144.978 247.266 146.663L246.428 146.83ZM93.9981 142.139L93.1714 141.919C93.6129 140.257 94.1157 138.589 94.6655 136.962L95.476 137.236C94.9323 138.845 94.4351 140.495 93.9981 142.139ZM243.76 136.947C243.21 135.341 242.6 133.732 241.946 132.167L242.736 131.837C243.397 133.42 244.014 135.046 244.569 136.67L243.76 136.947ZM97.2765 132.433L96.4856 132.106C97.1424 130.517 97.8609 128.928 98.6215 127.383L99.389 127.761C98.6368 129.289 97.9259 130.861 97.2765 132.433ZM239.822 127.513C239.069 125.997 238.253 124.481 237.397 123.008L238.136 122.578C239.002 124.067 239.827 125.6 240.588 127.133L239.822 127.513ZM101.804 123.238L101.063 122.81C101.921 121.322 102.841 119.841 103.797 118.409L104.509 118.884C103.563 120.301 102.653 121.765 101.804 123.238ZM234.681 118.669C233.732 117.258 232.724 115.86 231.687 114.516L232.365 113.994C233.413 115.352 234.431 116.765 235.391 118.192L234.681 118.669ZM107.492 114.717L106.813 114.197C107.859 112.832 108.964 111.484 110.096 110.191L110.74 110.754C109.62 112.034 108.527 113.367 107.492 114.717ZM228.428 110.566C227.306 109.292 226.125 108.037 224.919 106.835L225.523 106.229C226.742 107.443 227.936 108.712 229.07 110L228.428 110.566ZM114.238 107.011L113.632 106.407C114.846 105.19 116.116 103.998 117.406 102.862L117.971 103.505C116.695 104.628 115.439 105.808 114.238 107.011ZM221.174 103.34C219.892 102.219 218.558 101.127 217.209 100.094L217.729 99.4149C219.093 100.459 220.442 101.562 221.737 102.695L221.174 103.34ZM121.923 100.249L121.401 99.5709C122.762 98.5223 124.175 97.505 125.601 96.5472L126.078 97.2575C124.667 98.205 123.269 99.2114 121.923 100.249ZM213.04 97.1135C211.625 96.1698 210.159 95.2607 208.685 94.4113L209.112 93.6698C210.602 94.5285 212.084 95.4476 213.515 96.4016L213.04 97.1135ZM130.419 94.5442L129.989 93.8043C131.473 92.9426 133.006 92.1186 134.545 91.3551L134.925 92.1217C133.403 92.8768 131.887 93.6919 130.419 94.5442ZM204.16 91.9995C202.632 91.2481 201.06 90.5385 199.487 89.8899L199.813 89.099C201.403 89.7545 202.993 90.4721 204.538 91.2316L204.16 91.9995ZM139.58 90.0004L139.251 89.2106C140.836 88.5503 142.463 87.9345 144.086 87.3805L144.362 88.1902C142.757 88.7383 141.148 89.3474 139.58 90.0004ZM194.683 88.0924C193.072 87.5495 191.422 87.0534 189.779 86.6178L189.997 85.7906C191.659 86.231 193.327 86.7325 194.956 87.2815L194.683 88.0924ZM149.261 86.6966L149.039 85.8702C150.697 85.4236 152.393 85.0265 154.079 84.6896L154.247 85.5285C152.579 85.8619 150.902 86.2548 149.261 86.6966L149.261 86.6966ZM184.787 85.4698C183.121 85.1437 181.42 84.8686 179.732 84.6517L179.841 83.8032C181.547 84.0221 183.267 84.3004 184.952 84.63L184.787 85.4698ZM159.299 84.691L159.187 83.8429C160.887 83.6182 162.619 83.446 164.339 83.3316L164.395 84.1853C162.695 84.2985 160.98 84.4688 159.299 84.691V84.691ZM174.634 84.1657C172.992 84.0629 171.321 84.0107 169.667 84.0107L169.515 84.0109V83.1553L169.665 83.1551C171.339 83.1551 173.028 83.2077 174.687 83.3117L174.634 84.1657Z" fill="#D1D1D1"/>
<path d="M296.303 161.289C294.591 161.289 292.87 161.233 291.175 161.126L291.23 160.272C292.908 160.379 294.613 160.433 296.298 160.433L296.349 160.433V161.288L296.309 161.289L296.303 161.289ZM301.525 161.119L301.469 160.265C303.166 160.154 304.881 159.986 306.565 159.766L306.677 160.614C304.973 160.837 303.24 161.007 301.525 161.119ZM286.022 160.628C284.316 160.407 282.597 160.126 280.912 159.794L281.078 158.954C282.744 159.283 284.444 159.561 286.132 159.779L286.022 160.628ZM311.785 159.773L311.619 158.934C313.286 158.604 314.964 158.213 316.606 157.773L316.828 158.6C315.168 159.044 313.471 159.439 311.785 159.773V159.773ZM275.868 158.626C274.21 158.185 272.543 157.681 270.912 157.13L271.186 156.319C272.799 156.865 274.449 157.363 276.088 157.8L275.868 158.626ZM321.782 157.096L321.507 156.286C323.112 155.74 324.721 155.134 326.291 154.482L326.619 155.273C325.032 155.931 323.405 156.545 321.782 157.096ZM266.057 155.306C264.469 154.649 262.881 153.929 261.335 153.167L261.713 152.4C263.242 153.154 264.814 153.865 266.384 154.515L266.057 155.306ZM331.328 153.134L330.949 152.367C332.473 151.613 333.99 150.8 335.459 149.95L335.887 150.691C334.403 151.55 332.869 152.372 331.328 153.134ZM256.764 150.723C255.275 149.863 253.795 148.941 252.365 147.985L252.84 147.274C254.255 148.22 255.719 149.131 257.192 149.982L256.764 150.723ZM340.278 147.953L339.802 147.242C341.212 146.299 342.612 145.294 343.961 144.257L344.482 144.935C343.118 145.984 341.704 146.999 340.278 147.953ZM248.155 144.967C246.792 143.921 245.444 142.815 244.151 141.681L244.715 141.038C245.994 142.16 247.327 143.253 248.676 144.288L248.155 144.967ZM348.483 141.649L347.918 141.006C349.195 139.884 350.453 138.706 351.656 137.504L352.261 138.109C351.045 139.324 349.774 140.515 348.483 141.649ZM240.37 138.143C239.153 136.928 237.961 135.658 236.827 134.367L237.47 133.802C238.592 135.079 239.771 136.336 240.974 137.538L240.37 138.143ZM355.802 134.33L355.158 133.766C356.281 132.487 357.375 131.155 358.411 129.807L359.09 130.328C358.042 131.691 356.936 133.038 355.802 134.33ZM233.538 130.369C232.49 129.007 231.474 127.594 230.517 126.167L231.228 125.691C232.174 127.102 233.18 128.5 234.216 129.847L233.538 130.369ZM362.111 126.12L361.4 125.644C362.347 124.229 363.259 122.766 364.111 121.293L364.851 121.722C363.99 123.21 363.068 124.69 362.111 126.12ZM227.777 121.778C226.915 120.291 226.092 118.757 225.331 117.22L226.098 116.84C226.85 118.361 227.665 119.878 228.517 121.349L227.777 121.778ZM367.298 117.153L366.531 116.774C367.284 115.25 367.997 113.678 368.649 112.105L369.44 112.432C368.78 114.023 368.059 115.612 367.298 117.153ZM223.189 112.513C222.53 110.927 221.915 109.3 221.362 107.677L222.172 107.401C222.719 109.007 223.327 110.616 223.979 112.184L223.189 112.513ZM371.267 107.579L370.457 107.305C371.003 105.694 371.502 104.044 371.941 102.403L372.767 102.624C372.324 104.283 371.819 105.951 371.267 107.579ZM219.855 102.723C219.41 101.064 219.013 99.3672 218.678 97.6817L219.517 97.5145C219.849 99.1819 220.241 100.86 220.682 102.502L219.855 102.723ZM373.938 97.5799L373.098 97.4141C373.428 95.7467 373.707 94.0463 373.926 92.3602L374.774 92.4709C374.553 94.1754 374.271 95.8944 373.938 97.5799ZM217.835 92.5739C217.611 90.8741 217.44 89.141 217.326 87.4222L218.18 87.3658C218.292 89.0662 218.462 90.7807 218.683 92.4623L217.835 92.5739ZM375.276 87.3182L374.422 87.263C374.531 85.5725 374.587 83.8504 374.587 82.1444L374.586 81.9413H375.442L375.443 82.1417C375.442 83.8686 375.387 85.6093 375.276 87.3182V87.3182ZM218.009 82.2465H217.153L217.154 82.1417C217.154 80.4559 217.207 78.7497 217.313 77.0731L218.167 77.1271C218.062 78.7859 218.009 80.4739 218.009 82.1444L218.009 82.2465ZM374.409 76.8229C374.295 75.1257 374.124 73.4111 373.9 71.727L374.748 71.6142C374.975 73.3169 375.148 75.05 375.263 76.7657L374.409 76.8229ZM218.656 72.0291L217.808 71.9196C218.028 70.2151 218.307 68.4957 218.638 66.8093L219.478 66.9744C219.15 68.6421 218.874 70.3429 218.656 72.0291ZM373.059 66.6754C372.725 65.0091 372.331 63.3319 371.888 61.69L372.714 61.467C373.162 63.127 373.56 64.8228 373.898 66.5075L373.059 66.6754ZM220.629 61.9842L219.802 61.7644C220.244 60.1021 220.747 58.4341 221.297 56.8068L222.107 57.0805C221.563 58.69 221.066 60.3398 220.629 61.9842ZM370.391 56.7924C369.841 55.1856 369.231 53.5772 368.578 52.0116L369.367 51.6819C370.028 53.2649 370.645 54.8911 371.2 56.5154L370.391 56.7924ZM223.908 52.2781L223.117 51.9514C223.773 50.3617 224.492 48.7725 225.253 47.2277L226.02 47.6058C225.268 49.1337 224.557 50.7056 223.908 52.2781ZM366.453 47.3583C365.7 45.8415 364.884 44.3258 364.028 42.8527L364.767 42.4228C365.633 43.9118 366.458 45.4444 367.219 46.9777L366.453 47.3583ZM228.435 43.0827L227.694 42.6553C228.552 41.1666 229.472 39.6858 230.428 38.2542L231.14 38.7293C230.194 40.1455 229.284 41.6103 228.435 43.0827ZM361.312 38.5143C360.363 37.1026 359.355 35.7053 358.318 34.3611L358.996 33.8385C360.044 35.1973 361.063 36.6098 362.022 38.0368L361.312 38.5143ZM234.123 34.5623L233.444 34.0417C234.49 32.6771 235.595 31.3291 236.727 30.0356L237.371 30.5992C236.251 31.8789 235.158 33.2122 234.123 34.5623ZM355.059 30.4108C353.937 29.1368 352.757 27.8816 351.55 26.6798L352.154 26.0736C353.373 27.2883 354.567 28.5573 355.701 29.8451L355.059 30.4108ZM240.869 26.8563L240.263 26.2522C241.477 25.0352 242.747 23.8425 244.037 22.7073L244.602 23.3495C243.326 24.4727 242.07 25.6525 240.869 26.8563ZM347.805 23.1845C346.523 22.0638 345.189 20.9719 343.84 19.9391L344.36 19.2598C345.724 20.3036 347.073 21.4074 348.368 22.5403L347.805 23.1845ZM248.554 20.0935L248.032 19.4159C249.393 18.3672 250.806 17.3499 252.232 16.3922L252.71 17.1024C251.299 18.0499 249.9 19.0564 248.554 20.0935ZM339.671 16.9585C338.256 16.0147 336.79 15.1056 335.316 14.2563L335.743 13.5147C337.234 14.3735 338.715 15.2926 340.146 16.2466L339.671 16.9585ZM257.05 14.3891L256.62 13.6492C258.104 12.7876 259.637 11.9635 261.176 11.2L261.557 11.9666C260.034 12.7218 258.518 13.5369 257.05 14.3891ZM330.791 11.8444C329.263 11.093 327.691 10.3835 326.118 9.73484L326.444 8.94399C328.034 9.59948 329.624 10.317 331.169 11.0765L330.791 11.8444ZM266.211 9.84534L265.882 9.05553C267.467 8.39522 269.094 7.77941 270.717 7.22544L270.994 8.0351C269.388 8.58323 267.779 9.19235 266.211 9.84534ZM321.314 7.93732C319.703 7.39443 318.053 6.8983 316.41 6.46276L316.629 5.63556C318.29 6.0759 319.958 6.57744 321.587 7.1264L321.314 7.93732ZM275.892 6.54151L275.67 5.71514C277.329 5.26851 279.025 4.87144 280.71 4.5345L280.878 5.3734C279.21 5.7068 277.533 6.09973 275.892 6.54153V6.54151ZM311.418 5.3147C309.752 4.98862 308.052 4.71352 306.363 4.49669L306.472 3.64817C308.179 3.86709 309.898 4.14533 311.583 4.47496L311.418 5.3147ZM285.93 4.53596L285.818 3.68786C287.518 3.4631 289.251 3.29097 290.97 3.1765L291.027 4.03023C289.326 4.14347 287.611 4.31371 285.93 4.53597V4.53596ZM301.265 4.01061C299.623 3.90784 297.952 3.85561 296.298 3.85561L296.146 3.85582V3.00021L296.296 3C297.97 3 299.659 3.05262 301.319 3.15667L301.265 4.01061Z" fill="#D1D1D1"/>
<path d="M95.8844 61.9578H95.8844C84.0266 61.9578 75.394 70.0093 72.4839 81.5044L68.8762 98.7493H71.4431L77.0046 84.6316L75.8337 98.7493H78.7158L80.8548 91.4766L80.4045 98.7493H115.079V81.1528C115.079 78.6321 114.583 76.136 113.618 73.8072C112.654 71.4784 111.24 69.3623 109.457 67.5799C107.675 65.7975 105.559 64.3836 103.23 63.419C100.901 62.4543 98.4052 61.9578 95.8844 61.9578Z" fill="#2F2E41"/>
<path d="M90.9082 84.4177C90.9082 84.4177 92.6195 94.6851 88.3414 96.3963C84.0633 98.1076 83.6355 98.1076 83.6355 98.1076L91.336 121.637L100.748 124.632L111.015 96.8241L106.309 94.6851C106.309 94.6851 101.603 88.268 103.315 84.4177H90.9082Z" fill="#A0616A"/>
<path d="M75.9353 165.273C75.9353 165.273 67.3791 175.541 69.5182 211.049L69.0904 221.316C69.0904 221.316 46.8444 279.07 61.3898 282.065C75.9353 285.059 77.2187 287.198 78.5021 283.776C79.7856 280.354 100.32 201.637 100.32 201.637C100.32 201.637 117.005 283.348 125.133 282.493C133.262 281.637 143.957 284.204 143.529 277.787C143.101 271.37 133.262 222.172 133.262 222.172C133.262 222.172 131.122 163.562 119.999 160.14C108.876 156.717 86.2027 155.434 75.9353 165.273Z" fill="#2F2E41"/>
<path d="M64.8123 279.07L60.962 288.91C60.962 288.91 54.1171 298.322 58.3951 299.605C62.6732 300.888 68.6625 297.466 68.6625 297.466C68.6625 297.466 72.085 284.632 72.085 281.209L64.8123 279.07Z" fill="#2F2E41"/>
<path d="M135.828 279.07L139.678 288.91C139.678 288.91 146.523 298.322 142.245 299.605C137.967 300.888 131.978 297.466 131.978 297.466C131.978 297.466 128.555 284.632 128.555 281.209L135.828 279.07Z" fill="#2F2E41"/>
<path d="M96.4696 89.5514C102.376 89.5514 107.165 84.763 107.165 78.8562C107.165 72.9494 102.376 68.161 96.4696 68.161C90.5628 68.161 85.7744 72.9494 85.7744 78.8562C85.7744 84.763 90.5628 89.5514 96.4696 89.5514Z" fill="#A0616A"/>
<path d="M98.1809 113.509C98.1809 113.509 88.7692 109.231 84.9189 96.8242L78.074 98.9632C78.074 98.9632 80.213 112.653 78.9296 115.648C78.9296 115.648 77.2184 158.856 78.074 159.712C78.9296 160.567 71.2291 167.84 73.7959 168.696C76.3627 169.551 90.0526 167.412 88.3414 164.846L86.6301 162.279L115.721 162.707C115.721 162.707 113.582 168.696 119.571 168.696C125.561 168.696 122.138 157.145 122.138 157.145L118.288 117.359C118.288 117.359 114.01 102.813 115.293 97.6798L109.304 95.5407C109.304 95.5407 105.881 107.947 98.1809 113.509Z" fill="#3F3D56"/>
<path d="M89.2387 72.9715L88.8785 76.3939H98.6505L99.9339 73.8271L99.6639 76.3939H111.485L103.356 63.5597L85.3884 63.9875L81.1104 76.3939H87.5275L89.2387 72.9715Z" fill="#2F2E41"/>
<path d="M152.727 183.455H41.0688V246.771H152.727V183.455Z" fill="white"/>
<path d="M113.116 247.199H41.0688V183.028H153.582V208.246H152.727V183.883H41.9245V246.343H113.116V247.199Z" fill="#3F3D56" fill-opacity="0.25"/>
<path d="M79.1433 98.7492C79.1433 98.7492 70.1594 98.3214 70.1594 105.594C70.1594 112.867 71.015 135.968 71.015 135.968L71.8706 143.241L71.4428 172.76C71.4428 172.76 63.3145 191.156 68.876 191.583C74.4374 192.011 77.4321 174.899 77.4321 174.899L79.1433 159.498C79.1433 159.498 78.0738 117.787 79.3572 116.075L79.1433 98.7492Z" fill="#A0616A"/>
<path d="M115.079 97.4658C115.079 97.4658 124.063 97.038 124.063 104.311C124.063 111.583 123.208 134.685 123.208 134.685L122.352 141.958L122.78 171.476C122.78 171.476 130.908 189.872 125.347 190.3C119.785 190.728 116.791 173.616 116.791 173.616L115.079 158.214C115.079 158.214 116.149 116.503 114.865 114.792L115.079 97.4658Z" fill="#A0616A"/>
<path d="M97.539 234.792C108.407 234.792 117.218 225.981 117.218 215.113C117.218 204.244 108.407 195.434 97.539 195.434C86.6705 195.434 77.8599 204.244 77.8599 215.113C77.8599 225.981 86.6705 234.792 97.539 234.792Z" fill="#4E0D4E"/>
<path d="M110.801 213.83H98.8228V201.851H96.256V213.83H84.2773V216.397H96.256V228.375H98.8228V216.397H110.801V213.83Z" fill="white"/>
<path d="M341.817 299.391H-0.000732422V300.246H341.817V299.391Z" fill="#2F2E41"/>
<path d="M282.78 100.428H171.122V163.743H282.78V100.428Z" fill="#F2F2F2"/>
<path d="M194.438 125.24C200.108 125.24 204.705 120.644 204.705 114.973C204.705 109.303 200.108 104.706 194.438 104.706C188.767 104.706 184.17 109.303 184.17 114.973C184.17 120.644 188.767 125.24 194.438 125.24Z" fill="white"/>
<path d="M269.732 113.262H210.694V116.684H269.732V113.262Z" fill="white"/>
<path d="M269.732 121.818H210.694V125.24H269.732V121.818Z" fill="white"/>
<path d="M269.732 130.374H184.17V133.797H269.732V130.374Z" fill="white"/>
<path d="M269.732 138.93H184.17V142.353H269.732V138.93Z" fill="white"/>
<path d="M269.732 147.486H184.17V150.909H269.732V147.486Z" fill="white"/>
<path d="M269.732 156.043H184.17V159.465H269.732V156.043Z" fill="white"/>
<path d="M242.741 164.171H170.694V100H283.208V125.218H282.352V100.856H171.55V163.316H242.741V164.171Z" fill="#3F3D56" fill-opacity="0.25"/>
<path d="M281.069 170.16C285.794 170.16 289.625 166.33 289.625 161.604C289.625 156.879 285.794 153.048 281.069 153.048C276.343 153.048 272.512 156.879 272.512 161.604C272.512 166.33 276.343 170.16 281.069 170.16Z" fill="#4E0D4E"/>
<path d="M286.834 161.046H281.626V155.838H280.51V161.046H275.302V162.162H280.51V167.37H281.626V162.162H286.834V161.046Z" fill="white"/>
<path d="M287.914 67.7431L399.571 67.7431V4.42758L287.914 4.42758V67.7431Z" fill="#F2F2F2"/>
<path d="M399.999 68.1711H327.952V67.3155H399.143V4.85562H288.341V29.218H287.486V4H399.999V68.1711Z" fill="#3F3D56" fill-opacity="0.25"/>
<path d="M386.737 11.2725H301.176V14.695H386.737V11.2725Z" fill="white"/>
<path d="M386.737 18.973H301.176V22.3955H386.737V18.973Z" fill="white"/>
<path d="M386.737 26.6736H301.176V30.096H386.737V26.6736Z" fill="white"/>
<path d="M386.737 34.3741H301.176V37.7966H386.737V34.3741Z" fill="white"/>
<path d="M386.737 42.0747H301.176V45.4971H386.737V42.0747Z" fill="white"/>
<path d="M386.737 51.4864H368.342V61.326H386.737V51.4864Z" fill="white"/>
<path d="M285.775 75.0158C290.5 75.0158 294.331 71.1851 294.331 66.4597C294.331 61.7342 290.5 57.9035 285.775 57.9035C281.049 57.9035 277.219 61.7342 277.219 66.4597C277.219 71.1851 281.049 75.0158 285.775 75.0158Z" fill="#4E0D4E"/>
<path d="M291.54 65.9016H286.332V60.6935H285.216V65.9016H280.008V67.0178H285.216V72.2259H286.332V67.0178H291.54V65.9016Z" fill="white"/>
</g>
<defs>
<clipPath id="clip0">
<rect width="400" height="300" fill="white"/>
</clipPath>
</defs>
</svg>
