<svg width="400" height="300" viewBox="0 0 400 300" fill="none" xmlns="http://www.w3.org/2000/svg">
<g clip-path="url(#clip0)">
<path d="M22.7467 300L16.2559 281.8C16.2559 281.8 23.3958 285.375 23.7204 289.925C23.7204 289.925 22.0976 267.175 18.8522 262.3C18.8522 262.3 24.0449 262.95 29.8867 288.3C29.8867 288.3 30.8603 259.05 22.0976 250.6C22.0976 250.6 34.1058 260.35 35.0794 281.475V300H22.7467Z" fill="#57B793"/>
<path d="M241.924 299.731L246.202 287.736C246.202 287.736 241.496 290.092 241.283 293.091C241.283 293.091 242.352 278.096 244.491 274.883C244.491 274.883 241.069 275.312 237.218 292.02C237.218 292.02 236.577 272.741 242.352 267.172C242.352 267.172 234.438 273.598 233.796 287.521V299.731H241.924Z" fill="#57B793"/>
<path d="M173.446 299.731L170.053 290.217C170.053 290.217 173.785 292.086 173.955 294.465C173.955 294.465 173.106 282.572 171.41 280.024C171.41 280.024 174.124 280.364 177.178 293.615C177.178 293.615 177.687 278.325 173.106 273.908C173.106 273.908 179.383 279.005 179.892 290.047V299.731H173.446Z" fill="#57B793"/>
<path opacity="0.3" d="M169.672 234.771C167.96 234.771 166.239 234.716 164.544 234.608L164.598 233.753C166.277 233.86 167.982 233.915 169.667 233.915L169.717 233.914V234.771L169.677 234.771L169.672 234.771ZM174.893 234.601L174.837 233.746C176.534 233.635 178.249 233.467 179.934 233.247L180.045 234.096C178.342 234.319 176.609 234.489 174.893 234.601V234.601ZM159.391 234.11C157.685 233.888 155.965 233.608 154.281 233.275L154.446 232.434C156.112 232.763 157.813 233.041 159.501 233.26L159.391 234.11ZM185.154 233.254L184.988 232.414C186.655 232.083 188.333 231.691 189.975 231.251L190.197 232.079C188.536 232.524 186.84 232.919 185.154 233.254V233.254ZM149.237 232.106C147.579 231.663 145.912 231.159 144.281 230.607L144.555 229.795C146.168 230.341 147.818 230.84 149.457 231.278L149.237 232.106ZM195.151 230.573L194.876 229.761C196.481 229.215 198.09 228.608 199.66 227.955L199.988 228.747C198.401 229.406 196.774 230.021 195.151 230.573ZM139.426 228.78C137.838 228.122 136.25 227.402 134.704 226.638L135.082 225.87C136.611 226.625 138.183 227.338 139.753 227.988L139.426 228.78ZM204.697 226.605L204.318 225.837C205.842 225.082 207.359 224.268 208.828 223.417L209.256 224.159C207.771 225.019 206.238 225.843 204.697 226.605V226.605ZM130.133 224.191C128.644 223.329 127.164 222.407 125.734 221.449L126.209 220.737C127.624 221.684 129.088 222.597 130.561 223.449L130.133 224.191ZM213.647 221.417L213.171 220.705C214.581 219.76 215.98 218.755 217.33 217.716L217.851 218.395C216.487 219.445 215.073 220.462 213.647 221.417V221.417ZM121.523 218.426C120.16 217.379 118.813 216.272 117.519 215.136L118.083 214.492C119.363 215.615 120.696 216.71 122.044 217.747L121.523 218.426ZM221.851 215.104L221.287 214.46C222.564 213.337 223.822 212.157 225.024 210.953L225.629 211.559C224.414 212.776 223.143 213.969 221.851 215.104ZM113.738 211.593C112.522 210.376 111.33 209.104 110.196 207.812L110.838 207.246C111.96 208.524 113.139 209.783 114.343 210.987L113.738 211.593ZM229.171 207.775L228.527 207.21C229.649 205.929 230.744 204.596 231.78 203.245L232.458 203.767C231.411 205.132 230.305 206.48 229.171 207.775ZM106.907 203.808C105.859 202.445 104.843 201.029 103.886 199.6L104.597 199.123C105.543 200.536 106.548 201.937 107.585 203.286L106.907 203.808ZM235.48 199.553L234.769 199.076C235.715 197.66 236.628 196.194 237.479 194.72L238.22 195.149C237.359 196.639 236.437 198.121 235.48 199.553ZM101.146 195.205C100.284 193.716 99.4608 192.18 98.6998 190.641L99.4665 190.26C100.219 191.783 101.034 193.302 101.886 194.775L101.146 195.205ZM240.667 190.574L239.9 190.194C240.653 188.667 241.366 187.094 242.018 185.518L242.809 185.846C242.149 187.439 241.428 189.03 240.667 190.574V190.574ZM96.5583 185.927C95.899 184.339 95.2843 182.71 94.7311 181.084L95.5412 180.808C96.0881 182.416 96.6962 184.027 97.3483 185.598L96.5583 185.927ZM244.636 180.986L243.825 180.711C244.371 179.098 244.871 177.446 245.309 175.802L246.136 176.023C245.693 177.685 245.188 179.355 244.636 180.986ZM93.2242 176.123C92.7784 174.461 92.3824 172.762 92.0467 171.074L92.886 170.907C93.2177 172.577 93.6096 174.257 94.0506 175.901L93.2242 176.123ZM247.306 170.973L246.467 170.807C246.797 169.137 247.075 167.434 247.295 165.745L248.143 165.856C247.921 167.563 247.639 169.285 247.306 170.973ZM91.2034 165.959C90.9797 164.257 90.8088 162.522 90.6952 160.8L91.5491 160.744C91.6613 162.447 91.8305 164.164 92.0517 165.848L91.2034 165.959ZM248.645 160.696L247.791 160.641C247.9 158.948 247.956 157.224 247.956 155.515L247.955 155.312H248.811L248.811 155.513C248.811 157.242 248.755 158.985 248.645 160.696ZM91.3778 155.618H90.5222L90.5224 155.512C90.5224 153.824 90.5761 152.116 90.6822 150.437L91.5362 150.491C91.4313 152.152 91.378 153.842 91.378 155.515L91.3778 155.618ZM247.778 150.186C247.664 148.487 247.493 146.77 247.269 145.083L248.117 144.97C248.343 146.675 248.516 148.411 248.632 150.129L247.778 150.186ZM92.0254 145.386L91.1769 145.276C91.3966 143.569 91.6761 141.847 92.007 140.158L92.8467 140.324C92.5192 141.994 92.2428 143.697 92.0254 145.386ZM246.427 140.024C246.094 138.356 245.7 136.676 245.256 135.032L246.083 134.808C246.531 136.471 246.929 138.169 247.266 139.856L246.427 140.024ZM93.9981 135.326L93.1713 135.106C93.6129 133.442 94.1157 131.771 94.6655 130.142L95.476 130.416C94.9323 132.028 94.4351 133.68 93.9981 135.326ZM243.759 130.127C243.21 128.518 242.6 126.908 241.946 125.34L242.736 125.01C243.397 126.595 244.013 128.223 244.569 129.85L243.759 130.127ZM97.2765 125.607L96.4856 125.279C97.1424 123.688 97.8609 122.096 98.6215 120.549L99.389 120.928C98.6368 122.458 97.9259 124.032 97.2765 125.607ZM239.822 120.68C239.069 119.161 238.253 117.643 237.397 116.168L238.136 115.737C239.002 117.228 239.827 118.763 240.588 120.299L239.822 120.68ZM101.804 116.398L101.063 115.97C101.921 114.479 102.841 112.996 103.797 111.563L104.509 112.039C103.563 113.457 102.653 114.924 101.804 116.398V116.398ZM234.681 111.823C233.731 110.41 232.724 109.01 231.687 107.664L232.365 107.141C233.413 108.502 234.431 109.916 235.391 111.345L234.681 111.823ZM107.492 107.866L106.813 107.344C107.859 105.978 108.964 104.628 110.096 103.333L110.74 103.897C109.62 105.179 108.527 106.514 107.492 107.866V107.866ZM228.428 103.708C227.306 102.433 226.125 101.176 224.919 99.9721L225.523 99.365C226.742 100.581 227.936 101.852 229.07 103.142L228.428 103.708ZM114.238 100.149L113.632 99.5439C114.846 98.3252 116.116 97.1307 117.406 95.994L117.971 96.637C116.695 97.7618 115.439 98.9433 114.238 100.149V100.149ZM221.174 96.4718C219.892 95.3495 218.558 94.2561 217.209 93.2218L217.729 92.5416C219.093 93.5869 220.441 94.6922 221.737 95.8266L221.174 96.4718ZM121.923 93.3764L121.401 92.6978C122.762 91.6477 124.175 90.629 125.601 89.6699L126.078 90.3811C124.667 91.33 123.269 92.3378 121.923 93.3764V93.3764ZM213.04 90.237C211.625 89.2919 210.159 88.3815 208.685 87.5309L209.112 86.7883C210.602 87.6483 212.084 88.5687 213.515 89.5241L213.04 90.237ZM130.419 87.664L129.989 86.923C131.473 86.0601 133.006 85.2349 134.545 84.4703L134.925 85.238C133.403 85.9942 131.887 86.8105 130.419 87.664V87.664ZM204.16 85.1157C202.632 84.3632 201.06 83.6526 199.487 83.0031L199.813 82.2111C201.403 82.8676 202.993 83.5861 204.538 84.3467L204.16 85.1157ZM139.58 83.1138L139.251 82.3228C140.836 81.6616 142.463 81.0449 144.086 80.4901L144.362 81.301C142.757 81.8499 141.148 82.4598 139.58 83.1138ZM194.683 81.203C193.072 80.6594 191.422 80.1625 189.778 79.7264L189.997 78.898C191.659 79.339 193.327 79.8412 194.956 80.391L194.683 81.203ZM149.261 79.8053L149.039 78.9777C150.697 78.5305 152.393 78.1328 154.079 77.7954L154.247 78.6355C152.579 78.9694 150.902 79.3628 149.261 79.8053L149.261 79.8053ZM184.787 78.5767C183.121 78.2502 181.42 77.9747 179.732 77.7575L179.841 76.9078C181.547 77.127 183.267 77.4057 184.952 77.7358L184.787 78.5767ZM159.299 77.7969L159.187 76.9476C160.886 76.7225 162.619 76.5501 164.339 76.4355L164.395 77.2904C162.695 77.4038 160.98 77.5743 159.299 77.7969V77.7969ZM174.634 77.2708C172.992 77.1678 171.321 77.1156 169.667 77.1156L169.514 77.1158V76.2589L169.665 76.2587C171.338 76.2587 173.028 76.3114 174.687 76.4156L174.634 77.2708Z" fill="white"/>
<path opacity="0.3" d="M296.303 161.513C294.591 161.513 292.87 161.458 291.175 161.35L291.23 160.494C292.908 160.602 294.613 160.656 296.298 160.656L296.349 160.656V161.512L296.309 161.513L296.303 161.513ZM301.525 161.342L301.469 160.487C303.166 160.376 304.881 160.208 306.565 159.988L306.677 160.837C304.973 161.06 303.24 161.23 301.525 161.342ZM286.022 160.851C284.316 160.63 282.597 160.349 280.912 160.016L281.078 159.175C282.744 159.505 284.444 159.782 286.132 160.001L286.022 160.851ZM311.785 159.995L311.619 159.155C313.286 158.824 314.964 158.433 316.606 157.993L316.828 158.82C315.168 159.265 313.471 159.661 311.785 159.995V159.995ZM275.868 158.847C274.21 158.405 272.543 157.901 270.912 157.348L271.186 156.536C272.799 157.083 274.449 157.582 276.088 158.019L275.868 158.847ZM321.782 157.314L321.507 156.503C323.112 155.957 324.721 155.349 326.291 154.697L326.619 155.488C325.032 156.148 323.405 156.762 321.782 157.314ZM266.057 155.521C264.469 154.864 262.881 154.143 261.335 153.38L261.713 152.611C263.242 153.366 264.814 154.079 266.384 154.73L266.057 155.521ZM331.328 153.347L330.949 152.578C332.473 151.824 333.99 151.01 335.459 150.159L335.887 150.9C334.403 151.761 332.869 152.584 331.328 153.347V153.347ZM256.764 150.932C255.275 150.071 253.795 149.148 252.365 148.191L252.84 147.478C254.255 148.426 255.719 149.338 257.192 150.19L256.764 150.932ZM340.278 148.159L339.802 147.447C341.212 146.502 342.612 145.496 343.961 144.457L344.482 145.136C343.118 146.187 341.704 147.203 340.278 148.159V148.159ZM248.155 145.168C246.792 144.12 245.444 143.013 244.151 141.878L244.715 141.233C245.994 142.357 247.327 143.452 248.675 144.488L248.155 145.168ZM348.483 141.845L347.918 141.201C349.195 140.078 350.453 138.898 351.656 137.694L352.261 138.3C351.045 139.517 349.774 140.71 348.483 141.845ZM240.37 138.334C239.153 137.117 237.961 135.845 236.827 134.553L237.47 133.987C238.592 135.266 239.771 136.524 240.974 137.728L240.37 138.334ZM355.802 134.516L355.158 133.951C356.281 132.671 357.375 131.337 358.411 129.987L359.09 130.509C358.042 131.874 356.936 133.222 355.802 134.516V134.516ZM233.538 130.55C232.49 129.186 231.474 127.77 230.517 126.342L231.228 125.864C232.174 127.278 233.18 128.678 234.216 130.027L233.538 130.55ZM362.111 126.294L361.4 125.817C362.347 124.401 363.259 122.935 364.111 121.461L364.851 121.89C363.99 123.38 363.068 124.862 362.111 126.294V126.294ZM227.777 121.946C226.915 120.457 226.092 118.921 225.331 117.382L226.098 117.002C226.85 118.524 227.665 120.043 228.517 121.517L227.777 121.946ZM367.298 117.315L366.531 116.935C367.284 115.409 367.997 113.835 368.649 112.259L369.44 112.587C368.78 114.181 368.059 115.771 367.298 117.315V117.315ZM223.189 112.668C222.53 111.08 221.915 109.451 221.362 107.825L222.172 107.549C222.719 109.157 223.327 110.769 223.979 112.339L223.189 112.668ZM371.267 107.727L370.457 107.452C371.003 105.839 371.502 104.188 371.941 102.543L372.767 102.765C372.324 104.427 371.819 106.096 371.267 107.727ZM219.855 102.865C219.41 101.202 219.013 99.5037 218.678 97.8158L219.517 97.6484C219.849 99.3181 220.241 100.998 220.682 102.643L219.855 102.865ZM373.938 97.7139L373.098 97.5478C373.428 95.8781 373.707 94.1753 373.926 92.4867L374.774 92.5976C374.553 94.3046 374.271 96.026 373.938 97.7139ZM217.835 92.7007C217.611 90.9986 217.44 89.263 217.326 87.5418L218.18 87.4853C218.292 89.1881 218.462 90.9051 218.683 92.589L217.835 92.7007ZM375.276 87.4376L374.422 87.3824C374.531 85.6894 374.587 83.9649 374.587 82.2565L374.586 82.0532H375.442L375.442 82.2538C375.442 83.9831 375.386 85.7263 375.276 87.4376V87.4376ZM218.009 82.3588H217.153L217.154 82.2538C217.154 80.5656 217.207 78.857 217.313 77.1781L218.167 77.232C218.062 78.8932 218.009 80.5836 218.009 82.2565L218.009 82.3588ZM374.409 76.9275C374.295 75.2278 374.124 73.5108 373.9 71.8244L374.748 71.7114C374.975 73.4165 375.148 75.1521 375.263 76.8701L374.409 76.9275ZM218.656 72.1269L217.808 72.0172C218.028 70.3103 218.307 68.5885 218.638 66.8997L219.478 67.065C219.15 68.7351 218.874 70.4383 218.656 72.1269ZM373.059 66.7656C372.725 65.0969 372.331 63.4174 371.888 61.7732L372.714 61.5498C373.162 63.2122 373.56 64.9103 373.897 66.5974L373.059 66.7656ZM220.629 62.0677L219.802 61.8476C220.244 60.1829 220.747 58.5126 221.297 56.883L222.107 57.1571C221.563 58.7688 221.066 60.421 220.629 62.0677ZM370.391 56.8686C369.841 55.2596 369.231 53.6488 368.577 52.081L369.367 51.7509C370.028 53.3361 370.645 54.9646 371.2 56.5912L370.391 56.8686ZM223.908 52.3479L223.117 52.0207C223.773 50.4288 224.492 48.8373 225.253 47.2904L226.02 47.669C225.268 49.199 224.557 50.7731 223.908 52.3479ZM366.453 47.4211C365.7 45.9022 364.884 44.3844 364.028 42.9092L364.767 42.4787C365.633 43.9698 366.458 45.5046 367.219 47.04L366.453 47.4211ZM228.435 43.1395L227.694 42.7115C228.552 41.2206 229.472 39.7377 230.428 38.3042L231.14 38.7799C230.194 40.1981 229.284 41.6649 228.435 43.1395ZM361.312 38.5646C360.363 37.1509 359.355 35.7517 358.318 34.4056L358.996 33.8822C360.044 35.2429 361.062 36.6574 362.022 38.0864L361.312 38.5646ZM234.123 34.607L233.444 34.0857C234.49 32.7191 235.595 31.3692 236.727 30.0739L237.371 30.6383C236.251 31.9198 235.158 33.255 234.123 34.607V34.607ZM355.059 30.4496C353.937 29.1738 352.757 27.9168 351.55 26.7134L352.154 26.1063C353.373 27.3227 354.567 28.5935 355.701 29.8832L355.059 30.4496ZM240.869 26.8901L240.263 26.2852C241.477 25.0664 242.747 23.872 244.037 22.7353L244.602 23.3783C243.326 24.5031 242.07 25.6846 240.869 26.8901V26.8901ZM347.805 23.213C346.523 22.0908 345.189 20.9973 343.84 19.9631L344.36 19.2829C345.724 20.3282 347.073 21.4335 348.368 22.5679L347.805 23.213ZM248.554 20.1177L248.032 19.4391C249.393 18.389 250.806 17.3703 252.232 16.4111L252.71 17.1224C251.299 18.0712 249.9 19.0791 248.554 20.1177V20.1177ZM339.671 16.9782C338.256 16.0331 336.79 15.1228 335.316 14.2722L335.743 13.5296C337.233 14.3896 338.715 15.31 340.146 16.2653L339.671 16.9782ZM257.05 14.4053L256.62 13.6643C258.104 12.8014 259.637 11.9762 261.176 11.2116L261.557 11.9793C260.034 12.7355 258.518 13.5518 257.05 14.4053V14.4053ZM330.791 11.857C329.263 11.1045 327.691 10.3939 326.118 9.74438L326.444 8.9524C328.034 9.60883 329.624 10.3274 331.169 11.088L330.791 11.857ZM266.211 9.85504L265.882 9.0641C267.467 8.40286 269.094 7.78618 270.717 7.23142L270.994 8.04223C269.388 8.59113 267.779 9.20112 266.211 9.85504ZM321.314 7.94431C319.703 7.40066 318.053 6.90382 316.41 6.46766L316.629 5.63929C318.29 6.08026 319.958 6.58251 321.587 7.13225L321.314 7.94431ZM275.892 6.54653L275.67 5.71899C277.329 5.27173 279.025 4.87409 280.71 4.53667L280.878 5.37676C279.21 5.71064 277.533 6.10412 275.892 6.54655V6.54653ZM311.418 5.31798C309.752 4.99144 308.052 4.71594 306.363 4.49881L306.472 3.64909C308.179 3.86832 309.898 4.14695 311.583 4.47705L311.418 5.31798ZM285.93 4.53813L285.818 3.68884C287.518 3.46375 289.251 3.29138 290.97 3.17675L291.027 4.03169C289.326 4.14509 287.611 4.31557 285.93 4.53815V4.53813ZM301.265 4.01204C299.623 3.90913 297.952 3.85683 296.298 3.85683L296.146 3.85703V3.00021L296.296 3C297.97 3 299.659 3.0527 301.319 3.15689L301.265 4.01204Z" fill="white"/>
<path d="M95.8844 61.3737H95.8844C84.0266 61.3737 75.394 69.4366 72.4839 80.948L68.8762 98.2173H71.4431L77.0046 84.0797L75.8337 98.2173H78.7158L80.8548 90.9343L80.4045 98.2173H115.079V80.5959C115.079 78.0716 114.583 75.572 113.618 73.2399C112.654 70.9078 111.24 68.7887 109.457 67.0038C107.675 65.2188 105.559 63.8029 103.23 62.8369C100.901 61.8709 98.4051 61.3737 95.8844 61.3737V61.3737Z" fill="#333333"/>
<path d="M90.9085 83.8654C90.9085 83.8654 92.6197 94.1473 88.3416 95.861C84.0635 97.5746 83.6357 97.5746 83.6357 97.5746L91.3363 121.137L100.748 124.136L111.015 96.2894L106.31 94.1473C106.31 94.1473 101.604 87.7211 103.315 83.8654H90.9085Z" fill="#C1836E"/>
<path d="M75.9353 164.836C75.9353 164.836 67.3791 175.117 69.5182 210.676L69.0904 220.958C69.0904 220.958 46.8444 278.794 61.3898 281.793C75.9353 284.791 77.2187 286.934 78.5021 283.506C79.7856 280.079 100.32 201.251 100.32 201.251C100.32 201.251 117.005 283.078 125.133 282.221C133.261 281.364 143.957 283.935 143.529 277.508C143.101 271.082 133.261 221.815 133.261 221.815C133.261 221.815 131.122 163.122 119.999 159.695C108.876 156.267 86.2027 154.982 75.9353 164.836Z" fill="#605D82"/>
<path d="M64.8125 278.794L60.9622 288.647C60.9622 288.647 54.1173 298.072 58.3954 299.358C62.6735 300.643 68.6628 297.215 68.6628 297.215C68.6628 297.215 72.0852 284.363 72.0852 280.936L64.8125 278.794Z" fill="#838384"/>
<path d="M135.828 278.794L139.678 288.647C139.678 288.647 146.523 298.072 142.245 299.358C137.967 300.643 131.978 297.215 131.978 297.215C131.978 297.215 128.555 284.363 128.555 280.936L135.828 278.794Z" fill="#838384"/>
<path d="M96.4698 89.0064C102.377 89.0064 107.165 84.2112 107.165 78.296C107.165 72.3809 102.377 67.5857 96.4698 67.5857C90.5631 67.5857 85.7747 72.3809 85.7747 78.296C85.7747 84.2112 90.5631 89.0064 96.4698 89.0064Z" fill="#C1836E"/>
<path d="M98.1809 112.997C98.1809 112.997 88.7692 108.713 84.9189 96.2893L78.074 98.4314C78.074 98.4314 80.213 112.141 78.9296 115.14C78.9296 115.14 77.2184 158.409 78.074 159.266C78.9296 160.123 71.2291 167.406 73.7959 168.263C76.3627 169.12 90.0526 166.978 88.3414 164.407L86.6301 161.837L115.721 162.265C115.721 162.265 113.582 168.263 119.571 168.263C125.561 168.263 122.138 156.696 122.138 156.696L118.288 116.853C118.288 116.853 114.01 102.287 115.293 97.1462L109.304 95.0041C109.304 95.0041 105.881 107.428 98.1809 112.997Z" fill="#DCD9FF"/>
<path d="M89.2388 72.403L88.8786 75.8303H98.6506L99.934 73.2598L99.6641 75.8303H111.485L103.356 62.9779L85.3886 63.4063L81.1105 75.8303H87.5276L89.2388 72.403Z" fill="#333333"/>
<path d="M152.726 183.043H41.0687V246.448H152.726V183.043Z" fill="#DCD9FF"/>
<path d="M113.116 246.877H41.0687V182.615H153.582V207.869H152.727V183.472H41.9243V246.02H113.116V246.877Z" fill="#3F3D56" fill-opacity="0.25"/>
<path d="M79.1433 98.2173C79.1433 98.2173 70.1594 97.7888 70.1594 105.072C70.1594 112.355 71.015 135.489 71.015 135.489L71.8706 142.772L71.4428 172.333C71.4428 172.333 63.3145 190.755 68.876 191.183C74.4375 191.611 77.4321 174.475 77.4321 174.475L79.1433 159.052C79.1433 159.052 78.0738 117.282 79.3572 115.568L79.1433 98.2173Z" fill="#C1836E"/>
<path d="M115.08 96.932C115.08 96.932 124.063 96.5036 124.063 103.787C124.063 111.07 123.208 134.204 123.208 134.204L122.352 141.487L122.78 171.048C122.78 171.048 130.908 189.469 125.347 189.898C119.785 190.326 116.791 173.19 116.791 173.19L115.08 157.767C115.08 157.767 116.149 115.996 114.866 114.283L115.08 96.932Z" fill="#C1836E"/>
<path d="M97.5392 234.453C108.408 234.453 117.218 225.63 117.218 214.746C117.218 203.862 108.408 195.039 97.5392 195.039C86.6708 195.039 77.8601 203.862 77.8601 214.746C77.8601 225.63 86.6708 234.453 97.5392 234.453Z" fill="#835783"/>
<path d="M110.801 213.461H98.8227V201.465H96.2558V213.461H84.2772V216.031H96.2558V228.027H98.8227V216.031H110.801V213.461Z" fill="white"/>
<path d="M341.818 299.143H-0.000732422V300H341.818V299.143Z" fill="#262626"/>
<path d="M282.78 100.428H171.122V163.833H282.78V100.428Z" fill="#656565"/>
<path d="M194.438 125.276C200.108 125.276 204.705 120.673 204.705 114.994C204.705 109.316 200.108 104.712 194.438 104.712C188.767 104.712 184.17 109.316 184.17 114.994C184.17 120.673 188.767 125.276 194.438 125.276Z" fill="#484847"/>
<path d="M269.732 113.281H210.695V116.708H269.732V113.281Z" fill="#484847"/>
<path d="M269.732 121.849H210.695V125.276H269.732V121.849Z" fill="#484847"/>
<path d="M269.732 130.417H184.17V133.844H269.732V130.417Z" fill="#484847"/>
<path d="M269.732 138.985H184.17V142.413H269.732V138.985Z" fill="#484847"/>
<path d="M269.732 147.554H184.17V150.981H269.732V147.554Z" fill="#484847"/>
<path d="M269.732 156.122H184.17V159.549H269.732V156.122Z" fill="#484847"/>
<path d="M242.741 164.262H170.694V100H283.208V125.254H282.352V100.857H171.55V163.405H242.741V164.262Z" fill="#707070"/>
<path d="M281.069 170.26C285.794 170.26 289.625 166.423 289.625 161.691C289.625 156.959 285.794 153.123 281.069 153.123C276.343 153.123 272.512 156.959 272.512 161.691C272.512 166.423 276.343 170.26 281.069 170.26Z" fill="#6D6D6D"/>
<path d="M286.834 161.133H281.626V155.917H280.511V161.133H275.302V162.25H280.511V167.466H281.626V162.25H286.834V161.133Z" fill="white"/>
<path d="M287.914 67.8334L399.571 67.8334V4.42818L287.914 4.42818V67.8334Z" fill="#656565"/>
<path d="M399.999 68.262H327.953V67.4052H399.143V4.85683H288.341V29.2537H287.486V4H399.999V68.262Z" fill="#707070"/>
<path d="M386.737 11.2829H301.175V14.7102H386.737V11.2829Z" fill="#484847"/>
<path d="M386.737 18.9943H301.175V22.4216H386.737V18.9943Z" fill="#484847"/>
<path d="M386.737 26.7058H301.175V30.1331H386.737V26.7058Z" fill="#484847"/>
<path d="M386.737 34.4172H301.175V37.8445H386.737V34.4172Z" fill="#484847"/>
<path d="M386.737 42.1286H301.175V45.5559H386.737V42.1286Z" fill="#484847"/>
<path d="M386.737 51.5537H368.342V61.4072H386.737V51.5537Z" fill="#484847"/>
<path d="M285.774 75.1164C290.5 75.1164 294.331 71.2803 294.331 66.5482C294.331 61.816 290.5 57.9799 285.774 57.9799C281.049 57.9799 277.218 61.816 277.218 66.5482C277.218 71.2803 281.049 75.1164 285.774 75.1164Z" fill="#6D6D6D"/>
<path d="M291.54 65.9894H286.332V60.7738H285.216V65.9894H280.008V67.1071H285.216V72.3226H286.332V67.1071H291.54V65.9894Z" fill="white"/>
</g>
<defs>
<clipPath id="clip0">
<rect width="400" height="300" fill="white"/>
</clipPath>
</defs>
</svg>
