<svg width="48" height="73" viewBox="0 0 48 73" fill="none" xmlns="http://www.w3.org/2000/svg">
<path d="M23.9822 36.0267C23.9822 29.3986 29.363 24.0178 35.9912 24.0178C42.6192 24.0178 48.0001 29.3986 48.0001 36.0267C48.0001 42.6548 42.6192 48.0356 35.9912 48.0356C29.363 48.0356 23.9822 42.6548 23.9822 36.0267Z" fill="#1ABCFE"/>
<path d="M0 60.0089C0 53.3808 5.38085 48 12.0089 48H24.0178V60.0089C24.0178 66.637 18.637 72.0178 12.0089 72.0178C5.38085 72.0178 0 66.637 0 60.0089Z" fill="#0ACF83"/>
<path d="M23.9822 0.0356369V24.0178H35.9912C42.6192 24.0178 48.0001 18.637 48.0001 12.0089C48.0001 5.38085 42.6192 0 35.9912 0H23.9822V0.0356369Z" fill="#FF7262"/>
<path d="M0 12.0445C0 18.6726 5.38085 24.0534 12.0089 24.0534H24.0178V0.0712514H12.0089C5.38085 0.0356166 0 5.41644 0 12.0445Z" fill="#F24E1E"/>
<path d="M0 36.0267C0 42.6548 5.38085 48.0356 12.0089 48.0356H24.0178V24.0535H12.0089C5.38085 24.0178 0 29.3987 0 36.0267Z" fill="#A259FF"/>
</svg>
