<svg width="600" height="203" viewBox="0 0 600 203" fill="none" xmlns="http://www.w3.org/2000/svg">
<path d="M236.5 38V139.8L249.6 139.9V91.4H281.2V78.6H249.6V50.8H290.7V38H236.5V38ZM314.3 58.7C319 58.7 322.9 54.9 322.9 50.1C322.9 45.3 319.1 41.5 314.3 41.5C309.6 41.5 305.7 45.3 305.7 50.1C305.7 54.9 309.5 58.7 314.3 58.7ZM307.6 71.5V139.9H320.7V71.5H307.6ZM369.3 69.5C351.9 69.5 339.8 84.2 339.8 101.7C339.8 119.2 351.9 133.9 369.3 133.9C377.3 133.9 383.8 130.9 388.6 125.8V134.9C388.7 146.2 379.7 155.6 368.3 155.7C368.2 155.7 368.2 155.7 368.1 155.7C363.9 155.7 359.8 154.1 356.5 151.8L349.9 163.2C365.5 173.3 386.3 168.8 396.3 153.2C399.8 147.7 401.7 141.4 401.7 134.9V71.6H388.6V77.7C383.8 72.6 377.3 69.5 369.3 69.5ZM352.9 101.7C352.9 90.8 361.2 82.3 370.8 82.3C380.4 82.3 388.6 90.9 388.6 101.7C388.6 112.6 380.3 121 370.8 121C361.2 121 352.9 112.5 352.9 101.7ZM448.9 82.3C441.1 82.4 434.8 88.8 434.9 96.6V139.8H421.8V71.4H434.9V77.7C438.9 72.4 445.1 69.4 451.8 69.5C461 69.5 468.1 74 472.1 81C476.7 73.9 484.5 69.6 492.9 69.5C507.8 69.5 517.1 81.5 517.1 96.4V139.8H504.1V96.6C504.1 88.8 497.9 82.4 490.1 82.3C482.3 82.4 476 88.8 476.1 96.6V139.8H462.9V96.6C462.9 88.8 456.7 82.4 448.9 82.3ZM586.9 79.2C580.9 72.9 572.5 69.4 563.8 69.5C544.3 69.5 530.5 86 530.5 105.6C530.5 125.3 544.3 141.7 563.8 141.7C572.5 141.7 580.8 138.2 586.9 132V139.8H600V71.4H586.9V79.2ZM543.6 105.6C543.6 92.6 553.6 82.2 565.3 82.2C576.9 82.3 586.9 92.6 586.9 105.6C586.9 118.6 576.9 128.9 565.2 128.9C553.7 129 543.6 118.7 543.6 105.6Z" fill="black"/>
<path d="M67.2998 101.1C67.2998 82.4999 82.3998 67.3999 101 67.3999C119.6 67.3999 134.7 82.4999 134.7 101.1C134.7 119.7 119.6 134.8 101 134.8C82.3998 134.8 67.2998 119.7 67.2998 101.1Z" fill="#1ABCFE"/>
<path d="M0 168.4C0 149.8 15.1 134.7 33.7 134.7H67.4V168.4C67.4 187 52.3 202.1 33.7 202.1C15.1 202.1 0 187 0 168.4Z" fill="#0ACF83"/>
<path d="M67.2998 0.100006V67.4H101C119.6 67.4 134.7 52.3 134.7 33.7C134.7 15.1 119.6 0 101 0H67.2998V0.100006Z" fill="#FF7262"/>
<path d="M0 33.7999C0 52.3999 15.1 67.4999 33.7 67.4999H67.4V0.199957H33.7C15.1 0.0999567 0 15.1999 0 33.7999Z" fill="#F24E1E"/>
<path d="M0 101.1C0 119.7 15.1 134.8 33.7 134.8H67.4V67.5H33.7C15.1 67.4 0 82.5 0 101.1Z" fill="#A259FF"/>
</svg>
